<?xml version="1.0" standalone="no"?><!DOCTYPE svg PUBLIC "-//W3C//DTD SVG 1.1//EN" "http://www.w3.org/Graphics/SVG/1.1/DTD/svg11.dtd"><svg height="679" legacy-metrics="false" node-id="1" sillyvg="true" template-height="679" template-width="1167" version="1.1" viewBox="0 0 1167 679" width="1167" xmlns="http://www.w3.org/2000/svg" xmlns:xlink="http://www.w3.org/1999/xlink"><defs node-id="55"></defs><g node-id="166"><path d="M 94.88 677.05 C 61.61 677.08 31.90 656.92 20.62 626.67 C -3.57 561.53 -24.88 440.86 69.83 310.34 C 174.55 166.03 384.04 16.83 531.39 1.55 C 762.23 -22.38 826.75 237.80 930.33 298.35 C 1019.82 350.66 1149.41 429.10 1166.35 593.04 C 1170.71 635.01 1139.06 672.45 1095.65 676.67 C 1093.04 676.92 1090.42 677.05 1087.79 677.05 Z" fill="#f3f5fd" fill-rule="nonzero" group-id="1" node-id="58" stroke="none" target-height="677.01105" target-width="1166.7188" target-x="0.012757778" target-y="0.04297343"></path></g><path d="M 106.43 672.67 C 86.62 666.53 67.41 658.51 49.90 636.06 C 46.30 631.46 42.93 625.57 44.90 620.06 C 46.38 615.91 50.66 613.26 55.02 612.58 C 56.64 612.35 58.29 612.30 59.92 612.45 C 59.93 612.45 59.94 612.45 59.94 612.45 C 62.45 612.70 64.93 613.19 67.35 613.90 L 68.04 614.10 C 79.60 617.38 90.61 622.36 100.71 628.86 C 102.60 630.06 105.06 629.80 106.66 628.24 C 108.26 626.67 108.57 624.22 107.41 622.30 C 106.38 620.62 105.18 619.05 103.83 617.61 C 101.84 615.52 99.66 613.63 97.32 611.96 C 94.20 609.68 90.88 607.66 87.63 605.58 C 75.54 597.89 64.09 589.23 53.39 579.71 C 45.75 572.90 38.28 565.35 34.65 555.78 C 32.98 551.38 32.22 546.31 34.21 542.04 C 37.49 535.04 46.80 533.08 54.40 534.53 C 67.73 537.09 78.38 546.86 87.82 556.60 C 95.66 564.69 104.43 573.65 115.68 574.15 C 117.60 574.33 119.53 573.94 121.23 573.03 C 124.44 571.09 125.26 566.59 124.12 563.01 C 122.97 559.43 120.33 556.58 117.77 553.83 C 102.92 537.90 88.31 521.33 78.67 501.80 C 69.02 482.27 64.75 459.23 71.45 438.50 C 73.42 432.44 76.37 426.54 80.97 422.14 C 85.58 417.74 92.04 414.98 98.36 415.82 C 106.97 416.96 113.46 424.23 117.82 431.73 C 132.82 457.48 131.91 489.04 136.13 518.54 C 137.31 526.80 139.03 535.27 143.95 542.07 C 144.40 542.72 144.99 543.27 145.68 543.68 C 149.72 546.02 153.36 541.29 154.88 537.28 C 160.88 521.41 162.38 503.26 173.12 490.13 C 177.22 485.13 183.02 480.95 189.48 480.99 C 197.38 481.05 204.14 487.64 206.44 495.19 C 208.75 502.75 207.37 510.95 204.90 518.45 C 200.32 532.36 192.10 544.85 182.43 555.83 C 177.33 561.63 171.56 567.48 170.03 575.05 C 169.07 580.27 170.90 585.62 174.84 589.18 C 176.67 590.78 179.07 591.56 181.50 591.36 C 184.09 591.12 186.43 589.80 188.69 588.51 C 189.64 587.97 190.59 587.42 191.55 586.89 C 195.32 584.74 199.09 582.59 202.87 580.43 C 212.46 574.96 224.05 569.37 234.04 574.08 C 239.14 576.49 242.49 581.23 244.06 586.67 C 245.46 591.60 245.46 596.83 244.06 601.77 C 241.08 612.03 222.32 640.59 214.58 647.96 C 205.54 656.56 174.20 693.67 106.43 672.67 Z" fill="#8ddbe0" fill-rule="nonzero" node-id="61" stroke="none" target-height="263.294" target-width="212.05757" target-x="33.054874" target-y="415.701"></path><path d="M 293.25 7.67 L 914.33 7.67 L 914.33 457.45 L 293.25 457.45 Z" fill="#dee8f5" fill-rule="nonzero" group-id="2" node-id="65" stroke="none" target-height="449.786" target-width="621.087" target-x="293.247" target-y="7.666"></path><path d="M 293.25 7.67 L 914.33 7.67 L 914.33 44.72 L 293.25 44.72 Z" fill="#c1d8ed" fill-rule="nonzero" group-id="2" node-id="67" stroke="none" target-height="37.051" target-width="621.087" target-x="293.247" target-y="7.666"></path><path d="M 902.83 26.19 C 902.83 31.33 898.67 35.49 893.53 35.49 C 888.40 35.49 884.24 31.33 884.24 26.19 C 884.24 21.06 888.40 16.90 893.53 16.90 C 898.67 16.90 902.83 21.06 902.83 26.19 Z" fill="#ffffff" fill-rule="nonzero" group-id="2" node-id="69" stroke="none" target-height="18.592" target-width="18.59198" target-x="884.236" target-y="16.896"></path><path d="M 341.49 99.76 L 423.71 99.76 L 423.71 181.98 L 341.49 181.98 Z" fill="#ffffff" fill-rule="nonzero" group-id="3" node-id="74" stroke="none" target-height="82.222" target-width="82.221985" target-x="341.493" target-y="99.757"></path><path d="M 452.09 99.76 L 534.31 99.76 L 534.31 181.98 L 452.09 181.98 Z" fill="#ffffff" fill-rule="nonzero" group-id="3" node-id="76" stroke="none" target-height="82.222" target-width="82.221985" target-x="452.086" target-y="99.757"></path><path d="M 562.68 99.76 L 644.90 99.76 L 644.90 181.98 L 562.68 181.98 Z" fill="#ffffff" fill-rule="nonzero" group-id="3" node-id="78" stroke="none" target-height="82.222" target-width="82.221985" target-x="562.679" target-y="99.757"></path><path d="M 673.27 99.76 L 755.49 99.76 L 755.49 181.98 L 673.27 181.98 Z" fill="#ffffff" fill-rule="nonzero" group-id="3" node-id="80" stroke="none" target-height="82.222" target-width="82.222046" target-x="673.272" target-y="99.757"></path><path d="M 341.49 209.34 L 423.71 209.34 L 423.71 291.57 L 341.49 291.57 Z" fill="#ffffff" fill-rule="nonzero" group-id="3" node-id="82" stroke="none" target-height="82.221985" target-width="82.221985" target-x="341.493" target-y="209.345"></path><path d="M 452.09 209.34 L 534.31 209.34 L 534.31 291.57 L 452.09 291.57 Z" fill="#fdb754" fill-rule="nonzero" group-id="3" node-id="84" stroke="none" target-height="82.221985" target-width="82.221985" target-x="452.086" target-y="209.345"></path><path d="M 562.68 209.34 L 644.90 209.34 L 644.90 291.57 L 562.68 291.57 Z" fill="#ffffff" fill-rule="nonzero" group-id="3" node-id="86" stroke="none" target-height="82.221985" target-width="82.221985" target-x="562.679" target-y="209.345"></path><path d="M 673.27 209.34 L 755.49 209.34 L 755.49 291.57 L 673.27 291.57 Z" fill="#ffffff" fill-rule="nonzero" group-id="3" node-id="88" stroke="none" target-height="82.221985" target-width="82.222046" target-x="673.272" target-y="209.345"></path><path d="M 341.49 318.93 L 423.71 318.93 L 423.71 401.15 L 341.49 401.15 Z" fill="#ffffff" fill-rule="nonzero" group-id="3" node-id="90" stroke="none" target-height="82.221985" target-width="82.221985" target-x="341.493" target-y="318.932"></path><path d="M 452.09 318.93 L 534.31 318.93 L 534.31 401.15 L 452.09 401.15 Z" fill="#ffffff" fill-rule="nonzero" group-id="3" node-id="92" stroke="none" target-height="82.221985" target-width="82.221985" target-x="452.086" target-y="318.932"></path><path d="M 562.68 318.93 L 644.90 318.93 L 644.90 401.15 L 562.68 401.15 Z" fill="#ffffff" fill-rule="nonzero" group-id="3" node-id="94" stroke="none" target-height="82.221985" target-width="82.221985" target-x="562.679" target-y="318.932"></path><path d="M 673.27 318.93 L 755.49 318.93 L 755.49 401.15 L 673.27 401.15 Z" fill="#ffffff" fill-rule="nonzero" group-id="3" node-id="96" stroke="none" target-height="82.221985" target-width="82.222046" target-x="673.272" target-y="318.932"></path><path d="M 783.87 99.76 L 866.09 99.76 L 866.09 181.98 L 783.87 181.98 Z" fill="#ffffff" fill-rule="nonzero" group-id="3" node-id="98" stroke="none" target-height="82.222" target-width="82.221985" target-x="783.866" target-y="99.757"></path><path d="M 783.87 209.34 L 866.09 209.34 L 866.09 291.57 L 783.87 291.57 Z" fill="#ffffff" fill-rule="nonzero" group-id="3" node-id="100" stroke="none" target-height="82.221985" target-width="82.221985" target-x="783.866" target-y="209.345"></path><path d="M 783.87 318.93 L 866.09 318.93 L 866.09 401.15 L 783.87 401.15 Z" fill="#ffffff" fill-rule="nonzero" group-id="3" node-id="102" stroke="none" target-height="82.221985" target-width="82.221985" target-x="783.866" target-y="318.932"></path><path d="M 403.29 668.20 L 382.44 665.72 C 383.38 657.83 384.44 648.35 384.51 646.79 C 384.51 646.89 384.51 646.97 384.51 647.04 L 405.51 647.04 C 405.51 647.66 405.51 649.58 403.29 668.20 Z" fill="#eda59f" fill-rule="nonzero" group-id="4" node-id="107" stroke="none" target-height="21.40802" target-width="23.071014" target-x="382.439" target-y="646.792"></path><path d="M 319.62 670.71 L 298.62 670.64 C 298.62 670.64 298.69 648.96 298.69 647.04 L 319.69 647.04 C 319.69 648.96 319.62 670.71 319.62 670.71 Z" fill="#eda59f" fill-rule="nonzero" group-id="4" node-id="109" stroke="none" target-height="23.674011" target-width="21.070007" target-x="298.616" target-y="647.036"></path><path d="M 411.04 660.94 C 409.30 616.93 409.20 570.71 408.65 526.58 C 401.43 478.99 397.63 426.79 388.72 379.53 L 388.45 379.61 L 387.67 374.28 L 311.59 369.59 L 308.63 419.29 L 308.92 419.29 C 305.09 485.87 297.68 592.90 293.20 660.38 L 330.07 663.49 C 336.66 597.13 346.39 491.42 352.35 426.01 C 358.88 459.34 366.03 496.87 371.83 530.59 C 373.10 573.67 374.16 618.56 374.05 661.57 Z" fill="#55affc" fill-rule="nonzero" group-id="4" node-id="111" stroke="none" target-height="293.90402" target-width="117.836" target-x="293.204" target-y="369.587"></path><path d="M 345.14 678.83 C 346.23 678.83 347.28 678.39 348.04 677.62 C 348.81 676.84 349.24 675.79 349.23 674.71 C 349.23 674.61 349.23 674.50 349.22 674.40 L 349.22 674.40 C 349.10 672.81 348.06 671.43 346.56 670.88 L 322.12 662.69 C 321.16 662.37 320.11 662.49 319.25 663.01 C 315.89 665.34 311.87 666.53 307.78 666.41 C 304.60 666.18 301.54 665.07 298.96 663.19 C 298.50 662.81 297.86 662.73 297.32 662.99 C 296.77 663.24 296.43 663.79 296.43 664.39 L 296.43 676.34 C 296.43 677.82 297.63 679.02 299.11 679.02 L 299.12 679.02 Z" fill="#c1d8ed" fill-rule="nonzero" group-id="4" node-id="113" stroke="none" target-height="16.481384" target-width="52.800995" target-x="296.432" target-y="662.53564"></path><path d="M 428.88 678.83 C 429.97 678.83 431.01 678.39 431.78 677.62 C 432.54 676.84 432.97 675.79 432.97 674.71 C 432.97 674.61 432.97 674.50 432.95 674.40 L 432.95 674.40 C 432.83 672.81 431.79 671.43 430.30 670.88 L 405.85 662.69 C 404.90 662.37 403.85 662.49 402.98 663.01 C 399.62 665.34 395.60 666.53 391.51 666.41 C 388.33 666.18 385.27 665.06 382.69 663.19 C 382.23 662.81 381.59 662.73 381.05 662.98 C 380.51 663.24 380.16 663.79 380.17 664.39 L 380.17 676.34 C 380.17 677.82 381.36 679.02 382.84 679.02 L 382.86 679.02 Z" fill="#c1d8ed" fill-rule="nonzero" group-id="4" node-id="115" stroke="none" target-height="16.481445" target-width="52.801025" target-x="380.166" target-y="662.53455"></path><path d="M 348.63 220.70 L 345.21 221.85 C 345.21 221.85 345.65 233.99 346.92 240.17 C 348.18 246.35 349.17 254.40 353.10 255.28 C 358.32 256.46 364.54 256.89 369.06 255.28 C 372.48 254.05 373.00 242.44 373.34 236.71 C 373.49 234.16 373.16 234.39 370.62 234.56 C 365.41 234.92 357.31 235.19 354.33 233.76 C 349.79 231.58 348.63 220.70 348.63 220.70 Z" fill="#0f1011" fill-rule="nonzero" group-id="4,7" node-id="119" stroke="none" target-height="35.625748" target-width="28.132996" target-x="345.206" target-y="220.7"></path><path d="M 335.97 266.21 C 335.97 266.21 343.70 262.11 341.98 241.06 L 357.95 238.09 C 357.95 238.09 356.15 256.97 364.24 262.96 Z" fill="#eda59f" fill-rule="nonzero" group-id="4,7" node-id="121" stroke="none" target-height="28.119003" target-width="28.269989" target-x="335.97" target-y="238.092"></path><path d="M 332.91 232.89 C 334.02 239.28 337.50 245.33 343.14 247.39 C 349.83 249.84 354.78 250.01 362.50 250.01 C 373.02 250.01 372.67 239.03 372.97 227.97 C 373.27 216.87 373.20 207.48 369.04 203.61 C 360.74 195.89 335.55 198.25 332.58 211.17 C 331.05 217.85 331.86 226.81 332.91 232.89 Z" fill="#eda59f" fill-rule="nonzero" group-id="4,7" node-id="123" stroke="none" target-height="50.791855" target-width="41.31726" target-x="331.75415" target-y="199.21414"></path><path d="M 327.84 224.67 C 329.38 234.38 331.39 237.45 334.30 242.09 C 336.02 244.99 338.33 247.50 341.09 249.45 C 343.23 250.83 364.24 250.54 367.87 250.01 C 373.22 249.23 374.03 233.98 373.07 233.98 C 371.88 233.98 371.60 233.95 370.26 233.95 C 367.82 233.95 367.57 219.38 367.11 212.94 C 367.49 212.88 367.87 212.86 368.25 212.86 C 379.75 212.85 325.26 208.37 327.84 224.67 Z" fill="#0f1011" fill-rule="nonzero" group-id="4,7" node-id="125" stroke="none" target-height="38.092804" target-width="45.614258" target-x="327.79913" target-y="212.34612"></path><path d="M 365.05 234.26 C 361.80 234.34 359.05 231.87 358.78 228.63 C 358.62 227.04 359.10 225.45 360.11 224.21 C 361.12 222.97 362.59 222.18 364.18 222.02 C 364.24 222.02 364.29 222.01 364.34 222.01 C 364.49 226.37 364.71 230.96 365.05 234.26 Z" fill="#eda59f" fill-rule="nonzero" group-id="4,7" node-id="127" stroke="none" target-height="12.25" target-width="6.269989" target-x="358.781" target-y="222.009"></path><path d="M 327.84 224.67 C 327.84 224.67 322.45 197.39 348.52 194.87 C 374.58 192.35 373.02 216.72 373.02 216.72 L 362.67 222.00 C 362.67 222.00 351.13 225.17 327.84 224.67 Z" fill="#55affc" fill-rule="nonzero" group-id="4,7" node-id="129" stroke="none" target-height="29.96788" target-width="45.60605" target-x="327.40994" target-y="194.70512"></path><path d="M 331.56 221.50 C 331.43 216.56 335.32 212.45 340.26 212.31 C 345.19 212.18 349.31 216.06 349.45 221.00" fill="#0f1011" fill-rule="nonzero" group-id="4,7" node-id="131" stroke="none" target-height="9.185486" target-width="17.894989" target-x="331.56" target-y="212.31451"></path><path d="M 362.68 221.99 C 362.68 221.99 371.19 219.13 375.74 216.44 C 380.58 213.57 387.14 208.37 387.10 206.83 C 387.04 204.13 377.62 203.37 369.91 203.68 L 369.97 203.79 C 372.62 209.04 371.17 215.42 366.52 219.01 Z" fill="#55affc" fill-rule="nonzero" group-id="4,7" node-id="133" stroke="none" target-height="18.37616" target-width="24.425018" target-x="362.679" target-y="203.61784"></path><path d="M 289.20 405.62 C 289.20 408.60 290.77 418.56 288.24 419.27 C 286.73 419.70 284.93 412.27 284.93 412.27" fill="#eda59f" fill-rule="nonzero" group-id="4,8" node-id="138" stroke="none" target-height="13.653992" target-width="4.7371216" target-x="284.933" target-y="405.62"></path><path d="M 277.25 404.06 C 277.25 404.06 268.99 424.17 278.42 435.72 C 278.91 436.33 279.72 436.56 280.46 436.33 C 281.20 436.09 281.71 435.42 281.76 434.65 C 282.22 426.86 283.79 410.85 288.93 412.72 L 288.93 400.15" fill="#eda59f" fill-rule="nonzero" group-id="4,8" node-id="140" stroke="none" target-height="36.184784" target-width="14.9930725" target-x="273.9359" target-y="400.155"></path><path d="M 463.60 296.89 C 463.60 296.89 475.14 287.72 475.96 284.43 C 476.77 281.14 468.65 274.66 468.65 274.66 C 468.65 274.66 479.45 263.76 477.30 262.19 C 474.75 260.32 462.21 276.17 462.21 276.17 C 462.21 276.17 463.99 270.47 461.78 270.09 C 460.87 269.94 460.15 270.83 458.73 274.87 C 457.11 279.46 453.88 286.38 453.88 286.38 Z" fill="#eda59f" fill-rule="nonzero" group-id="4" node-id="143" stroke="none" target-height="34.84558" target-width="23.700806" target-x="453.88" target-y="262.0454"></path><path d="M 451.45 284.70 L 417.31 323.11 L 390.61 275.31 C 388.08 267.76 382.32 262.70 370.58 262.20 C 366.57 262.03 346.98 262.00 332.63 262.00 C 323.00 262.00 315.09 264.95 310.52 269.52 C 308.22 271.79 306.50 274.58 305.50 277.65 L 305.36 277.60 L 282.41 340.02 C 282.15 340.72 281.96 341.44 281.86 342.18 L 272.59 404.59 L 294.16 407.79 L 303.26 346.49 L 312.53 321.28 C 313.49 325.16 314.02 329.13 314.10 333.12 C 314.10 354.12 304.60 363.54 305.30 374.32 C 306.40 391.26 388.73 387.26 392.93 377.63 C 397.25 367.71 388.48 361.59 388.86 329.12 C 388.90 325.59 389.18 321.90 389.55 318.13 L 405.75 347.13 C 407.47 350.21 410.58 352.27 414.09 352.65 C 417.60 353.04 421.07 351.70 423.42 349.06 L 468.30 296.56 Z" fill="#2f3235" fill-rule="nonzero" group-id="4" node-id="145" stroke="none" target-height="145.79602" target-width="195.712" target-x="272.591" target-y="261.998"></path><path d="M 969.25 520.66 L 937.76 674.25 C 937.34 675.90 935.86 677.05 934.16 677.05 L 934.16 677.05 C 933.02 677.05 931.94 676.53 931.23 675.63 C 930.53 674.72 930.28 673.55 930.56 672.44 L 962.50 517.08 Z" fill="#c1d8ed" fill-rule="nonzero" group-id="5,9" node-id="152" stroke="none" target-height="159.97302" target-width="38.791443" target-x="930.45654" target-y="517.081"></path><path d="M 1043.23 520.42 L 1074.72 674.00 C 1075.13 675.65 1076.62 676.81 1078.32 676.81 L 1078.32 676.81 C 1079.46 676.81 1080.54 676.28 1081.25 675.38 C 1081.95 674.48 1082.20 673.30 1081.92 672.19 L 1049.98 516.83 Z" fill="#c1d8ed" fill-rule="nonzero" group-id="5,9" node-id="154" stroke="none" target-height="159.97302" target-width="38.791504" target-x="1043.23" target-y="516.834"></path><path d="M 936.15 505.64 L 1076.33 505.64 C 1079.87 505.64 1082.74 508.51 1082.74 512.06 L 1082.74 526.19 C 1082.74 529.73 1079.87 532.60 1076.33 532.60 L 936.15 532.60 C 932.61 532.60 929.73 529.73 929.73 526.19 L 929.73 512.06 C 929.73 508.51 932.61 505.64 936.15 505.64 Z" fill="#dee8f5" fill-rule="nonzero" group-id="5" node-id="157" stroke="none" target-height="26.962036" target-width="153.01001" target-x="929.734" target-y="505.641"></path><path d="M 1036.48 434.61 C 1032.29 433.23 1027.99 434.77 1023.88 437.91 C 1029.30 424.22 1031.53 411.86 1022.27 411.30 C 1015.78 410.91 1010.82 415.88 1007.04 422.96 C 1005.72 410.52 1002.29 401.25 994.62 404.32 C 986.20 407.70 984.92 419.27 986.20 431.37 C 982.49 425.19 978.50 421.74 974.87 425.37 C 964.05 436.19 990.61 466.69 990.61 466.69 L 997.21 466.69 L 1000.98 470.78 C 1000.22 472.39 999.80 473.35 999.80 473.35 L 1004.58 483.08 C 1004.58 483.08 1053.88 440.30 1036.48 434.61 Z" fill="#8ddbe0" fill-rule="nonzero" group-id="6" node-id="162" stroke="none" target-height="79.29953" target-width="67.91266" target-x="972.27936" target-y="403.78348"></path><path d="M 1024.65 504.87 L 987.32 504.87 L 981.07 461.29 L 1030.90 461.29 L 1024.65 504.87 Z" fill="#c1d8ed" fill-rule="nonzero" group-id="6" node-id="164" stroke="none" target-height="43.587982" target-width="49.838074" target-x="981.066" target-y="461.285"></path></svg>