<?xml version="1.0" standalone="no"?><!DOCTYPE svg PUBLIC "-//W3C//DTD SVG 1.1//EN" "http://www.w3.org/Graphics/SVG/1.1/DTD/svg11.dtd"><svg height="800" legacy-metrics="false" node-id="1" sillyvg="true" template-height="800" template-width="800" version="1.1" viewBox="0 0 800 800" width="800" xmlns="http://www.w3.org/2000/svg" xmlns:xlink="http://www.w3.org/1999/xlink"><defs node-id="122"><clipPath id="mask-2" node-id="18"><path d="M 560.27 425.92 C 413.16 514.79 267.13 580.66 110.69 487.50 C -45.76 394.34 -38.36 150.78 149.19 52.93 C 336.74 -44.92 443.92 7.09 575.65 94.24 C 707.38 181.40 707.38 337.05 560.27 425.92 Z" fill="#000000" fill-rule="evenodd" node-id="125" stroke="none" target-height="532.69666" target-width="672.2019" target-x="0.36363018" target-y="0.017737865"></path></clipPath><clipPath id="mask-4" node-id="26"><path d="M 326.45 192.29 L 317.71 110.00 L 317.00 106.33 L 315.77 102.99 L 314.01 99.93 L 311.79 97.18 L 309.21 94.85 L 306.24 92.94 L 303.01 91.51 L 299.55 90.64 L 295.83 90.32 L 295.83 90.32 L 295.83 90.32 L 244.03 189.24 L 326.45 192.29 Z" fill="#000000" fill-rule="evenodd" node-id="129" stroke-linecap="butt" stroke-width="1" target-height="101.96912" target-width="82.42316" target-x="244.02505" target-y="90.31894"></path></clipPath><clipPath id="mask-6" node-id="31"><path d="M 43.82 40.03 L 69.45 29.53 C 86.38 22.59 104.50 19.04 122.79 19.06 L 678.02 19.82 C 688.37 19.84 696.75 28.24 696.74 38.59 C 696.74 38.91 696.73 39.23 696.71 39.54 C 696.11 51.06 687.58 60.62 676.21 62.53 C 544.33 84.62 453.10 96.51 402.50 98.20 C 169.65 105.98 49.52 93.85 38.18 91.92 C 24.43 89.58 14.11 86.39 7.22 82.34 L 7.22 82.34 C 1.58 79.04 -0.32 71.78 2.99 66.14 C 3.36 65.51 3.79 64.92 4.27 64.36 C 4.27 64.36 4.27 64.36 4.27 64.36 C 8.10 59.96 21.28 51.84 43.82 40.03 L 43.82 40.03 Z" fill="#000000" fill-rule="evenodd" node-id="133" stroke="none" target-height="81.66919" target-width="695.37195" target-x="1.3636208" target-y="19.064785"></path></clipPath><clipPath id="mask-8" node-id="62"><path d="M 210.00 246.44 L 304.85 246.44 L 304.85 264.00 L 49.98 337.00 L 41.33 339.23 L 32.63 341.01 L 23.86 342.34 L 15.02 343.22 L 6.15 343.64 L -2.72 343.61 L -11.59 343.12 L -20.48 342.17 L -23.31 341.79 L -23.31 341.79 L 210.00 246.44 Z" fill="#000000" fill-rule="evenodd" node-id="137" stroke-linecap="butt" stroke-width="1" target-height="97.204666" target-width="328.15567" target-x="-23.308502" target-y="246.43614"></path></clipPath><clipPath id="mask-10" node-id="68"><path d="M -34.00 201.25 L 2.51 206.95 L 2.51 215.51 L -84.99 235.78 L -93.38 237.46 L -101.82 238.63 L -110.32 239.29 L -118.85 239.44 L -127.36 239.07 L -135.88 238.20 L -135.88 238.20 L -135.88 238.20 L -34.00 201.25 Z" fill="#000000" fill-rule="evenodd" node-id="141" stroke-linecap="butt" stroke-width="1" target-height="38.19034" target-width="138.3901" target-x="-135.87791" target-y="201.24823"></path></clipPath><clipPath id="mask-12" node-id="80"><path d="M 244.21 344.11 L 279.74 341.50 L 281.03 341.62 L 282.17 342.12 L 283.10 342.95 L 283.74 344.07 L 285.63 348.54 L 287.67 352.30 L 289.86 355.46 L 293.53 360.30 L 295.67 363.79 L 297.87 368.50 L 299.05 371.87 L 299.98 375.82 L 300.63 380.41 L 300.82 385.02 L 300.48 390.31 L 299.52 396.38 L 298.47 400.76 L 296.95 405.58 L 294.91 410.90 L 292.27 416.76 L 290.82 422.74 L 290.34 423.89 L 289.55 424.80 L 288.53 425.44 L 287.32 425.75 L 249.89 429.10 L 248.44 428.96 L 247.19 428.35 L 246.23 427.34 L 245.67 426.00 L 244.90 423.65 L 243.45 420.84 L 241.12 417.47 L 237.69 413.44 L 234.31 409.48 L 231.54 405.52 L 229.33 401.55 L 227.64 397.57 L 226.42 393.40 L 225.72 389.09 L 225.54 384.60 L 225.90 379.90 L 226.84 375.38 L 228.17 371.62 L 229.87 368.17 L 231.66 365.28 L 235.22 360.41 L 236.72 358.29 L 237.69 356.52 L 239.18 352.47 L 240.65 347.14 L 241.13 345.97 L 241.93 345.04 L 242.98 344.40 L 244.21 344.11 Z" fill="#000000" fill-rule="evenodd" node-id="145" stroke-linecap="butt" stroke-width="1" target-height="87.59531" target-width="75.27409" target-x="225.54292" target-y="341.50305"></path></clipPath><clipPath id="mask-14" node-id="103"><path d="M 20.33 0.00 L 195.66 0.00 C 206.88 0.00 215.99 9.10 215.99 20.33 L 215.99 222.34 C 215.99 233.56 206.88 242.67 195.66 242.67 L 20.33 242.67 C 9.10 242.67 0.00 233.56 0.00 222.34 L 0.00 20.33 C -0.00 9.10 9.10 0.00 20.33 0.00 Z" fill="#000000" fill-rule="evenodd" node-id="149" stroke="none" target-height="242.66554" target-width="215.98503" target-x="0" target-y="0"></path></clipPath><clipPath id="mask-2_4" node-id="18"><path d="M 616.27 559.92 L 595.16 572.52 L 574.16 584.61 L 553.25 596.21 L 537.39 604.63 L 521.58 612.62 L 505.85 620.17 L 490.17 627.29 L 474.25 634.04 L 458.39 640.20 L 442.58 645.78 L 426.82 650.80 L 414.03 654.43 L 401.25 657.59 L 388.50 660.29 L 375.75 662.55 L 362.99 664.36 L 350.17 665.68 L 337.31 666.47 L 324.43 666.71 L 311.49 666.42 L 298.50 665.58 L 285.65 664.17 L 272.70 662.13 L 259.64 659.45 L 246.46 656.11 L 233.13 652.09 L 222.40 648.36 L 211.54 644.10 L 200.55 639.31 L 189.42 633.96 L 178.13 628.03 L 166.69 621.50 L 156.37 614.97 L 146.63 608.08 L 137.44 600.84 L 128.78 593.24 L 120.63 585.28 L 112.84 576.85 L 105.58 568.14 L 98.83 559.17 L 92.59 549.91 L 86.84 540.36 L 81.56 530.51 L 76.79 520.48 L 72.52 510.25 L 68.74 499.82 L 65.46 489.17 L 62.69 478.39 L 60.42 467.51 L 58.65 456.52 L 57.38 445.40 L 56.62 434.16 L 56.36 422.92 L 56.62 411.67 L 57.38 400.40 L 58.65 389.09 L 60.45 377.75 L 62.73 366.54 L 65.53 355.41 L 68.86 344.35 L 72.70 333.34 L 77.08 322.38 L 81.93 311.70 L 87.29 301.18 L 93.20 290.81 L 99.65 280.59 L 106.66 270.50 L 114.06 260.84 L 122.01 251.41 L 130.53 242.23 L 139.62 233.27 L 149.32 224.54 L 159.27 216.37 L 169.81 208.53 L 180.96 201.01 L 192.74 193.81 L 205.19 186.93 L 219.57 179.65 L 233.42 173.05 L 246.75 167.10 L 259.59 161.77 L 271.96 157.03 L 284.87 152.51 L 297.36 148.55 L 309.44 145.14 L 321.12 142.24 L 332.42 139.85 L 344.09 137.79 L 355.45 136.19 L 366.52 135.04 L 377.30 134.32 L 387.81 134.02 L 401.12 134.19 L 414.13 134.96 L 426.87 136.30 L 439.35 138.21 L 451.77 140.67 L 464.06 143.64 L 476.23 147.10 L 488.28 151.07 L 500.16 155.46 L 512.04 160.29 L 523.92 165.55 L 535.82 171.26 L 551.41 179.31 L 567.21 188.03 L 583.20 197.43 L 598.99 207.15 L 615.14 217.42 L 631.65 228.24 L 641.08 234.77 L 649.93 241.44 L 658.22 248.23 L 665.99 255.15 L 673.24 262.21 L 680.00 269.40 L 686.60 277.08 L 692.66 284.83 L 698.22 292.64 L 703.27 300.54 L 707.84 308.51 L 711.94 316.57 L 715.70 324.97 L 718.95 333.38 L 721.73 341.82 L 724.02 350.29 L 725.85 358.81 L 727.22 367.40 L 728.13 376.07 L 728.57 384.74 L 728.53 393.40 L 728.02 402.08 L 727.03 410.78 L 725.56 419.51 L 723.65 428.07 L 721.26 436.59 L 718.38 445.09 L 715.00 453.58 L 711.11 462.06 L 706.70 470.55 L 701.97 478.62 L 696.74 486.63 L 690.99 494.58 L 684.69 502.48 L 677.82 510.33 L 670.36 518.14 L 662.81 525.38 L 654.72 532.51 L 646.04 539.53 L 636.76 546.44 L 626.84 553.24 L 616.27 559.92 Z" fill="#000000" fill-rule="evenodd" node-id="125" stroke-linecap="butt" stroke-width="1" target-height="532.69666" target-width="672.2019" target-x="56.36363" target-y="134.01773"></path></clipPath><clipPath id="mask-2_5" node-id="18"><path d="M 616.27 559.92 L 595.16 572.52 L 574.16 584.61 L 553.25 596.21 L 537.39 604.63 L 521.58 612.62 L 505.85 620.17 L 490.17 627.29 L 474.25 634.04 L 458.39 640.20 L 442.58 645.78 L 426.82 650.80 L 414.03 654.43 L 401.25 657.59 L 388.50 660.29 L 375.75 662.55 L 362.99 664.36 L 350.17 665.68 L 337.31 666.47 L 324.43 666.71 L 311.49 666.42 L 298.50 665.58 L 285.65 664.17 L 272.70 662.13 L 259.64 659.45 L 246.46 656.11 L 233.13 652.09 L 222.40 648.36 L 211.54 644.10 L 200.55 639.31 L 189.42 633.96 L 178.13 628.03 L 166.69 621.50 L 156.37 614.97 L 146.63 608.08 L 137.44 600.84 L 128.78 593.24 L 120.63 585.28 L 112.84 576.85 L 105.58 568.14 L 98.83 559.17 L 92.59 549.91 L 86.84 540.36 L 81.56 530.51 L 76.79 520.48 L 72.52 510.25 L 68.74 499.82 L 65.46 489.17 L 62.69 478.39 L 60.42 467.51 L 58.65 456.52 L 57.38 445.40 L 56.62 434.16 L 56.36 422.92 L 56.62 411.67 L 57.38 400.40 L 58.65 389.09 L 60.45 377.75 L 62.73 366.54 L 65.53 355.41 L 68.86 344.35 L 72.70 333.34 L 77.08 322.38 L 81.93 311.70 L 87.29 301.18 L 93.20 290.81 L 99.65 280.59 L 106.66 270.50 L 114.06 260.84 L 122.01 251.41 L 130.53 242.23 L 139.62 233.27 L 149.32 224.54 L 159.27 216.37 L 169.81 208.53 L 180.96 201.01 L 192.74 193.81 L 205.19 186.93 L 219.57 179.65 L 233.42 173.05 L 246.75 167.10 L 259.59 161.77 L 271.96 157.03 L 284.87 152.51 L 297.36 148.55 L 309.44 145.14 L 321.12 142.24 L 332.42 139.85 L 344.09 137.79 L 355.45 136.19 L 366.52 135.04 L 377.30 134.32 L 387.81 134.02 L 401.12 134.19 L 414.13 134.96 L 426.87 136.30 L 439.35 138.21 L 451.77 140.67 L 464.06 143.64 L 476.23 147.10 L 488.28 151.07 L 500.16 155.46 L 512.04 160.29 L 523.92 165.55 L 535.82 171.26 L 551.41 179.31 L 567.21 188.03 L 583.20 197.43 L 598.99 207.15 L 615.14 217.42 L 631.65 228.24 L 641.08 234.77 L 649.93 241.44 L 658.22 248.23 L 665.99 255.15 L 673.24 262.21 L 680.00 269.40 L 686.60 277.08 L 692.66 284.83 L 698.22 292.64 L 703.27 300.54 L 707.84 308.51 L 711.94 316.57 L 715.70 324.97 L 718.95 333.38 L 721.73 341.82 L 724.02 350.29 L 725.85 358.81 L 727.22 367.40 L 728.13 376.07 L 728.57 384.74 L 728.53 393.40 L 728.02 402.08 L 727.03 410.78 L 725.56 419.51 L 723.65 428.07 L 721.26 436.59 L 718.38 445.09 L 715.00 453.58 L 711.11 462.06 L 706.70 470.55 L 701.97 478.62 L 696.74 486.63 L 690.99 494.58 L 684.69 502.48 L 677.82 510.33 L 670.36 518.14 L 662.81 525.38 L 654.72 532.51 L 646.04 539.53 L 636.76 546.44 L 626.84 553.24 L 616.27 559.92 Z" fill="#000000" fill-rule="evenodd" node-id="125" stroke-linecap="butt" stroke-width="1" target-height="532.69666" target-width="672.2019" target-x="56.36363" target-y="134.01773"></path></clipPath><clipPath id="mask-6_4" node-id="31"><path d="M 559.38 207.74 L 533.75 197.24 L 525.17 194.05 L 516.46 191.44 L 507.59 189.40 L 498.61 187.94 L 489.55 187.06 L 480.41 186.78 L -74.82 187.54 L -78.24 187.86 L -81.37 188.72 L -84.27 190.11 L -86.90 191.97 L -89.13 194.21 L -90.99 196.84 L -92.37 199.75 L -93.22 202.88 L -93.54 206.30 L -93.51 207.26 L -93.01 211.06 L -91.99 214.60 L -90.45 217.91 L -88.45 220.97 L -86.05 223.65 L -83.24 225.99 L -80.13 227.89 L -76.73 229.31 L -73.01 230.24 L -8.75 240.71 L 45.34 248.94 L 90.41 255.22 L 127.51 259.81 L 157.65 262.97 L 181.75 264.94 L 200.70 265.92 L 247.29 267.24 L 289.25 268.07 L 326.91 268.43 L 364.53 268.45 L 397.51 268.16 L 426.27 267.62 L 467.55 266.36 L 498.94 264.92 L 526.96 263.20 L 545.13 261.78 L 560.07 260.30 L 565.02 259.64 L 573.74 257.93 L 581.03 256.09 L 587.06 254.14 L 592.00 252.13 L 595.98 250.06 L 595.98 250.06 L 597.74 248.79 L 599.18 247.32 L 600.32 245.64 L 601.16 243.79 L 601.66 241.86 L 601.84 239.83 L 601.66 237.80 L 601.13 235.82 L 600.21 233.85 L 598.93 232.08 L 596.71 229.95 L 592.53 226.81 L 585.59 222.33 L 574.91 216.12 L 559.38 207.74 L 559.38 207.74 Z" fill="#000000" fill-rule="evenodd" node-id="133" stroke-linecap="butt" stroke-width="1" target-height="81.66919" target-width="695.37195" target-x="-93.53552" target-y="186.77847"></path></clipPath><clipPath id="mask-6_5" node-id="31"><path d="M 559.38 207.74 L 533.75 197.24 L 525.17 194.05 L 516.46 191.44 L 507.59 189.40 L 498.61 187.94 L 489.55 187.06 L 480.41 186.78 L -74.82 187.54 L -78.24 187.86 L -81.37 188.72 L -84.27 190.11 L -86.90 191.97 L -89.13 194.21 L -90.99 196.84 L -92.37 199.75 L -93.22 202.88 L -93.54 206.30 L -93.51 207.26 L -93.01 211.06 L -91.99 214.60 L -90.45 217.91 L -88.45 220.97 L -86.05 223.65 L -83.24 225.99 L -80.13 227.89 L -76.73 229.31 L -73.01 230.24 L -8.75 240.71 L 45.34 248.94 L 90.41 255.22 L 127.51 259.81 L 157.65 262.97 L 181.75 264.94 L 200.70 265.92 L 247.29 267.24 L 289.25 268.07 L 326.91 268.43 L 364.53 268.45 L 397.51 268.16 L 426.27 267.62 L 467.55 266.36 L 498.94 264.92 L 526.96 263.20 L 545.13 261.78 L 560.07 260.30 L 565.02 259.64 L 573.74 257.93 L 581.03 256.09 L 587.06 254.14 L 592.00 252.13 L 595.98 250.06 L 595.98 250.06 L 597.74 248.79 L 599.18 247.32 L 600.32 245.64 L 601.16 243.79 L 601.66 241.86 L 601.84 239.83 L 601.66 237.80 L 601.13 235.82 L 600.21 233.85 L 598.93 232.08 L 596.71 229.95 L 592.53 226.81 L 585.59 222.33 L 574.91 216.12 L 559.38 207.74 L 559.38 207.74 Z" fill="#000000" fill-rule="evenodd" node-id="133" stroke-linecap="butt" stroke-width="1" target-height="81.66919" target-width="695.37195" target-x="-93.53552" target-y="186.77847"></path></clipPath><clipPath id="mask-6_6" node-id="31"><path d="M 559.38 207.74 L 533.75 197.24 L 525.17 194.05 L 516.46 191.44 L 507.59 189.40 L 498.61 187.94 L 489.55 187.06 L 480.41 186.78 L -74.82 187.54 L -78.24 187.86 L -81.37 188.72 L -84.27 190.11 L -86.90 191.97 L -89.13 194.21 L -90.99 196.84 L -92.37 199.75 L -93.22 202.88 L -93.54 206.30 L -93.51 207.26 L -93.01 211.06 L -91.99 214.60 L -90.45 217.91 L -88.45 220.97 L -86.05 223.65 L -83.24 225.99 L -80.13 227.89 L -76.73 229.31 L -73.01 230.24 L -8.75 240.71 L 45.34 248.94 L 90.41 255.22 L 127.51 259.81 L 157.65 262.97 L 181.75 264.94 L 200.70 265.92 L 247.29 267.24 L 289.25 268.07 L 326.91 268.43 L 364.53 268.45 L 397.51 268.16 L 426.27 267.62 L 467.55 266.36 L 498.94 264.92 L 526.96 263.20 L 545.13 261.78 L 560.07 260.30 L 565.02 259.64 L 573.74 257.93 L 581.03 256.09 L 587.06 254.14 L 592.00 252.13 L 595.98 250.06 L 595.98 250.06 L 597.74 248.79 L 599.18 247.32 L 600.32 245.64 L 601.16 243.79 L 601.66 241.86 L 601.84 239.83 L 601.66 237.80 L 601.13 235.82 L 600.21 233.85 L 598.93 232.08 L 596.71 229.95 L 592.53 226.81 L 585.59 222.33 L 574.91 216.12 L 559.38 207.74 L 559.38 207.74 Z" fill="#000000" fill-rule="evenodd" node-id="133" stroke-linecap="butt" stroke-width="1" target-height="81.66919" target-width="695.37195" target-x="-93.53552" target-y="186.77847"></path></clipPath><clipPath id="mask-2_6" node-id="18"><path d="M 616.27 559.92 L 595.16 572.52 L 574.16 584.61 L 553.25 596.21 L 537.39 604.63 L 521.58 612.62 L 505.85 620.17 L 490.17 627.29 L 474.25 634.04 L 458.39 640.20 L 442.58 645.78 L 426.82 650.80 L 414.03 654.43 L 401.25 657.59 L 388.50 660.29 L 375.75 662.55 L 362.99 664.36 L 350.17 665.68 L 337.31 666.47 L 324.43 666.71 L 311.49 666.42 L 298.50 665.58 L 285.65 664.17 L 272.70 662.13 L 259.64 659.45 L 246.46 656.11 L 233.13 652.09 L 222.40 648.36 L 211.54 644.10 L 200.55 639.31 L 189.42 633.96 L 178.13 628.03 L 166.69 621.50 L 156.37 614.97 L 146.63 608.08 L 137.44 600.84 L 128.78 593.24 L 120.63 585.28 L 112.84 576.85 L 105.58 568.14 L 98.83 559.17 L 92.59 549.91 L 86.84 540.36 L 81.56 530.51 L 76.79 520.48 L 72.52 510.25 L 68.74 499.82 L 65.46 489.17 L 62.69 478.39 L 60.42 467.51 L 58.65 456.52 L 57.38 445.40 L 56.62 434.16 L 56.36 422.92 L 56.62 411.67 L 57.38 400.40 L 58.65 389.09 L 60.45 377.75 L 62.73 366.54 L 65.53 355.41 L 68.86 344.35 L 72.70 333.34 L 77.08 322.38 L 81.93 311.70 L 87.29 301.18 L 93.20 290.81 L 99.65 280.59 L 106.66 270.50 L 114.06 260.84 L 122.01 251.41 L 130.53 242.23 L 139.62 233.27 L 149.32 224.54 L 159.27 216.37 L 169.81 208.53 L 180.96 201.01 L 192.74 193.81 L 205.19 186.93 L 219.57 179.65 L 233.42 173.05 L 246.75 167.10 L 259.59 161.77 L 271.96 157.03 L 284.87 152.51 L 297.36 148.55 L 309.44 145.14 L 321.12 142.24 L 332.42 139.85 L 344.09 137.79 L 355.45 136.19 L 366.52 135.04 L 377.30 134.32 L 387.81 134.02 L 401.12 134.19 L 414.13 134.96 L 426.87 136.30 L 439.35 138.21 L 451.77 140.67 L 464.06 143.64 L 476.23 147.10 L 488.28 151.07 L 500.16 155.46 L 512.04 160.29 L 523.92 165.55 L 535.82 171.26 L 551.41 179.31 L 567.21 188.03 L 583.20 197.43 L 598.99 207.15 L 615.14 217.42 L 631.65 228.24 L 641.08 234.77 L 649.93 241.44 L 658.22 248.23 L 665.99 255.15 L 673.24 262.21 L 680.00 269.40 L 686.60 277.08 L 692.66 284.83 L 698.22 292.64 L 703.27 300.54 L 707.84 308.51 L 711.94 316.57 L 715.70 324.97 L 718.95 333.38 L 721.73 341.82 L 724.02 350.29 L 725.85 358.81 L 727.22 367.40 L 728.13 376.07 L 728.57 384.74 L 728.53 393.40 L 728.02 402.08 L 727.03 410.78 L 725.56 419.51 L 723.65 428.07 L 721.26 436.59 L 718.38 445.09 L 715.00 453.58 L 711.11 462.06 L 706.70 470.55 L 701.97 478.62 L 696.74 486.63 L 690.99 494.58 L 684.69 502.48 L 677.82 510.33 L 670.36 518.14 L 662.81 525.38 L 654.72 532.51 L 646.04 539.53 L 636.76 546.44 L 626.84 553.24 L 616.27 559.92 Z" fill="#000000" fill-rule="evenodd" node-id="125" stroke-linecap="butt" stroke-width="1" target-height="532.69666" target-width="672.2019" target-x="56.36363" target-y="134.01773"></path></clipPath><clipPath id="mask-14_4" node-id="103"><path d="M 543.13 265.26 L 718.46 265.26 L 722.17 265.61 L 725.57 266.53 L 728.72 268.04 L 731.57 270.06 L 733.99 272.48 L 736.01 275.33 L 737.51 278.48 L 738.44 281.88 L 738.79 285.59 L 738.79 487.60 L 738.44 491.31 L 737.51 494.71 L 736.01 497.86 L 733.99 500.71 L 731.57 503.13 L 728.72 505.15 L 725.57 506.66 L 722.17 507.58 L 718.46 507.93 L 543.13 507.93 L 539.42 507.58 L 536.02 506.66 L 532.87 505.15 L 530.02 503.13 L 527.60 500.71 L 525.58 497.86 L 524.07 494.71 L 523.15 491.31 L 522.80 487.60 L 522.80 285.59 L 523.15 281.88 L 524.07 278.48 L 525.58 275.33 L 527.60 272.48 L 530.02 270.06 L 532.87 268.04 L 536.02 266.53 L 539.42 265.61 L 543.13 265.26 Z" fill="#000000" fill-rule="evenodd" node-id="149" stroke-linecap="butt" stroke-width="1" target-height="242.66556" target-width="215.98505" target-x="522.80005" target-y="265.262"></path></clipPath><clipPath id="mask-14_5" node-id="103"><path d="M 543.13 265.26 L 718.46 265.26 L 722.17 265.61 L 725.57 266.53 L 728.72 268.04 L 731.57 270.06 L 733.99 272.48 L 736.01 275.33 L 737.51 278.48 L 738.44 281.88 L 738.79 285.59 L 738.79 487.60 L 738.44 491.31 L 737.51 494.71 L 736.01 497.86 L 733.99 500.71 L 731.57 503.13 L 728.72 505.15 L 725.57 506.66 L 722.17 507.58 L 718.46 507.93 L 543.13 507.93 L 539.42 507.58 L 536.02 506.66 L 532.87 505.15 L 530.02 503.13 L 527.60 500.71 L 525.58 497.86 L 524.07 494.71 L 523.15 491.31 L 522.80 487.60 L 522.80 285.59 L 523.15 281.88 L 524.07 278.48 L 525.58 275.33 L 527.60 272.48 L 530.02 270.06 L 532.87 268.04 L 536.02 266.53 L 539.42 265.61 L 543.13 265.26 Z" fill="#000000" fill-rule="evenodd" node-id="149" stroke-linecap="butt" stroke-width="1" target-height="242.66556" target-width="215.98505" target-x="522.80005" target-y="265.262"></path></clipPath><clipPath id="mask-14_6" node-id="103"><path d="M 543.13 265.26 L 718.46 265.26 L 722.17 265.61 L 725.57 266.53 L 728.72 268.04 L 731.57 270.06 L 733.99 272.48 L 736.01 275.33 L 737.51 278.48 L 738.44 281.88 L 738.79 285.59 L 738.79 487.60 L 738.44 491.31 L 737.51 494.71 L 736.01 497.86 L 733.99 500.71 L 731.57 503.13 L 728.72 505.15 L 725.57 506.66 L 722.17 507.58 L 718.46 507.93 L 543.13 507.93 L 539.42 507.58 L 536.02 506.66 L 532.87 505.15 L 530.02 503.13 L 527.60 500.71 L 525.58 497.86 L 524.07 494.71 L 523.15 491.31 L 522.80 487.60 L 522.80 285.59 L 523.15 281.88 L 524.07 278.48 L 525.58 275.33 L 527.60 272.48 L 530.02 270.06 L 532.87 268.04 L 536.02 266.53 L 539.42 265.61 L 543.13 265.26 Z" fill="#000000" fill-rule="evenodd" node-id="149" stroke-linecap="butt" stroke-width="1" target-height="242.66556" target-width="215.98505" target-x="522.80005" target-y="265.262"></path></clipPath></defs><path d="M 0.00 0.00 L 800.00 0.00 L 800.00 800.00 L 0.00 800.00 Z" fill="#ffffff" fill-rule="evenodd" node-id="154" stroke="none" target-height="800" target-width="800" target-x="0" target-y="0"></path><g node-id="300"><g node-id="301"><g node-id="303"><path d="M 616.27 559.92 L 595.16 572.52 L 574.16 584.61 L 553.25 596.21 L 537.39 604.63 L 521.58 612.62 L 505.85 620.17 L 490.17 627.29 L 474.25 634.04 L 458.39 640.20 L 442.58 645.78 L 426.82 650.80 L 414.03 654.43 L 401.25 657.59 L 388.50 660.29 L 375.75 662.55 L 362.99 664.36 L 350.17 665.68 L 337.31 666.47 L 324.43 666.71 L 311.49 666.42 L 298.50 665.58 L 285.65 664.17 L 272.70 662.13 L 259.64 659.45 L 246.46 656.11 L 233.13 652.09 L 222.40 648.36 L 211.54 644.10 L 200.55 639.31 L 189.42 633.96 L 178.13 628.03 L 166.69 621.50 L 156.37 614.97 L 146.63 608.08 L 137.44 600.84 L 128.78 593.24 L 120.63 585.28 L 112.84 576.85 L 105.58 568.14 L 98.83 559.17 L 92.59 549.91 L 86.84 540.36 L 81.56 530.51 L 76.79 520.48 L 72.52 510.25 L 68.74 499.82 L 65.46 489.17 L 62.69 478.39 L 60.42 467.51 L 58.65 456.52 L 57.38 445.40 L 56.62 434.16 L 56.36 422.92 L 56.62 411.67 L 57.38 400.40 L 58.65 389.09 L 60.45 377.75 L 62.73 366.54 L 65.53 355.41 L 68.86 344.35 L 72.70 333.34 L 77.08 322.38 L 81.93 311.70 L 87.29 301.18 L 93.20 290.81 L 99.65 280.59 L 106.66 270.50 L 114.06 260.84 L 122.01 251.41 L 130.53 242.23 L 139.62 233.27 L 149.32 224.54 L 159.27 216.37 L 169.81 208.53 L 180.96 201.01 L 192.74 193.81 L 205.19 186.93 L 219.57 179.65 L 233.42 173.05 L 246.75 167.10 L 259.59 161.77 L 271.96 157.03 L 284.87 152.51 L 297.36 148.55 L 309.44 145.14 L 321.12 142.24 L 332.42 139.85 L 344.09 137.79 L 355.45 136.19 L 366.52 135.04 L 377.30 134.32 L 387.81 134.02 L 401.12 134.19 L 414.13 134.96 L 426.87 136.30 L 439.35 138.21 L 451.77 140.67 L 464.06 143.64 L 476.23 147.10 L 488.28 151.07 L 500.16 155.46 L 512.04 160.29 L 523.92 165.55 L 535.82 171.26 L 551.41 179.31 L 567.21 188.03 L 583.20 197.43 L 598.99 207.15 L 615.14 217.42 L 631.65 228.24 L 641.08 234.77 L 649.93 241.44 L 658.22 248.23 L 665.99 255.15 L 673.24 262.21 L 680.00 269.40 L 686.60 277.08 L 692.66 284.83 L 698.22 292.64 L 703.27 300.54 L 707.84 308.51 L 711.94 316.57 L 715.70 324.97 L 718.95 333.38 L 721.73 341.82 L 724.02 350.29 L 725.85 358.81 L 727.22 367.40 L 728.13 376.07 L 728.57 384.74 L 728.53 393.40 L 728.02 402.08 L 727.03 410.78 L 725.56 419.51 L 723.65 428.07 L 721.26 436.59 L 718.38 445.09 L 715.00 453.58 L 711.11 462.06 L 706.70 470.55 L 701.97 478.62 L 696.74 486.63 L 690.99 494.58 L 684.69 502.48 L 677.82 510.33 L 670.36 518.14 L 662.81 525.38 L 654.72 532.51 L 646.04 539.53 L 636.76 546.44 L 626.84 553.24 L 616.27 559.92 Z" fill="#f3f9ff" fill-rule="evenodd" group-id="1,2,4" node-id="160" stroke-linecap="butt" stroke-width="1" target-height="532.69666" target-width="672.2019" target-x="56.36363" target-y="134.01773"></path></g><g node-id="304"><g clip-path="url(#mask-2_4)" group-id="1,2,5" node-id="163"><path d="M 116.75 247.95 L 112.74 266.99 L 109.61 284.68 L 107.30 301.11 L 105.75 316.33 L 104.90 330.44 L 104.70 343.49 L 105.10 355.55 L 106.04 366.70 L 107.50 377.00 L 109.44 386.50 L 111.82 395.26 L 114.62 403.33 L 117.81 410.78 L 121.39 417.63 L 125.35 423.94 L 129.68 429.74 L 134.40 435.05 L 139.50 439.92 L 145.02 444.34 L 150.97 448.35 L 157.38 451.94 L 164.28 455.11 L 171.72 457.86 L 179.73 460.16 L 188.36 462.01 L 197.67 463.37 L 207.70 464.22 L 218.51 464.50 L 230.16 464.19 L 242.71 463.23 L 260.55 461.15 L 277.15 458.72 L 292.61 455.95 L 308.00 452.71 L 322.48 449.25 L 336.07 445.58 L 349.60 441.56 L 362.49 437.45 L 374.75 433.23 L 392.94 426.61 L 410.28 420.00 L 444.28 406.98 L 461.21 400.90 L 478.40 395.28 L 489.98 391.88 L 501.93 388.78 L 514.26 385.99 L 526.68 383.65 L 539.75 381.72 L 553.50 380.23 L 563.75 379.47 L 574.53 379.02 L 585.86 378.88 L 597.76 379.08 L 609.41 379.61 L 621.75 380.54 L 634.83 381.87 L 648.66 383.65 L 656.41 384.51 L 663.80 384.88 L 670.86 384.79 L 677.60 384.27 L 684.06 383.32 L 690.58 381.91 L 696.80 380.13 L 702.76 377.97 L 708.46 375.44 L 713.93 372.53 L 720.50 368.39 L 726.69 363.74 L 732.54 358.58 L 738.04 352.89 L 743.10 346.83 L 747.81 340.34 L 752.17 333.40 L 756.19 325.98 L 759.73 318.38 L 762.90 310.43 L 765.71 302.11 L 768.14 293.39 L 770.90 309.09 L 772.96 324.31 L 774.35 339.05 L 775.09 353.35 L 775.20 367.23 L 774.71 380.71 L 773.62 393.81 L 771.95 406.55 L 769.71 418.96 L 766.91 431.05 L 763.55 442.85 L 759.63 454.36 L 755.16 465.60 L 750.12 476.60 L 744.51 487.35 L 738.32 497.89 L 731.54 508.21 L 724.16 518.33 L 716.14 528.25 L 707.48 537.99 L 698.14 547.54 L 688.11 556.91 L 677.35 566.10 L 665.84 575.11 L 653.54 583.94 L 640.41 592.59 L 626.43 601.05 L 611.55 609.32 L 595.73 617.39 L 578.93 625.24 L 561.11 632.88 L 542.23 640.29 L 522.22 647.45 L 501.17 654.32 L 480.73 660.36 L 460.86 665.59 L 441.56 670.05 L 422.79 673.75 L 404.55 676.73 L 386.80 679.01 L 369.53 680.62 L 352.71 681.57 L 336.34 681.89 L 320.38 681.58 L 304.82 680.67 L 289.64 679.17 L 274.82 677.10 L 260.34 674.44 L 246.20 671.23 L 232.36 667.45 L 218.83 663.12 L 205.57 658.23 L 192.58 652.78 L 179.85 646.76 L 167.36 640.18 L 155.10 633.01 L 143.07 625.26 L 131.25 616.91 L 119.63 607.94 L 108.22 598.34 L 97.00 588.09 L 85.97 577.16 L 75.12 565.54 L 64.47 553.21 L 58.70 533.97 L 53.80 515.82 L 49.71 498.70 L 46.39 482.56 L 43.78 467.36 L 41.85 453.05 L 40.55 439.57 L 39.84 426.89 L 39.69 414.96 L 40.06 403.73 L 40.92 393.17 L 42.24 383.23 L 44.00 373.89 L 46.18 365.09 L 48.75 356.81 L 51.72 349.01 L 55.06 341.67 L 64.13 323.89 L 72.57 308.39 L 80.40 294.95 L 87.67 283.40 L 94.41 273.55 L 100.66 265.24 L 106.44 258.30 L 111.79 252.58 L 116.75 247.95 Z" fill="#e9f4ff" fill-rule="evenodd" group-id="1,2,5" id="Path-2" node-id="21" stroke-linecap="butt" stroke-width="1" target-height="433.9419" target-width="735.5123" target-x="39.69229" target-y="247.9455"></path></g></g><g node-id="305"><g clip-path="url(#mask-2_5)" group-id="1,2,6" id="Plane-Copy" node-id="22"><path d="M 326.10 151.51 L 300.16 151.51 L 300.16 151.51 L 300.16 179.19 L 326.10 179.19 L 328.63 178.95 L 330.95 178.32 L 333.09 177.30 L 335.03 175.92 L 336.68 174.28 L 338.05 172.34 L 339.08 170.19 L 339.71 167.88 L 339.94 165.35 L 339.71 162.83 L 339.08 160.51 L 338.05 158.37 L 336.68 156.43 L 335.03 154.78 L 333.09 153.40 L 330.95 152.38 L 328.63 151.75 L 326.10 151.51 Z" fill="#4e94dd" fill-rule="evenodd" group-id="1,2,6" id="Rectangle" node-id="24" stroke-linecap="butt" stroke-width="1" target-height="27.67566" target-width="39.783752" target-x="300.15875" target-y="151.5138"></path><path d="M 326.45 192.29 L 317.71 110.00 L 317.00 106.33 L 315.77 102.99 L 314.01 99.93 L 311.79 97.18 L 309.21 94.85 L 306.24 92.94 L 303.01 91.51 L 299.55 90.64 L 295.83 90.32 L 295.83 90.32 L 295.83 90.32 L 244.03 189.24 L 326.45 192.29 Z" fill="#a6d1ff" fill-rule="evenodd" group-id="1,2,6,20,30" node-id="171" stroke-linecap="butt" stroke-width="1" target-height="101.96912" target-width="82.42316" target-x="244.02505" target-y="90.31894"></path><g clip-path="url(#mask-4)" group-id="1,2,6,20,31" node-id="174"><path d="M 312.44 192.29 L 312.44 80.86 L 326.45 129.19 L 334.17 192.29 Z" fill="#89c1fc" fill-rule="evenodd" group-id="1,2,6,20,31" node-id="176" stroke-linecap="butt" stroke-width="1" target-height="111.424934" target-width="21.728241" target-x="312.4382" target-y="80.86312"></path></g><path d="M 560.00 223.78 L 534.95 211.95 L 526.56 208.32 L 518.00 205.26 L 509.24 202.75 L 500.35 200.82 L 491.35 199.48 L 482.24 198.71 L -72.27 170.41 L -75.70 170.55 L -78.88 171.25 L -81.85 172.48 L -84.57 174.21 L -86.91 176.32 L -88.91 178.86 L -90.44 181.69 L -91.45 184.77 L -91.94 188.17 L -91.97 189.13 L -91.67 192.95 L -90.83 196.54 L -89.48 199.93 L -87.63 203.08 L -85.38 205.89 L -82.70 208.37 L -79.68 210.44 L -76.36 212.03 L -72.70 213.15 L -9.08 226.96 L 44.51 238.01 L 89.19 246.64 L 126.00 253.18 L 155.93 257.91 L 179.90 261.13 L 198.77 263.10 L 245.22 266.87 L 287.09 269.88 L 324.68 272.22 L 362.24 274.20 L 395.19 275.65 L 423.94 276.61 L 465.23 277.51 L 496.65 277.72 L 524.73 277.47 L 542.94 277.00 L 557.93 276.30 L 562.92 275.90 L 571.72 274.65 L 579.09 273.20 L 585.22 271.57 L 590.25 269.81 L 594.34 267.95 L 594.34 267.95 L 596.16 266.78 L 597.68 265.39 L 598.90 263.77 L 599.84 261.96 L 600.44 260.06 L 600.72 258.04 L 600.65 256.01 L 600.22 254.00 L 599.41 251.99 L 598.23 250.15 L 596.11 247.91 L 592.11 244.56 L 585.41 239.72 L 575.07 232.96 L 560.00 223.78 L 560.00 223.78 Z" fill="#d9ecff" fill-rule="evenodd" group-id="1,2,6,21,32" node-id="182" stroke-linecap="butt" stroke-width="1" target-height="107.307465" target-width="692.6889" target-x="-91.96893" target-y="170.40952"></path><g clip-path="url(#mask-6_4)" group-id="1,2,6,21,33" node-id="185"><path d="M -97.34 179.19 L 102.28 212.53 L 249.68 236.66 L 354.87 253.39 L 426.78 264.37 L 473.31 271.01 L 501.26 274.56 L 516.37 276.05 L 448.08 350.02 L -115.48 207.96 L -97.34 179.19 Z" fill="#a6d1ff" fill-rule="evenodd" group-id="1,2,6,21,33" id="Path" node-id="34" stroke-linecap="butt" stroke-width="1" target-height="170.83038" target-width="631.85803" target-x="-115.483215" target-y="179.18945"></path></g><g clip-path="url(#mask-6_5)" group-id="1,2,6,21,34" id="Group" node-id="35"><path d="M 447.33 226.36 L 444.47 226.21 L 442.96 226.43 L 441.72 227.18 L 440.84 228.34 L 440.46 229.82 L 440.06 237.45 L 440.29 238.96 L 441.04 240.21 L 442.19 241.08 L 443.67 241.46 L 446.53 241.61 L 448.05 241.39 L 449.29 240.64 L 450.17 239.48 L 450.55 238.00 L 450.95 230.37 L 450.72 228.86 L 449.97 227.62 L 448.81 226.74 L 447.33 226.36 Z" fill="#f3f9ff" fill-rule="evenodd" group-id="1,2,6,21,34" id="Rectangle" node-id="37" stroke-linecap="butt" stroke-width="1" target-height="15.40593" target-width="10.888275" target-x="440.06024" target-y="226.20792"></path><path d="M 429.22 225.41 L 426.36 225.26 L 424.85 225.48 L 423.60 226.23 L 422.73 227.39 L 422.34 228.87 L 421.94 236.50 L 422.17 238.01 L 422.92 239.26 L 424.08 240.13 L 425.56 240.51 L 428.42 240.66 L 429.93 240.44 L 431.17 239.69 L 432.05 238.53 L 432.43 237.05 L 432.83 229.42 L 432.61 227.91 L 431.86 226.67 L 430.70 225.79 L 429.22 225.41 Z" fill="#f3f9ff" fill-rule="evenodd" group-id="1,2,6,21,34" id="Rectangle-Copy-9" node-id="38" stroke-linecap="butt" stroke-width="1" target-height="15.40593" target-width="10.888275" target-x="421.94373" target-y="225.25847"></path><path d="M 411.10 224.46 L 408.24 224.31 L 406.73 224.53 L 405.49 225.28 L 404.61 226.44 L 404.23 227.92 L 403.83 235.55 L 404.05 237.06 L 404.80 238.31 L 405.96 239.18 L 407.44 239.57 L 410.30 239.71 L 411.81 239.49 L 413.06 238.74 L 413.93 237.58 L 414.32 236.10 L 414.72 228.47 L 414.49 226.96 L 413.74 225.72 L 412.58 224.84 L 411.10 224.46 Z" fill="#f3f9ff" fill-rule="evenodd" group-id="1,2,6,21,34" id="Rectangle-Copy-11" node-id="39" stroke-linecap="butt" stroke-width="1" target-height="15.40593" target-width="10.888275" target-x="403.82718" target-y="224.30902"></path><path d="M 392.98 223.51 L 390.12 223.36 L 388.61 223.59 L 387.37 224.34 L 386.49 225.49 L 386.11 226.97 L 385.71 234.60 L 385.94 236.11 L 386.69 237.36 L 387.85 238.23 L 389.32 238.62 L 392.19 238.77 L 393.70 238.54 L 394.94 237.79 L 395.82 236.63 L 396.20 235.15 L 396.60 227.52 L 396.37 226.01 L 395.62 224.77 L 394.46 223.89 L 392.98 223.51 Z" fill="#f3f9ff" fill-rule="evenodd" group-id="1,2,6,21,34" id="Rectangle-Copy-10" node-id="40" stroke-linecap="butt" stroke-width="1" target-height="15.40593" target-width="10.888275" target-x="385.71066" target-y="223.35957"></path><path d="M 374.87 222.56 L 372.01 222.41 L 370.50 222.64 L 369.25 223.39 L 368.38 224.54 L 367.99 226.02 L 367.59 233.65 L 367.82 235.16 L 368.57 236.41 L 369.73 237.28 L 371.21 237.67 L 374.07 237.82 L 375.58 237.59 L 376.82 236.84 L 377.70 235.68 L 378.08 234.20 L 378.48 226.57 L 378.26 225.06 L 377.51 223.82 L 376.35 222.94 L 374.87 222.56 Z" fill="#f3f9ff" fill-rule="evenodd" group-id="1,2,6,21,34" id="Rectangle-Copy-15" node-id="41" stroke-linecap="butt" stroke-width="1" target-height="15.40593" target-width="10.888275" target-x="367.59415" target-y="222.41013"></path><path d="M 356.75 221.61 L 353.89 221.46 L 352.38 221.69 L 351.14 222.44 L 350.26 223.60 L 349.88 225.07 L 349.48 232.70 L 349.70 234.21 L 350.45 235.46 L 351.61 236.33 L 353.09 236.72 L 355.95 236.87 L 357.46 236.64 L 358.71 235.89 L 359.58 234.73 L 359.97 233.25 L 360.37 225.62 L 360.14 224.11 L 359.39 222.87 L 358.23 221.99 L 356.75 221.61 Z" fill="#f3f9ff" fill-rule="evenodd" group-id="1,2,6,21,34" id="Rectangle-Copy-14" node-id="42" stroke-linecap="butt" stroke-width="1" target-height="15.40593" target-width="10.888306" target-x="349.4776" target-y="221.46068"></path><path d="M 338.64 220.66 L 335.77 220.51 L 334.26 220.74 L 333.02 221.49 L 332.14 222.65 L 331.76 224.13 L 331.36 231.75 L 331.59 233.26 L 332.34 234.51 L 333.50 235.38 L 334.98 235.77 L 337.84 235.92 L 339.35 235.69 L 340.59 234.94 L 341.47 233.78 L 341.85 232.30 L 342.25 224.68 L 342.02 223.16 L 341.27 221.92 L 340.11 221.04 L 338.64 220.66 Z" fill="#f3f9ff" fill-rule="evenodd" group-id="1,2,6,21,34" id="Rectangle-Copy-13" node-id="43" stroke-linecap="butt" stroke-width="1" target-height="15.40593" target-width="10.888275" target-x="331.36108" target-y="220.51123"></path><path d="M 320.52 219.71 L 317.66 219.56 L 316.15 219.79 L 314.90 220.54 L 314.03 221.70 L 313.64 223.18 L 313.24 230.80 L 313.47 232.32 L 314.22 233.56 L 315.38 234.44 L 316.86 234.82 L 319.72 234.97 L 321.23 234.74 L 322.47 233.99 L 323.35 232.83 L 323.73 231.35 L 324.13 223.73 L 323.91 222.21 L 323.16 220.97 L 322.00 220.09 L 320.52 219.71 Z" fill="#f3f9ff" fill-rule="evenodd" group-id="1,2,6,21,34" id="Rectangle-Copy-12" node-id="44" stroke-linecap="butt" stroke-width="1" target-height="15.40593" target-width="10.888306" target-x="313.24454" target-y="219.56178"></path><path d="M 302.40 218.76 L 299.54 218.61 L 298.03 218.84 L 296.79 219.59 L 295.91 220.75 L 295.53 222.23 L 295.13 229.85 L 295.35 231.37 L 296.10 232.61 L 297.26 233.49 L 298.74 233.87 L 301.60 234.02 L 303.11 233.79 L 304.36 233.04 L 305.23 231.88 L 305.62 230.40 L 306.02 222.78 L 305.79 221.26 L 305.04 220.02 L 303.88 219.14 L 302.40 218.76 Z" fill="#f3f9ff" fill-rule="evenodd" group-id="1,2,6,21,34" id="Rectangle-Copy-17" node-id="45" stroke-linecap="butt" stroke-width="1" target-height="15.40593" target-width="10.888306" target-x="295.128" target-y="218.61234"></path><path d="M 284.29 217.81 L 281.43 217.66 L 279.91 217.89 L 278.67 218.64 L 277.79 219.80 L 277.41 221.28 L 277.01 228.91 L 277.24 230.42 L 277.99 231.66 L 279.15 232.54 L 280.63 232.92 L 283.49 233.07 L 285.00 232.84 L 286.24 232.09 L 287.12 230.93 L 287.50 229.45 L 287.90 221.83 L 287.67 220.32 L 286.92 219.07 L 285.77 218.20 L 284.29 217.81 Z" fill="#f3f9ff" fill-rule="evenodd" group-id="1,2,6,21,34" id="Rectangle-Copy-16" node-id="46" stroke-linecap="butt" stroke-width="1" target-height="15.40593" target-width="10.888306" target-x="277.01147" target-y="217.66289"></path><path d="M 265.96 216.85 L 263.10 216.70 L 261.59 216.93 L 260.35 217.68 L 259.47 218.84 L 259.09 220.32 L 258.69 227.94 L 258.91 229.46 L 259.66 230.70 L 260.82 231.58 L 262.30 231.96 L 265.16 232.11 L 266.67 231.88 L 267.92 231.13 L 268.79 229.97 L 269.18 228.49 L 269.58 220.87 L 269.35 219.35 L 268.60 218.11 L 267.44 217.24 L 265.96 216.85 Z" fill="#f3f9ff" fill-rule="evenodd" group-id="1,2,6,21,34" id="Rectangle-Copy" node-id="47" stroke-linecap="butt" stroke-width="1" target-height="15.405945" target-width="10.888275" target-x="258.68768" target-y="216.70258"></path><path d="M 247.85 215.90 L 244.98 215.75 L 243.47 215.98 L 242.23 216.73 L 241.35 217.89 L 240.97 219.37 L 240.57 227.00 L 240.80 228.51 L 241.55 229.75 L 242.71 230.63 L 244.19 231.01 L 247.05 231.16 L 248.56 230.93 L 249.80 230.18 L 250.68 229.02 L 251.06 227.54 L 251.46 219.92 L 251.23 218.41 L 250.48 217.16 L 249.33 216.29 L 247.85 215.90 Z" fill="#f3f9ff" fill-rule="evenodd" group-id="1,2,6,21,34" id="Rectangle-Copy-26" node-id="48" stroke-linecap="butt" stroke-width="1" target-height="15.405945" target-width="10.88829" target-x="240.57114" target-y="215.75313"></path><path d="M 229.73 214.95 L 226.87 214.80 L 225.36 215.03 L 224.11 215.78 L 223.24 216.94 L 222.85 218.42 L 222.45 226.05 L 222.68 227.56 L 223.43 228.80 L 224.59 229.68 L 226.07 230.06 L 228.93 230.21 L 230.44 229.98 L 231.68 229.23 L 232.56 228.08 L 232.94 226.60 L 233.34 218.97 L 233.12 217.46 L 232.37 216.21 L 231.21 215.34 L 229.73 214.95 Z" fill="#f3f9ff" fill-rule="evenodd" group-id="1,2,6,21,34" id="Rectangle-Copy-25" node-id="49" stroke-linecap="butt" stroke-width="1" target-height="15.405945" target-width="10.888275" target-x="222.45462" target-y="214.80368"></path><path d="M 211.61 214.00 L 208.75 213.85 L 207.24 214.08 L 206.00 214.83 L 205.12 215.99 L 204.74 217.47 L 204.34 225.10 L 204.56 226.61 L 205.31 227.85 L 206.47 228.73 L 207.95 229.11 L 210.81 229.26 L 212.32 229.03 L 213.57 228.28 L 214.44 227.13 L 214.83 225.65 L 215.23 218.02 L 215.00 216.51 L 214.25 215.26 L 213.09 214.39 L 211.61 214.00 Z" fill="#f3f9ff" fill-rule="evenodd" group-id="1,2,6,21,34" id="Rectangle-Copy-24" node-id="50" stroke-linecap="butt" stroke-width="1" target-height="15.405945" target-width="10.88829" target-x="204.33809" target-y="213.85423"></path><path d="M 193.50 213.05 L 190.64 212.90 L 189.12 213.13 L 187.88 213.88 L 187.00 215.04 L 186.62 216.52 L 186.22 224.15 L 186.45 225.66 L 187.20 226.90 L 188.36 227.78 L 189.84 228.16 L 192.70 228.31 L 194.21 228.08 L 195.45 227.33 L 196.33 226.18 L 196.71 224.70 L 197.11 217.07 L 196.88 215.56 L 196.13 214.31 L 194.98 213.44 L 193.50 213.05 Z" fill="#f3f9ff" fill-rule="evenodd" group-id="1,2,6,21,34" id="Rectangle-Copy-23" node-id="51" stroke-linecap="butt" stroke-width="1" target-height="15.405945" target-width="10.88826" target-x="186.22159" target-y="212.90479"></path><path d="M 175.38 212.11 L 172.52 211.96 L 171.01 212.18 L 169.76 212.93 L 168.89 214.09 L 168.50 215.57 L 168.11 223.20 L 168.33 224.71 L 169.08 225.95 L 170.24 226.83 L 171.72 227.21 L 174.58 227.36 L 176.09 227.14 L 177.34 226.39 L 178.21 225.23 L 178.59 223.75 L 178.99 216.12 L 178.77 214.61 L 178.02 213.36 L 176.86 212.49 L 175.38 212.11 Z" fill="#f3f9ff" fill-rule="evenodd" group-id="1,2,6,21,34" id="Rectangle-Copy-22" node-id="52" stroke-linecap="butt" stroke-width="1" target-height="15.40593" target-width="10.888275" target-x="168.10504" target-y="211.95535"></path><path d="M 157.26 211.16 L 154.40 211.01 L 152.89 211.23 L 151.65 211.98 L 150.77 213.14 L 150.39 214.62 L 149.99 222.25 L 150.21 223.76 L 150.96 225.00 L 152.12 225.88 L 153.60 226.26 L 156.46 226.41 L 157.97 226.19 L 159.22 225.44 L 160.09 224.28 L 160.48 222.80 L 160.88 215.17 L 160.65 213.66 L 159.90 212.41 L 158.74 211.54 L 157.26 211.16 Z" fill="#f3f9ff" fill-rule="evenodd" group-id="1,2,6,21,34" id="Rectangle-Copy-21" node-id="53" stroke-linecap="butt" stroke-width="1" target-height="15.405945" target-width="10.888245" target-x="149.98853" target-y="211.00589"></path><path d="M 139.15 210.21 L 136.29 210.06 L 134.77 210.28 L 133.53 211.03 L 132.65 212.19 L 132.27 213.67 L 131.87 221.30 L 132.10 222.81 L 132.85 224.05 L 134.01 224.93 L 135.49 225.31 L 138.35 225.46 L 139.86 225.24 L 141.10 224.49 L 141.98 223.33 L 142.36 221.85 L 142.76 214.22 L 142.53 212.71 L 141.78 211.46 L 140.63 210.59 L 139.15 210.21 Z" fill="#f3f9ff" fill-rule="evenodd" group-id="1,2,6,21,34" id="Rectangle-Copy-20" node-id="54" stroke-linecap="butt" stroke-width="1" target-height="15.40593" target-width="10.888245" target-x="131.87201" target-y="210.05646"></path><path d="M 121.03 209.26 L 118.17 209.11 L 116.66 209.33 L 115.41 210.08 L 114.54 211.24 L 114.16 212.72 L 113.76 220.35 L 113.98 221.86 L 114.73 223.10 L 115.89 223.98 L 117.37 224.36 L 120.23 224.51 L 121.74 224.29 L 122.99 223.54 L 123.86 222.38 L 124.24 220.90 L 124.64 213.27 L 124.42 211.76 L 123.67 210.52 L 122.51 209.64 L 121.03 209.26 Z" fill="#f3f9ff" fill-rule="evenodd" group-id="1,2,6,21,34" id="Rectangle-Copy-19" node-id="55" stroke-linecap="butt" stroke-width="1" target-height="15.40593" target-width="10.888245" target-x="113.75549" target-y="209.10701"></path><path d="M 102.91 208.31 L 100.05 208.16 L 98.54 208.38 L 97.30 209.13 L 96.42 210.29 L 96.04 211.77 L 95.64 219.40 L 95.86 220.91 L 96.61 222.16 L 97.77 223.03 L 99.25 223.41 L 102.11 223.56 L 103.63 223.34 L 104.87 222.59 L 105.74 221.43 L 106.13 219.95 L 106.53 212.32 L 106.30 210.81 L 105.55 209.57 L 104.39 208.69 L 102.91 208.31 Z" fill="#f3f9ff" fill-rule="evenodd" group-id="1,2,6,21,34" id="Rectangle-Copy-18" node-id="56" stroke-linecap="butt" stroke-width="1" target-height="15.40593" target-width="10.888275" target-x="95.63895" target-y="208.15756"></path></g><g clip-path="url(#mask-6_6)" group-id="1,2,6,21,35" node-id="211"><path d="M 587.29 222.43 L 522.03 227.69 L 520.49 228.14 L 519.29 229.09 L 518.54 230.42 L 518.35 232.02 L 518.68 233.33 L 519.53 234.84 L 520.60 236.12 L 521.89 237.18 L 523.36 237.99 L 524.94 238.51 L 526.66 238.75 L 594.93 241.48 L 594.93 241.48 L 587.29 222.43 Z" fill="#f3f9ff" fill-rule="evenodd" group-id="1,2,6,21,35" node-id="213" stroke-linecap="butt" stroke-width="1" target-height="19.044846" target-width="76.58911" target-x="518.3453" target-y="222.43266"></path></g><path d="M 269.62 317.57 L 265.03 316.72 L 253.47 314.48 L 237.28 311.30 L 218.77 307.63 L 200.26 303.92 L 184.09 300.61 L 172.56 298.16 L 168.69 297.24 L 168.00 297.01 L 167.69 296.37 L 167.65 295.55 L 167.95 294.44 L 168.76 292.74 L 170.08 290.58 L 173.13 285.84 L 174.63 283.25 L 175.88 280.61 L 176.76 277.90 L 177.08 275.29 L 177.40 274.55 L 178.67 273.73 L 181.69 272.83 L 187.66 271.95 L 198.04 271.23 L 214.65 270.88 L 239.58 271.09 L 258.66 273.70 L 267.46 275.11 L 270.55 275.79 L 271.47 276.31 L 272.45 277.37 L 273.51 279.20 L 274.69 282.32 L 275.73 286.68 L 276.36 291.43 L 276.60 297.01 L 276.34 302.61 L 275.65 307.39 L 274.90 310.46 L 274.06 312.88 L 273.14 314.76 L 271.94 316.41 L 270.78 317.28 L 269.62 317.57 Z" fill="#4e94dd" fill-rule="evenodd" group-id="1,2,6" id="Oval-Copy" node-id="58" stroke-linecap="butt" stroke-width="1" target-height="46.692413" target-width="108.95422" target-x="167.64563" target-y="270.8753"></path><path d="M 264.49 296.81 L 264.72 302.47 L 265.32 307.29 L 266.33 311.70 L 267.49 314.73 L 268.56 316.43 L 269.56 317.29 L 270.55 317.57 L 271.53 317.29 L 272.53 316.43 L 273.60 314.73 L 274.76 311.70 L 275.77 307.29 L 276.37 302.47 L 276.60 296.81 L 276.37 291.15 L 275.77 286.33 L 274.76 281.92 L 273.60 278.89 L 272.53 277.19 L 271.53 276.34 L 270.55 276.05 L 269.56 276.34 L 268.56 277.19 L 267.49 278.89 L 266.33 281.92 L 265.32 286.33 L 264.72 291.15 L 264.49 296.81 Z" fill="#f3f9ff" fill-rule="evenodd" group-id="1,2,6" id="Oval" node-id="59" stroke="#89c1fc" stroke-linecap="butt" stroke-width="0.95480996" target-height="41.51346" target-width="12.108093" target-x="264.49176" target-y="276.05426"></path><path d="M 1.66 170.21 L 1.66 151.02 L -23.82 151.02 Z" fill="#802e1a" fill-rule="evenodd" group-id="1,2,6" id="Path-111" node-id="60" stroke-linecap="butt" stroke-width="1" target-height="19.187881" target-width="25.482422" target-x="-23.821167" target-y="151.02002"></path><path d="M 210.00 246.44 L 304.85 246.44 L 304.85 264.00 L 49.98 337.00 L 41.33 339.23 L 32.63 341.01 L 23.86 342.34 L 15.02 343.22 L 6.15 343.64 L -2.72 343.61 L -11.59 343.12 L -20.48 342.17 L -23.31 341.79 L -23.31 341.79 L 210.00 246.44 Z" fill="#a6d1ff" fill-rule="evenodd" group-id="1,2,6,22,36" node-id="222" stroke-linecap="butt" stroke-width="1" target-height="97.204666" target-width="328.15567" target-x="-23.308502" target-y="246.43614"></path><g clip-path="url(#mask-8)" group-id="1,2,6,22,37" node-id="225"><path d="M 308.63 246.44 L 16.01 343.79 L 39.52 365.46 L 312.44 268.22 Z" fill="#89c1fc" fill-rule="evenodd" group-id="1,2,6,22,37" node-id="227" stroke-linecap="butt" stroke-width="1" target-height="119.02034" target-width="296.4246" target-x="16.01361" target-y="246.43614"></path></g><path d="M 15.97 178.31 L 7.18 174.58 L 7.18 174.58 L -91.66 83.16 L -95.38 80.14 L -99.36 77.64 L -103.63 75.66 L -108.11 74.22 L -112.72 73.34 L -117.50 73.04 L -136.50 73.04 L -136.50 73.04 L -68.99 181.63 L 15.29 181.63 L 15.97 181.49 L 16.51 181.12 L 16.88 180.58 L 17.02 179.90 L 16.73 178.95 L 15.97 178.31 Z" fill="#be553a" fill-rule="evenodd" group-id="1,2,6" id="Path-109" node-id="66" stroke-linecap="butt" stroke-width="1" target-height="108.59163" target-width="153.52051" target-x="-136.50043" target-y="73.03999"></path><path d="M -34.00 201.25 L 2.51 206.95 L 2.51 215.51 L -84.99 235.78 L -93.38 237.46 L -101.82 238.63 L -110.32 239.29 L -118.85 239.44 L -127.36 239.07 L -135.88 238.20 L -135.88 238.20 L -135.88 238.20 L -34.00 201.25 Z" fill="#be553a" fill-rule="evenodd" group-id="1,2,6,23,38" node-id="234" stroke-linecap="butt" stroke-width="1" target-height="38.19034" target-width="138.3901" target-x="-135.87791" target-y="201.24823"></path><g clip-path="url(#mask-10)" group-id="1,2,6,23,39" node-id="237"><path d="M 4.99 206.13 L -120.53 241.63 L -108.57 253.42 L 10.17 217.76 Z" fill="#802e1a" fill-rule="evenodd" group-id="1,2,6,23,39" node-id="239" stroke-linecap="butt" stroke-width="1" target-height="47.296783" target-width="130.70369" target-x="-120.534294" target-y="206.1273"></path></g></g></g><g clip-path="url(#mask-2_6)" group-id="1,2,7" id="Group-3" node-id="72"><path d="M 214.35 348.28 L 249.98 347.68 L 274.55 346.87 L 290.62 345.97 L 300.41 345.04 L 305.83 344.17 L 308.41 343.42 L 310.59 342.64 L 314.96 341.33 L 326.56 338.32 L 341.59 334.86 L 358.42 331.43 L 367.05 329.86 L 375.43 328.50 L 383.64 327.35 L 390.97 326.54 L 397.94 326.07 L 403.43 326.04 L 406.95 326.31 L 409.45 326.81 L 411.17 327.46 L 422.49 336.39 L 429.53 342.51 L 433.50 346.53 L 435.40 349.04 L 436.04 350.54 L 436.15 352.13 L 435.96 353.38 L 435.52 354.36 L 434.53 355.60 L 433.54 356.36 L 432.38 356.94 L 439.91 359.94 L 445.66 362.68 L 449.94 365.18 L 453.01 367.46 L 455.11 369.53 L 456.45 371.43 L 457.18 373.19 L 457.42 374.88 L 457.19 379.60 L 456.62 382.67 L 455.85 384.56 L 454.97 385.64 L 462.93 386.91 L 469.00 388.35 L 473.52 389.90 L 476.77 391.51 L 479.04 393.14 L 480.53 394.78 L 481.41 396.45 L 482.56 400.49 L 483.23 404.65 L 483.38 408.76 L 483.01 412.29 L 482.41 414.50 L 481.59 416.14 L 480.59 417.32 L 487.93 418.10 L 493.80 419.13 L 498.41 420.34 L 499.67 421.01 L 500.93 422.19 L 502.20 424.05 L 503.66 427.22 L 504.77 431.20 L 505.20 434.00 L 505.36 436.84 L 505.22 439.74 L 504.75 442.58 L 503.89 445.19 L 502.67 447.59 L 501.03 449.69 L 498.90 451.39 L 496.21 452.71 L 496.84 455.20 L 496.88 457.05 L 496.49 458.44 L 495.70 459.50 L 494.47 460.30 L 493.05 460.68 L 490.36 460.99 L 483.56 461.35 L 475.54 461.83 L 471.47 462.27 L 467.76 462.89 L 464.30 463.83 L 461.68 465.00 L 458.76 466.53 L 455.20 467.99 L 450.91 469.35 L 445.78 470.58 L 439.05 471.76 L 430.82 472.72 L 420.87 473.40 L 413.54 473.69 L 406.77 473.73 L 400.11 473.41 L 393.57 472.63 L 389.26 471.81 L 384.80 470.66 L 380.17 469.17 L 375.64 467.41 L 370.74 465.18 L 365.45 462.42 L 362.27 460.44 L 358.54 457.76 L 350.38 451.63 L 345.88 448.49 L 340.99 445.46 L 335.84 442.79 L 330.35 440.62 L 324.69 439.00 L 318.39 437.66 L 311.38 436.63 L 304.34 435.99 L 296.40 435.61 L 287.47 435.54 L 273.68 435.95 L 257.25 436.99 L 239.87 438.51 L 219.37 440.62 L 214.35 348.28 Z" fill="#fdbba4" fill-rule="evenodd" group-id="1,2,7,24" id="Path-147" node-id="75" stroke-linecap="butt" stroke-width="1" target-height="147.69028" target-width="291.0011" target-x="214.35481" target-y="326.03818"></path><path d="M 51.20 335.00 L 214.35 335.00 L 220.93 460.40 L 51.20 468.65" fill="#ffffff" fill-rule="evenodd" group-id="1,2,7,24" id="Path-148" node-id="76" stroke-linecap="butt" stroke-width="1" target-height="133.65524" target-width="169.73232" target-x="51.2" target-y="334.9975"></path><path d="M 243.31 344.37 L 243.79 342.84 L 244.72 341.62 L 246.00 340.77 L 247.55 340.39 L 275.48 338.62 L 277.05 338.77 L 278.46 339.38 L 279.63 340.38 L 280.45 341.73 L 280.45 341.73 L 280.45 341.73 L 243.31 344.37 Z" fill="#11a977" fill-rule="evenodd" group-id="1,2,7,24" id="Path-150" node-id="77" stroke-linecap="butt" stroke-width="1" target-height="5.7445984" target-width="37.13994" target-x="243.31493" target-y="338.62146"></path><path d="M 249.01 428.65 L 252.63 441.17 L 252.99 441.91 L 253.55 442.46 L 254.27 442.80 L 255.09 442.88 L 282.75 440.78 L 283.52 440.58 L 284.17 440.17 L 284.64 439.57 L 284.91 438.82 L 287.53 424.08 L 287.53 424.08 L 249.01 428.65 Z" fill="#11a977" fill-rule="evenodd" group-id="1,2,7,24" id="Path-151" node-id="78" stroke-linecap="butt" stroke-width="1" target-height="18.796936" target-width="38.52394" target-x="249.01042" target-y="424.081"></path><path d="M 244.21 344.11 L 279.74 341.50 L 281.03 341.62 L 282.17 342.12 L 283.10 342.95 L 283.74 344.07 L 285.63 348.54 L 287.67 352.30 L 289.86 355.46 L 293.53 360.30 L 295.67 363.79 L 297.87 368.50 L 299.05 371.87 L 299.98 375.82 L 300.63 380.41 L 300.82 385.02 L 300.48 390.31 L 299.52 396.38 L 298.47 400.76 L 296.95 405.58 L 294.91 410.90 L 292.27 416.76 L 290.82 422.74 L 290.34 423.89 L 289.55 424.80 L 288.53 425.44 L 287.32 425.75 L 249.89 429.10 L 248.44 428.96 L 247.19 428.35 L 246.23 427.34 L 245.67 426.00 L 244.90 423.65 L 243.45 420.84 L 241.12 417.47 L 237.69 413.44 L 234.31 409.48 L 231.54 405.52 L 229.33 401.55 L 227.64 397.57 L 226.42 393.40 L 225.72 389.09 L 225.54 384.60 L 225.90 379.90 L 226.84 375.38 L 228.17 371.62 L 229.87 368.17 L 231.66 365.28 L 235.22 360.41 L 236.72 358.29 L 237.69 356.52 L 239.18 352.47 L 240.65 347.14 L 241.13 345.97 L 241.93 345.04 L 242.98 344.40 L 244.21 344.11 Z" fill="#13bb84" fill-rule="evenodd" group-id="1,2,7,24,40,42" node-id="252" stroke-linecap="butt" stroke-width="1" target-height="87.59531" target-width="75.27409" target-x="225.54292" target-y="341.50305"></path><g clip-path="url(#mask-12)" group-id="1,2,7,24,40,43" node-id="255"><path d="M 296.72 363.81 L 293.95 369.61 L 290.80 374.87 L 287.27 379.64 L 283.35 383.95 L 279.03 387.82 L 274.28 391.28 L 269.06 394.34 L 263.36 396.98 L 257.10 399.21 L 250.25 401.01 L 242.75 402.34 L 234.53 403.17 L 225.53 403.45 L 246.16 430.20 L 290.25 427.53 L 299.28 407.85 L 303.45 374.18 L 296.72 363.81 Z" fill="#129e70" fill-rule="evenodd" group-id="1,2,7,24,40,43" node-id="257" stroke-linecap="butt" stroke-width="1" target-height="66.39438" target-width="77.91667" target-x="225.53377" target-y="363.8069"></path></g><path d="M 296.72 385.10 L 296.41 389.61 L 295.54 393.86 L 294.14 397.89 L 292.22 401.71 L 289.88 405.18 L 287.09 408.34 L 283.93 411.12 L 280.46 413.46 L 276.65 415.38 L 272.62 416.79 L 268.37 417.65 L 263.85 417.96 L 259.34 417.65 L 255.09 416.79 L 251.06 415.38 L 247.24 413.46 L 243.77 411.12 L 240.61 408.34 L 237.83 405.18 L 235.49 401.71 L 233.57 397.89 L 232.16 393.86 L 231.30 389.61 L 230.98 385.10 L 231.30 380.58 L 232.16 376.33 L 233.57 372.30 L 235.49 368.49 L 237.83 365.02 L 240.61 361.86 L 243.77 359.07 L 247.24 356.73 L 251.06 354.81 L 255.09 353.41 L 259.34 352.54 L 263.85 352.23 L 268.37 352.54 L 272.62 353.41 L 276.65 354.81 L 280.46 356.73 L 283.93 359.07 L 287.09 361.86 L 289.88 365.02 L 292.22 368.49 L 294.14 372.30 L 295.54 376.33 L 296.41 380.58 L 296.72 385.10 Z" fill="#f3f9ff" fill-rule="evenodd" group-id="1,2,7,24" id="Oval" node-id="84" stroke="#201f1d" stroke-linecap="butt" stroke-width="0.792" target-height="65.73599" target-width="65.73601" target-x="230.984" target-y="352.22876"></path><path d="M 264.25 349.85 L 259.35 350.19 L 254.74 351.13 L 250.38 352.65 L 246.24 354.73 L 242.47 357.27 L 239.05 360.29 L 236.03 363.72 L 233.49 367.48 L 231.41 371.62 L 229.88 375.99 L 228.95 380.60 L 228.61 385.49" fill="none" group-id="1,2,7,24" id="Path" node-id="85" stroke="#f3f9ff" stroke-linecap="butt" stroke-width="0.792" target-height="35.640015" target-width="35.640015" target-x="228.608" target-y="349.85275"></path><path d="M 266.62 388.66 L 266.37 389.90 L 265.70 390.90 L 264.70 391.58 L 263.46 391.83 L 262.21 391.58 L 261.22 390.90 L 260.54 389.90 L 260.29 388.66 L 260.54 387.42 L 261.22 386.42 L 262.21 385.75 L 263.46 385.49 L 264.70 385.75 L 265.70 386.42 L 266.37 387.42 L 266.62 388.66 Z" fill="#201f1d" fill-rule="evenodd" group-id="1,2,7,24" id="Oval" node-id="86" stroke-linecap="butt" stroke-width="1" target-height="6.3359985" target-width="6.3359985" target-x="260.288" target-y="385.49277"></path><path d="M 263.17 359.69 L 263.17 388.66 L 278.88 378.06" fill="none" group-id="1,2,7,24" id="Path-152" node-id="87" stroke="#201f1d" stroke-linecap="butt" stroke-width="0.792" target-height="28.971008" target-width="15.715607" target-x="263.16895" target-y="359.68976"></path><path d="M 496.21 452.71 L 402.30 462.70 L 374.22 456.06" fill="none" group-id="1,2,7,24" id="Path-153" node-id="88" stroke="#062721" stroke-linecap="butt" stroke-width="1.5600002" target-height="9.989227" target-width="121.98898" target-x="374.21957" target-y="452.70688"></path><path d="M 480.59 417.32 L 449.78 417.83" fill="none" group-id="1,2,7,24" id="Path-154" node-id="89" stroke="#062721" stroke-linecap="butt" stroke-width="1.5600002" target-height="0.5111389" target-width="30.81186" target-x="449.77695" target-y="417.3165"></path><path d="M 454.97 385.64 L 440.70 384.11" fill="none" group-id="1,2,7,24" id="Path-155" node-id="90" stroke="#062721" stroke-linecap="butt" stroke-width="1.5600002" target-height="1.5285645" target-width="14.270294" target-x="440.69537" target-y="384.1065"></path><path d="M 432.38 356.94 L 422.99 353.56" fill="none" group-id="1,2,7,24" id="Path-156" node-id="91" stroke="#062721" stroke-linecap="butt" stroke-width="1.5600002" target-height="3.3806458" target-width="9.392578" target-x="422.98734" target-y="353.56326"></path><path d="M 278.75 509.98 L 271.78 489.03 L 266.31 471.08 L 262.15 455.83 L 259.14 442.97 L 257.10 432.23 L 255.89 423.35 L 255.36 416.07 L 255.39 410.17 L 255.87 405.45 L 256.70 401.71 L 257.66 399.09 L 258.60 397.39 L 259.49 396.37 L 260.35 395.83 L 261.35 395.62 L 262.42 395.76 L 263.61 396.33 L 264.98 397.44 L 266.54 399.17 L 268.28 401.54 L 270.22 404.71 L 272.90 409.75 L 275.75 415.82 L 278.48 422.19 L 281.19 428.94 L 286.20 442.24 L 290.42 453.89 L 295.00 465.95 L 299.53 476.86 L 304.00 486.71 L 308.41 495.56 L 308.41 473.91 L 301.21 479.04 L 290.87 453.39 L 299.11 446.18 L 305.60 441.12 L 310.65 437.77 L 314.50 435.76 L 317.41 434.74 L 319.60 434.45 L 321.25 434.69 L 322.52 435.37 L 323.51 436.49 L 332.50 450.85 L 336.09 449.66 L 339.26 449.09 L 342.08 449.07 L 344.61 449.53 L 346.93 450.46 L 349.08 451.87 L 351.08 453.83 L 352.95 456.41 L 354.69 459.74 L 356.25 463.97 L 357.60 469.24 L 361.97 470.68 L 365.73 472.52 L 368.95 474.73 L 371.70 477.31 L 374.01 480.29 L 375.91 483.71 L 377.38 487.64 L 378.42 492.14 L 378.96 497.30 L 379.97 510.52 L 381.76 526.28 L 384.22 542.80 L 385.68 550.91 L 387.23 558.31 L 388.96 565.35 L 390.66 571.05 L 392.00 574.67 L 393.25 577.34 L 394.41 579.25 L 398.32 584.24 L 404.81 591.73 L 414.78 602.48 L 429.20 617.36 L 368.78 665.60 L 355.36 650.78 L 344.34 639.42 L 335.40 630.97 L 328.24 624.92 L 322.56 620.80 L 318.11 618.21 L 311.98 614.89 L 304.98 610.49 L 300.38 607.23 L 295.78 603.58 L 291.17 599.52 L 286.83 595.20 L 282.82 590.57 L 279.14 585.62 L 276.67 581.72 L 274.55 577.68 L 272.78 573.49 L 271.35 569.14 L 269.08 560.30 L 267.12 551.85 L 263.39 536.17 L 261.32 529.14 L 259.10 523.37 L 257.28 519.82 L 255.29 516.97 L 253.16 514.74 L 249.59 512.05 L 247.38 509.93 L 246.17 508.28 L 245.66 506.97 L 245.65 505.89 L 246.05 504.95 L 247.55 503.24 L 249.34 502.00 L 251.50 501.19 L 254.11 500.83 L 257.30 500.99 L 261.20 501.81 L 265.96 503.45 L 271.75 506.09 L 278.75 509.98 Z" fill="#fdbba4" fill-rule="evenodd" group-id="1,2,7,25,41" id="Path-52" node-id="94" stroke-linecap="butt" stroke-width="1" target-height="269.9841" target-width="183.55354" target-x="245.64647" target-y="395.61588"></path><path d="M 278.75 509.98 L 284.73 532.49 L 288.03 546.06 L 289.53 553.46" fill="none" group-id="1,2,7,25,41" id="Path-54" node-id="95" stroke="#062721" stroke-linecap="butt" stroke-width="1.5600002" target-height="43.477722" target-width="10.772919" target-x="278.75403" target-y="509.98114"></path><path d="M 308.25 462.75 L 308.25 497.12 L 294.11 463.08 L 289.53 451.62" fill="none" group-id="1,2,7,25,41" id="Path-55" node-id="96" stroke="#062721" stroke-linecap="butt" stroke-width="1.5600002" target-height="45.498383" target-width="18.718872" target-x="289.52695" target-y="451.6198"></path><path d="M 332.61 450.85 L 332.61 494.02" fill="none" group-id="1,2,7,25,41" id="Path-56" node-id="97" stroke="#062721" stroke-linecap="butt" stroke-width="1.5600002" target-height="43.169037" target-width="0" target-x="332.60797" target-y="450.85446"></path><path d="M 357.60 469.24 L 356.46 495.83" fill="none" group-id="1,2,7,25,41" id="Path-57" node-id="98" stroke="#062721" stroke-linecap="butt" stroke-width="1.5600002" target-height="26.593658" target-width="1.1460266" target-x="356.45627" target-y="469.23627"></path><path d="M 440.70 794.89 L 357.60 674.65 L 439.23 609.27 L 526.30 709.62" fill="#ffffff" fill-rule="evenodd" group-id="1,2,7,25" id="Path-157" node-id="99" stroke-linecap="butt" stroke-width="1" target-height="185.62329" target-width="168.698" target-x="357.6023" target-y="609.2708"></path></g></g><g node-id="302"><path d="M 548.21 270.34 L 723.54 270.34 L 727.25 270.69 L 730.65 271.62 L 733.80 273.12 L 736.65 275.14 L 739.07 277.56 L 741.09 280.41 L 742.59 283.56 L 743.52 286.96 L 743.87 290.67 L 743.87 492.68 L 743.52 496.39 L 742.59 499.79 L 741.09 502.94 L 739.07 505.79 L 736.65 508.21 L 733.80 510.23 L 730.65 511.74 L 727.25 512.66 L 723.54 513.01 L 548.21 513.01 L 544.50 512.66 L 541.10 511.74 L 537.95 510.23 L 535.10 508.21 L 532.68 505.79 L 530.66 502.94 L 529.15 499.79 L 528.23 496.39 L 527.88 492.68 L 527.88 290.67 L 528.23 286.96 L 529.15 283.56 L 530.66 280.41 L 532.68 277.56 L 535.10 275.14 L 537.95 273.12 L 541.10 271.62 L 544.50 270.69 L 548.21 270.34 Z" fill="#a6d1ff" fill-rule="evenodd" group-id="1,3" id="Rectangle-Copy-21" node-id="101" stroke-linecap="butt" stroke-width="1" target-height="242.66553" target-width="215.98499" target-x="527.8821" target-y="270.344"></path><g node-id="307"><g node-id="325"><path d="M 543.13 265.26 L 718.46 265.26 L 722.17 265.61 L 725.57 266.53 L 728.72 268.04 L 731.57 270.06 L 733.99 272.48 L 736.01 275.33 L 737.51 278.48 L 738.44 281.88 L 738.79 285.59 L 738.79 487.60 L 738.44 491.31 L 737.51 494.71 L 736.01 497.86 L 733.99 500.71 L 731.57 503.13 L 728.72 505.15 L 725.57 506.66 L 722.17 507.58 L 718.46 507.93 L 543.13 507.93 L 539.42 507.58 L 536.02 506.66 L 532.87 505.15 L 530.02 503.13 L 527.60 500.71 L 525.58 497.86 L 524.07 494.71 L 523.15 491.31 L 522.80 487.60 L 522.80 285.59 L 523.15 281.88 L 524.07 278.48 L 525.58 275.33 L 527.60 272.48 L 530.02 270.06 L 532.87 268.04 L 536.02 266.53 L 539.42 265.61 L 543.13 265.26 Z" fill="#ffffff" fill-rule="evenodd" group-id="1,3,8,26" node-id="286" stroke-linecap="butt" stroke-width="1" target-height="242.66556" target-width="215.98505" target-x="522.80005" target-y="265.262"></path></g><g node-id="326"><g clip-path="url(#mask-14_4)" group-id="1,3,8,27" node-id="289"><path d="M 522.80 251.29 L 743.87 251.29 L 743.87 311.00 L 522.80 311.00 Z" fill="#1f83ff" fill-rule="evenodd" group-id="1,3,8,27" node-id="291" stroke-linecap="butt" stroke-width="1" target-height="59.7135" target-width="221.06702" target-x="522.80005" target-y="251.2865"></path></g></g><g node-id="327"><g clip-path="url(#mask-14_5)" group-id="1,3,8,28" node-id="294"><path d="M 573.80 290.01 L 573.54 291.84 L 572.88 293.42 L 571.82 294.78 L 570.45 295.85 L 568.88 296.50 L 567.05 296.76 L 565.22 296.50 L 563.65 295.85 L 562.28 294.78 L 561.22 293.42 L 560.56 291.84 L 560.30 290.01 L 560.56 288.18 L 561.22 286.61 L 562.28 285.24 L 563.65 284.18 L 565.22 283.52 L 567.05 283.26 L 568.88 283.52 L 570.45 284.18 L 571.82 285.24 L 572.88 286.61 L 573.54 288.18 L 573.80 290.01 Z" fill="#ffffff" fill-rule="evenodd" group-id="1,3,8,28" id="Oval" node-id="107" stroke-linecap="butt" stroke-width="1" target-height="13.5" target-width="13.5" target-x="560.30005" target-y="283.262"></path></g></g><g clip-path="url(#mask-14_6)" group-id="1,3,8,29" node-id="298"><path d="M 705.80 290.01 L 705.54 291.84 L 704.88 293.42 L 703.82 294.78 L 702.45 295.85 L 700.88 296.50 L 699.05 296.76 L 697.22 296.50 L 695.65 295.85 L 694.28 294.78 L 693.22 293.42 L 692.56 291.84 L 692.30 290.01 L 692.56 288.18 L 693.22 286.61 L 694.28 285.24 L 695.65 284.18 L 697.22 283.52 L 699.05 283.26 L 700.88 283.52 L 702.45 284.18 L 703.82 285.24 L 704.88 286.61 L 705.54 288.18 L 705.80 290.01 Z" fill="#ffffff" fill-rule="evenodd" group-id="1,3,8,29" id="Oval-Copy-3" node-id="108" stroke-linecap="butt" stroke-width="1" target-height="13.5" target-width="13.5" target-x="692.30005" target-y="283.262"></path></g></g><g node-id="308"><path d="M 536.78 344.03 L 566.00 344.03 L 566.99 344.24 L 567.79 344.78 L 568.34 345.58 L 568.54 346.57 L 568.54 369.44 L 568.34 370.44 L 567.79 371.24 L 566.99 371.78 L 566.00 371.98 L 536.78 371.98 L 535.78 371.78 L 534.98 371.24 L 534.44 370.44 L 534.23 369.44 L 534.23 346.57 L 534.44 345.58 L 534.98 344.78 L 535.78 344.24 L 536.78 344.03 Z" fill="#a6d1ff" fill-opacity="0.3" fill-rule="evenodd" group-id="1,3,9" id="Rectangle" node-id="109" stroke-linecap="butt" stroke-opacity="0.3" stroke-width="1" target-height="27.95102" target-width="34.303528" target-x="534.23456" target-y="344.033"></path></g><g node-id="309"><path d="M 590.14 344.03 L 619.36 344.03 L 620.35 344.24 L 621.15 344.78 L 621.70 345.58 L 621.90 346.57 L 621.90 369.44 L 621.70 370.44 L 621.15 371.24 L 620.35 371.78 L 619.36 371.98 L 590.14 371.98 L 589.14 371.78 L 588.34 371.24 L 587.80 370.44 L 587.60 369.44 L 587.60 346.57 L 587.80 345.58 L 588.34 344.78 L 589.14 344.24 L 590.14 344.03 Z" fill="#a6d1ff" fill-opacity="0.3" fill-rule="evenodd" group-id="1,3,10" id="Rectangle-Copy-23" node-id="110" stroke-linecap="butt" stroke-opacity="0.3" stroke-width="1" target-height="27.95102" target-width="34.303467" target-x="587.5956" target-y="344.033"></path></g><g node-id="310"><path d="M 643.50 344.03 L 672.72 344.03 L 673.72 344.24 L 674.52 344.78 L 675.06 345.58 L 675.26 346.57 L 675.26 369.44 L 675.06 370.44 L 674.52 371.24 L 673.72 371.78 L 672.72 371.98 L 643.50 371.98 L 642.50 371.78 L 641.70 371.24 L 641.16 370.44 L 640.96 369.44 L 640.96 346.57 L 641.16 345.58 L 641.70 344.78 L 642.50 344.24 L 643.50 344.03 Z" fill="#a6d1ff" fill-opacity="0.3" fill-rule="evenodd" group-id="1,3,11" id="Rectangle-Copy-24" node-id="111" stroke-linecap="butt" stroke-opacity="0.3" stroke-width="1" target-height="27.95102" target-width="34.303528" target-x="640.95654" target-y="344.033"></path></g><g node-id="311"><path d="M 696.86 344.03 L 726.08 344.03 L 727.08 344.24 L 727.88 344.78 L 728.42 345.58 L 728.62 346.57 L 728.62 369.44 L 728.42 370.44 L 727.88 371.24 L 727.08 371.78 L 726.08 371.98 L 696.86 371.98 L 695.86 371.78 L 695.06 371.24 L 694.52 370.44 L 694.32 369.44 L 694.32 346.57 L 694.52 345.58 L 695.06 344.78 L 695.86 344.24 L 696.86 344.03 Z" fill="#a6d1ff" fill-opacity="0.3" fill-rule="evenodd" group-id="1,3,12" id="Rectangle-Copy-25" node-id="112" stroke-linecap="butt" stroke-opacity="0.3" stroke-width="1" target-height="27.95102" target-width="34.303528" target-x="694.31757" target-y="344.033"></path></g><g node-id="312"><path d="M 536.78 391.04 L 566.00 391.04 L 566.99 391.24 L 567.79 391.79 L 568.34 392.59 L 568.54 393.58 L 568.54 416.45 L 568.34 417.45 L 567.79 418.25 L 566.99 418.79 L 566.00 418.99 L 536.78 418.99 L 535.78 418.79 L 534.98 418.25 L 534.44 417.45 L 534.23 416.45 L 534.23 393.58 L 534.44 392.59 L 534.98 391.79 L 535.78 391.24 L 536.78 391.04 Z" fill="#a6d1ff" fill-opacity="0.3" fill-rule="evenodd" group-id="1,3,13" id="Rectangle-Copy-29" node-id="113" stroke-linecap="butt" stroke-opacity="0.3" stroke-width="1" target-height="27.950989" target-width="34.303528" target-x="534.23456" target-y="391.0415"></path></g><path d="M 590.14 391.04 L 619.36 391.04 L 620.35 391.24 L 621.15 391.79 L 621.70 392.59 L 621.90 393.58 L 621.90 416.45 L 621.70 417.45 L 621.15 418.25 L 620.35 418.79 L 619.36 418.99 L 590.14 418.99 L 589.14 418.79 L 588.34 418.25 L 587.80 417.45 L 587.60 416.45 L 587.60 393.58 L 587.80 392.59 L 588.34 391.79 L 589.14 391.24 L 590.14 391.04 Z" fill="#ffba00" fill-rule="evenodd" group-id="1,3" id="Rectangle-Copy-28" node-id="114" stroke-linecap="butt" stroke-width="1" target-height="27.950989" target-width="34.303467" target-x="587.5956" target-y="391.0415"></path><path d="M 643.50 391.04 L 672.72 391.04 L 673.72 391.24 L 674.52 391.79 L 675.06 392.59 L 675.26 393.58 L 675.26 416.45 L 675.06 417.45 L 674.52 418.25 L 673.72 418.79 L 672.72 418.99 L 643.50 418.99 L 642.50 418.79 L 641.70 418.25 L 641.16 417.45 L 640.96 416.45 L 640.96 393.58 L 641.16 392.59 L 641.70 391.79 L 642.50 391.24 L 643.50 391.04 Z" fill="#a6d1ff" fill-opacity="0.3" fill-rule="evenodd" group-id="1,3,14" id="Rectangle-Copy-27" node-id="115" stroke-linecap="butt" stroke-opacity="0.3" stroke-width="1" target-height="27.950989" target-width="34.303528" target-x="640.95654" target-y="391.0415"></path><path d="M 696.86 391.04 L 726.08 391.04 L 727.08 391.24 L 727.88 391.79 L 728.42 392.59 L 728.62 393.58 L 728.62 416.45 L 728.42 417.45 L 727.88 418.25 L 727.08 418.79 L 726.08 418.99 L 696.86 418.99 L 695.86 418.79 L 695.06 418.25 L 694.52 417.45 L 694.32 416.45 L 694.32 393.58 L 694.52 392.59 L 695.06 391.79 L 695.86 391.24 L 696.86 391.04 Z" fill="#a6d1ff" fill-opacity="0.3" fill-rule="evenodd" group-id="1,3,15" id="Rectangle-Copy-26" node-id="116" stroke-linecap="butt" stroke-opacity="0.3" stroke-width="1" target-height="27.950989" target-width="34.303528" target-x="694.31757" target-y="391.0415"></path><path d="M 536.78 438.05 L 566.00 438.05 L 566.99 438.25 L 567.79 438.79 L 568.34 439.59 L 568.54 440.59 L 568.54 463.46 L 568.34 464.46 L 567.79 465.26 L 566.99 465.80 L 566.00 466.00 L 536.78 466.00 L 535.78 465.80 L 534.98 465.26 L 534.44 464.46 L 534.23 463.46 L 534.23 440.59 L 534.44 439.59 L 534.98 438.79 L 535.78 438.25 L 536.78 438.05 Z" fill="#a6d1ff" fill-opacity="0.3" fill-rule="evenodd" group-id="1,3,16" id="Rectangle-Copy-33" node-id="117" stroke-linecap="butt" stroke-opacity="0.3" stroke-width="1" target-height="27.95102" target-width="34.303528" target-x="534.23456" target-y="438.05002"></path><path d="M 590.14 438.05 L 619.36 438.05 L 620.35 438.25 L 621.15 438.79 L 621.70 439.59 L 621.90 440.59 L 621.90 463.46 L 621.70 464.46 L 621.15 465.26 L 620.35 465.80 L 619.36 466.00 L 590.14 466.00 L 589.14 465.80 L 588.34 465.26 L 587.80 464.46 L 587.60 463.46 L 587.60 440.59 L 587.80 439.59 L 588.34 438.79 L 589.14 438.25 L 590.14 438.05 Z" fill="#a6d1ff" fill-opacity="0.3" fill-rule="evenodd" group-id="1,3,17" id="Rectangle-Copy-32" node-id="118" stroke-linecap="butt" stroke-opacity="0.3" stroke-width="1" target-height="27.95102" target-width="34.303467" target-x="587.5956" target-y="438.05002"></path><path d="M 643.50 438.05 L 672.72 438.05 L 673.72 438.25 L 674.52 438.79 L 675.06 439.59 L 675.26 440.59 L 675.26 463.46 L 675.06 464.46 L 674.52 465.26 L 673.72 465.80 L 672.72 466.00 L 643.50 466.00 L 642.50 465.80 L 641.70 465.26 L 641.16 464.46 L 640.96 463.46 L 640.96 440.59 L 641.16 439.59 L 641.70 438.79 L 642.50 438.25 L 643.50 438.05 Z" fill="#a6d1ff" fill-opacity="0.3" fill-rule="evenodd" group-id="1,3,18" id="Rectangle-Copy-31" node-id="119" stroke-linecap="butt" stroke-opacity="0.3" stroke-width="1" target-height="27.95102" target-width="34.303528" target-x="640.95654" target-y="438.05002"></path><path d="M 696.86 438.05 L 726.08 438.05 L 727.08 438.25 L 727.88 438.79 L 728.42 439.59 L 728.62 440.59 L 728.62 463.46 L 728.42 464.46 L 727.88 465.26 L 727.08 465.80 L 726.08 466.00 L 696.86 466.00 L 695.86 465.80 L 695.06 465.26 L 694.52 464.46 L 694.32 463.46 L 694.32 440.59 L 694.52 439.59 L 695.06 438.79 L 695.86 438.25 L 696.86 438.05 Z" fill="#a6d1ff" fill-opacity="0.3" fill-rule="evenodd" group-id="1,3,19" id="Rectangle-Copy-30" node-id="120" stroke-linecap="butt" stroke-opacity="0.3" stroke-width="1" target-height="27.95102" target-width="34.303528" target-x="694.31757" target-y="438.05002"></path></g></g></svg>