<?xml version="1.0" standalone="no"?><!DOCTYPE svg PUBLIC "-//W3C//DTD SVG 1.1//EN" "http://www.w3.org/Graphics/SVG/1.1/DTD/svg11.dtd"><svg height="800" legacy-metrics="false" node-id="1" sillyvg="true" template-height="800" template-width="800" version="1.1" viewBox="0 0 800 800" width="800" xmlns="http://www.w3.org/2000/svg" xmlns:xlink="http://www.w3.org/1999/xlink"><defs node-id="170"><clipPath id="mask-2" node-id="29"><path d="M 248.10 419.10 L 247.82 424.92 L 247.07 430.49 L 245.87 435.82 L 244.21 440.96 L 242.15 445.97 L 239.73 450.86 L 236.96 455.65 L 233.81 460.34 L 229.26 466.34 L 224.26 472.27 L 218.79 478.14 L 210.18 486.67 L 201.02 495.24 L 182.39 512.56 L 173.33 521.58 L 164.79 530.97 L 159.46 537.51 L 154.57 544.31 L 150.11 551.37 L 147.12 556.86 L 144.47 562.56 L 142.18 568.49 L 140.23 574.67 L 138.74 580.90 L 137.70 587.48 L 137.13 594.41 L 137.04 601.75 L 137.46 608.91 L 138.46 616.57 L 140.10 624.75 L 142.41 633.50 L 144.52 639.63 L 147.10 645.66 L 150.17 651.61 L 153.74 657.49 L 157.84 663.31 L 163.37 670.12 L 169.58 676.77 L 176.51 683.27 L 184.20 689.63 L 192.13 695.46 L 200.67 701.07 L 209.83 706.45 L 219.65 711.61 L 229.58 716.26 L 240.00 720.61 L 250.92 724.66 L 262.38 728.39 L 273.87 731.65 L 285.71 734.54 L 297.93 737.03 L 310.54 739.14 L 323.14 740.78 L 335.97 741.98 L 349.02 742.72 L 362.32 743.00 L 375.57 742.80 L 388.91 742.08 L 402.35 740.86 L 415.89 739.12 L 429.32 736.85 L 442.71 734.02 L 456.07 730.62 L 469.41 726.64 L 482.54 722.10 L 495.52 716.95 L 508.35 711.16 L 521.07 704.72 L 530.96 699.18 L 540.70 693.19 L 550.29 686.76 L 559.72 679.87 L 569.02 672.51 L 577.92 664.86 L 586.61 656.71 L 595.09 648.06 L 603.37 638.88 L 611.44 629.16 L 617.85 620.59 L 623.60 611.97 L 628.73 603.27 L 633.26 594.50 L 637.21 585.65 L 640.70 576.49 L 643.66 567.29 L 646.10 558.01 L 648.03 548.66 L 649.46 539.21 L 650.41 529.70 L 650.91 520.14 L 650.97 510.53 L 650.58 500.85 L 649.74 491.10 L 648.12 479.02 L 645.89 466.91 L 643.06 454.76 L 639.60 442.57 L 635.63 430.57 L 631.14 418.62 L 626.13 406.72 L 620.59 394.86 L 614.63 383.23 L 608.27 371.76 L 601.47 360.42 L 594.25 349.23 L 586.69 338.28 L 578.82 327.58 L 570.64 317.13 L 562.15 306.93 L 553.35 296.97 L 544.36 287.36 L 535.19 278.11 L 525.83 269.21 L 516.16 260.55 L 506.44 252.36 L 496.66 244.62 L 486.83 237.32 L 476.68 230.29 L 466.61 223.83 L 456.63 217.91 L 446.71 212.51 L 436.47 207.46 L 426.45 203.04 L 416.64 199.24 L 407.02 196.03 L 397.11 193.29 L 387.54 191.25 L 378.28 189.88 L 369.31 189.13 L 361.99 189.00 L 354.93 189.34 L 348.12 190.14 L 341.52 191.38 L 335.12 193.06 L 323.53 196.93 L 313.16 200.95 L 303.92 205.11 L 295.72 209.39 L 287.55 214.32 L 280.32 219.34 L 273.95 224.46 L 268.38 229.67 L 263.10 235.39 L 258.49 241.20 L 254.50 247.11 L 251.11 253.14 L 248.14 259.45 L 245.62 265.86 L 243.56 272.39 L 241.93 279.06 L 240.35 288.08 L 239.32 297.27 L 238.87 306.67 L 238.87 316.09 L 239.23 325.61 L 239.93 335.23 L 241.40 349.64 L 243.15 363.99 L 244.95 378.27 L 246.53 392.19 L 247.37 401.45 L 247.89 410.42 L 248.10 419.10 Z" fill="#000000" fill-rule="evenodd" node-id="173" stroke-linecap="butt" stroke-width="1" target-height="553.99567" target-width="513.93555" target-x="137.03545" target-y="189.00322"></path></clipPath><clipPath id="mask-4" node-id="40"><path d="M 24.00 0.00 L 89.00 0.00 C 102.25 0.00 113.00 10.75 113.00 24.00 L 113.00 137.71 C 113.00 150.97 102.25 161.71 89.00 161.71 L 24.00 161.71 C 10.75 161.71 0.00 150.97 0.00 137.71 L 0.00 24.00 C -0.00 10.75 10.75 0.00 24.00 0.00 Z" fill="#000000" fill-rule="evenodd" node-id="177" stroke="none" target-height="161.71428" target-width="113" target-x="0" target-y="0"></path></clipPath><clipPath id="mask-6" node-id="51"><path d="M 400.99 251.47 L 594.91 251.47 L 598.55 251.81 L 601.88 252.72 L 604.96 254.19 L 607.75 256.17 L 610.12 258.54 L 612.10 261.33 L 613.57 264.41 L 614.48 267.74 L 614.82 271.38 L 614.82 657.57 L 614.48 661.21 L 613.57 664.54 L 612.10 667.62 L 610.12 670.41 L 607.75 672.78 L 604.96 674.76 L 601.88 676.23 L 598.55 677.14 L 594.91 677.48 L 400.99 677.48 L 397.35 677.14 L 394.02 676.23 L 390.94 674.76 L 388.15 672.78 L 385.78 670.41 L 383.80 667.62 L 382.33 664.54 L 381.42 661.21 L 381.08 657.57 L 381.08 271.38 L 381.42 267.74 L 382.33 264.41 L 383.80 261.33 L 385.78 258.54 L 388.15 256.17 L 390.94 254.19 L 394.02 252.72 L 397.35 251.81 L 400.99 251.47 Z" fill="#000000" fill-rule="evenodd" node-id="181" stroke-linecap="butt" stroke-width="1" target-height="426.00998" target-width="233.74002" target-x="381.08" target-y="251.47"></path></clipPath><filter height="1.111" id="filter-8" node-id="11" width="1.156" x="-0.094" y="-0.041"><feOffset color-interpolation-filters="linearRGB" dx="-4" dy="5" in="SourceAlpha" result="shadowOffsetOuter1"></feOffset><feGaussianBlur color-interpolation-filters="linearRGB" in="shadowOffsetOuter1" result="shadowBlurOuter1" stdDeviation="5.5 5.5"></feGaussianBlur><feColorMatrix color-interpolation-filters="linearRGB" in="shadowBlurOuter1" result="result3" type="matrix" values="0 0 0 0 0.131470367 0 0 0 0 0.252066293 0 0 0 0 0.377830616 0 0 0 0.268438593 0"></feColorMatrix></filter><clipPath id="mask-10" node-id="70"><path d="M 588.00 215.50 L 587.79 219.39 L 587.23 223.11 L 586.31 226.67 L 585.05 230.10 L 582.86 234.45 L 580.19 238.41 L 577.02 242.02 L 573.41 245.19 L 569.45 247.86 L 565.10 250.05 L 561.67 251.31 L 558.11 252.23 L 554.39 252.79 L 550.50 253.00 L 546.61 252.79 L 542.89 252.23 L 539.33 251.31 L 535.90 250.05 L 531.55 247.86 L 527.59 245.19 L 523.98 242.02 L 520.81 238.41 L 518.14 234.45 L 515.95 230.10 L 514.69 226.67 L 513.77 223.11 L 513.21 219.39 L 513.00 215.50 L 513.21 211.61 L 513.77 207.89 L 514.69 204.33 L 515.95 200.90 L 518.14 196.55 L 520.81 192.59 L 523.98 188.98 L 527.59 185.81 L 531.55 183.14 L 535.90 180.95 L 539.33 179.69 L 542.89 178.77 L 546.61 178.21 L 550.50 178.00 L 554.39 178.21 L 558.11 178.77 L 561.67 179.69 L 565.10 180.95 L 569.45 183.14 L 573.41 185.81 L 577.02 188.98 L 580.19 192.59 L 582.86 196.55 L 585.05 200.90 L 586.31 204.33 L 587.23 207.89 L 587.79 211.61 L 588.00 215.50 Z" fill="#000000" fill-rule="evenodd" node-id="193" stroke-linecap="butt" stroke-width="1" target-height="75" target-width="75" target-x="513" target-y="178"></path></clipPath><clipPath id="mask-12" node-id="76"><path d="M 537.15 207.07 L 535.91 205.45 L 534.96 203.40 L 534.35 200.82 L 534.13 197.59 L 534.32 195.14 L 535.00 192.53 L 535.75 190.88 L 536.82 189.34 L 538.24 187.89 L 539.90 186.73 L 542.04 185.79 L 544.78 185.11 L 547.59 184.84 L 551.13 184.98 L 555.55 185.63 L 557.98 184.54 L 559.99 184.10 L 561.68 184.16 L 563.15 184.67 L 564.46 185.63 L 565.12 186.57 L 565.85 188.22 L 566.63 190.88 L 567.48 195.07 L 568.22 200.49 L 568.72 206.19 L 569.01 212.34 L 569.05 218.50 L 568.81 224.30 L 568.41 226.55 L 567.69 227.95 L 566.71 228.75 L 565.40 229.08 L 563.57 228.86 L 561.01 227.85 L 557.41 225.67 L 552.49 221.86 L 545.86 215.87 L 537.15 207.07 Z" fill="#000000" fill-rule="evenodd" node-id="197" stroke-linecap="butt" stroke-width="1" target-height="44.98471" target-width="34.920776" target-x="534.126" target-y="184.09818"></path></clipPath><clipPath id="mask-14" node-id="82"><path d="M 561.31 219.66 L 570.60 224.71 L 576.16 228.25 L 579.12 230.65 L 580.42 232.23 L 580.75 233.28 L 581.15 237.28 L 582.04 245.06 L 582.97 254.98 L 583.30 260.26 L 583.47 265.42 L 583.42 270.45 L 583.09 274.74 L 582.66 277.51 L 582.07 279.66 L 581.37 281.30 L 580.37 282.65 L 579.22 283.34 L 577.85 283.48 L 575.45 283.30 L 572.65 282.76 L 569.38 281.78 L 569.67 285.67 L 525.88 283.48 L 526.65 279.03 L 524.20 278.87 L 522.10 278.27 L 520.28 277.23 L 518.69 275.74 L 517.30 273.71 L 516.14 271.05 L 522.78 266.54 L 523.94 244.68 L 524.83 233.30 L 525.46 228.35 L 525.88 226.80 L 526.51 225.75 L 527.61 224.51 L 529.07 223.39 L 531.42 222.19 L 534.25 221.24 L 538.45 220.38 L 543.21 219.87 L 549.81 219.66 L 561.31 219.66 Z" fill="#000000" fill-rule="evenodd" node-id="201" stroke-linecap="butt" stroke-width="1" target-height="66.00687" target-width="67.333984" target-x="516.1394" target-y="219.65921"></path></clipPath><clipPath id="mask-16" node-id="92"><path d="M 559.19 206.89 L 559.67 206.39 L 559.99 205.63 L 560.41 203.89 L 560.95 202.34 L 561.25 200.80 L 561.00 199.84 L 560.36 199.20 L 559.46 198.85 L 558.42 198.82 L 557.41 199.11 L 556.56 199.74 L 556.03 200.67 L 555.78 201.83 L 555.75 204.06 L 555.73 204.93 L 555.62 205.12 L 555.09 204.59 L 552.99 200.80 L 549.30 199.47 L 543.53 196.67 L 541.19 197.67 L 538.82 198.01 L 536.35 197.72 L 536.23 200.56 L 535.97 202.02 L 535.67 202.64 L 537.37 208.31 L 539.09 212.65 L 540.81 215.89 L 542.50 218.23 L 544.18 219.85 L 545.84 220.89 L 547.52 221.44 L 546.51 224.88 L 546.15 227.42 L 546.25 229.27 L 546.69 230.61 L 547.43 231.57 L 548.47 232.24 L 549.55 232.48 L 550.78 232.41 L 552.26 231.97 L 554.38 230.86 L 556.63 229.19 L 558.67 227.18 L 560.43 224.94 L 561.79 222.53 L 562.53 220.26 L 559.19 210.93 L 559.05 209.55 L 559.19 206.89 Z" fill="#000000" fill-rule="evenodd" node-id="205" stroke-linecap="butt" stroke-width="1" target-height="35.81729" target-width="26.85614" target-x="535.67175" target-y="196.66554"></path></clipPath><clipPath id="mask-18" node-id="107"><path d="M -0.00 87.71 C 21.52 32.14 63.87 2.91 127.06 -0.00 C 115.52 9.05 107.93 15.68 104.29 19.87 C 95.86 29.57 93.10 39.41 90.03 40.27 L 77.66 42.25 C 68.87 53.55 61.24 59.21 54.77 59.21 C 45.47 66.31 36.14 70.31 26.76 71.21 C 17.39 72.11 8.47 77.61 -0.00 87.71 Z" fill="#000000" fill-rule="evenodd" node-id="209" stroke="none" target-height="87.71019" target-width="127.06266" target-x="-0" target-y="0"></path></clipPath><clipPath id="mask-20" node-id="114"><path d="M 561.35 640.19 L 556.64 636.47 L 552.55 632.62 L 549.03 628.62 L 546.05 624.48 L 543.56 620.17 L 541.56 615.68 L 540.03 610.99 L 538.96 606.08 L 537.86 600.38 L 536.87 596.49 L 534.87 590.71 L 533.36 586.62 L 532.92 584.63 L 532.72 582.09 L 532.82 579.24 L 533.33 575.01 L 535.10 564.72 L 535.86 560.07 L 536.35 555.63 L 536.47 551.17 L 536.09 546.38 L 535.53 543.19 L 534.63 539.62 L 533.33 535.62 L 532.36 532.39 L 531.83 529.53 L 531.69 526.99 L 532.00 523.26 L 532.81 520.05 L 533.99 517.06 L 535.31 514.46 L 537.82 509.89 L 538.66 507.81 L 538.96 506.00 L 541.94 508.48 L 544.63 511.46 L 547.06 515.01 L 549.20 519.19 L 551.04 524.08 L 552.56 529.79 L 554.14 535.85 L 555.96 541.13 L 558.04 546.11 L 560.08 550.46 L 563.84 558.21 L 565.30 561.73 L 566.22 564.83 L 566.68 568.03 L 566.85 571.52 L 566.82 578.53 L 566.88 581.94 L 567.16 584.94 L 567.55 586.85 L 568.14 588.44 L 568.91 589.77 L 570.04 591.48 L 570.96 593.44 L 571.66 595.70 L 572.04 598.04 L 572.14 600.87 L 571.90 604.27 L 571.36 607.64 L 570.39 611.72 L 568.91 616.62 L 564.36 630.52 L 561.35 640.19 Z" fill="#000000" fill-rule="evenodd" node-id="213" stroke-linecap="butt" stroke-width="1" target-height="134.19348" target-width="40.456238" target-x="531.6871" target-y="506"></path></clipPath><clipPath id="mask-22" node-id="119"><path d="M 96.02 112.90 C 80.43 52.45 48.48 14.82 0.18 0.00 C -1.14 11.82 4.71 22.36 17.73 31.60 C 11.93 42.51 18.40 51.60 37.12 58.86 C 43.45 62.22 49.01 69.50 53.78 80.71 C 58.55 91.91 72.63 102.64 96.02 112.90 Z" fill="#000000" fill-rule="evenodd" node-id="217" stroke="none" target-height="112.8952" target-width="96.00532" target-x="0.016832605" target-y="0"></path></clipPath><clipPath id="mask-24" node-id="127"><path d="M 574.52 643.90 L 573.21 639.03 L 572.59 634.87 L 572.54 631.33 L 572.98 628.29 L 573.86 625.67 L 575.16 623.40 L 576.89 621.43 L 578.25 619.24 L 579.26 616.77 L 579.90 613.99 L 580.15 610.84 L 579.97 607.25 L 579.28 603.15 L 578.87 600.25 L 578.87 597.77 L 579.23 595.64 L 580.34 592.62 L 581.95 589.96 L 583.90 587.51 L 586.01 585.13 L 588.08 582.74 L 589.95 580.19 L 590.48 576.14 L 591.44 572.81 L 592.78 570.10 L 594.47 567.90 L 596.53 566.14 L 599.01 564.79 L 601.37 563.50 L 603.76 561.61 L 606.19 558.98 L 608.68 555.48 L 611.22 550.94 L 613.81 545.19 L 616.86 550.65 L 619.01 555.54 L 620.38 559.93 L 621.08 563.89 L 621.19 567.48 L 620.77 570.78 L 619.83 573.82 L 618.39 576.67 L 616.40 579.36 L 613.81 581.92 L 612.71 587.46 L 611.18 592.20 L 609.26 596.24 L 606.98 599.67 L 604.33 602.57 L 602.59 604.39 L 601.40 605.99 L 600.65 607.38 L 599.92 609.58 L 599.67 611.63 L 599.70 615.83 L 599.56 618.02 L 599.01 620.49 L 597.95 622.66 L 595.61 625.76 L 591.41 630.08 L 584.65 635.99 L 574.52 643.90 Z" fill="#000000" fill-rule="evenodd" node-id="221" stroke-linecap="butt" stroke-width="1" target-height="98.71106" target-width="48.65027" target-x="572.5398" target-y="545.18713"></path></clipPath><clipPath id="mask-26" node-id="134"><path d="M 544.87 694.82 L 592.28 694.82 L 587.29 741.85 L 549.86 741.85 Z" fill="#000000" fill-rule="evenodd" node-id="225" stroke-linecap="butt" stroke-width="1" target-height="47.032776" target-width="47.4068" target-x="544.8707" target-y="694.8171"></path></clipPath><clipPath id="mask-28" node-id="147"><path d="M 7.25 0.00 L 49.11 8.27 L 59.49 53.89 C 60.23 57.12 58.20 60.34 54.97 61.07 C 54.75 61.12 54.52 61.16 54.28 61.19 L 29.64 63.84 C 28.68 63.95 27.71 63.82 26.81 63.47 L -0.00 53.00 L -0.00 53.00 L 7.25 0.00 Z" fill="#000000" fill-rule="evenodd" node-id="229" stroke="none" target-height="63.842884" target-width="59.62911" target-x="-0" target-y="0"></path></clipPath><clipPath id="mask-4_5" node-id="40"><path d="M 182.00 568.81 L 247.00 568.81 L 250.30 569.04 L 253.40 569.67 L 256.34 570.70 L 259.13 572.10 L 261.66 573.81 L 263.97 575.84 L 266.00 578.15 L 267.71 580.69 L 269.11 583.47 L 270.14 586.41 L 270.77 589.52 L 271.00 592.81 L 271.00 706.53 L 270.77 709.82 L 270.14 712.93 L 269.11 715.87 L 267.71 718.66 L 266.00 721.19 L 263.97 723.50 L 261.66 725.53 L 259.13 727.24 L 256.34 728.64 L 253.40 729.67 L 250.30 730.30 L 247.00 730.53 L 182.00 730.53 L 178.70 730.30 L 175.60 729.67 L 172.66 728.64 L 169.87 727.24 L 167.34 725.53 L 165.03 723.50 L 163.00 721.19 L 161.29 718.66 L 159.89 715.87 L 158.86 712.93 L 158.23 709.82 L 158.00 706.53 L 158.00 592.81 L 158.23 589.52 L 158.86 586.41 L 159.89 583.47 L 161.29 580.69 L 163.00 578.15 L 165.03 575.84 L 167.34 573.81 L 169.87 572.10 L 172.66 570.70 L 175.60 569.67 L 178.70 569.04 L 182.00 568.81 Z" fill="#000000" fill-rule="evenodd" node-id="177" stroke-linecap="butt" stroke-width="1" target-height="161.7143" target-width="113" target-x="158" target-y="568.81366"></path></clipPath><clipPath id="mask-4_6" node-id="40"><path d="M 182.00 568.81 L 247.00 568.81 L 250.30 569.04 L 253.40 569.67 L 256.34 570.70 L 259.13 572.10 L 261.66 573.81 L 263.97 575.84 L 266.00 578.15 L 267.71 580.69 L 269.11 583.47 L 270.14 586.41 L 270.77 589.52 L 271.00 592.81 L 271.00 706.53 L 270.77 709.82 L 270.14 712.93 L 269.11 715.87 L 267.71 718.66 L 266.00 721.19 L 263.97 723.50 L 261.66 725.53 L 259.13 727.24 L 256.34 728.64 L 253.40 729.67 L 250.30 730.30 L 247.00 730.53 L 182.00 730.53 L 178.70 730.30 L 175.60 729.67 L 172.66 728.64 L 169.87 727.24 L 167.34 725.53 L 165.03 723.50 L 163.00 721.19 L 161.29 718.66 L 159.89 715.87 L 158.86 712.93 L 158.23 709.82 L 158.00 706.53 L 158.00 592.81 L 158.23 589.52 L 158.86 586.41 L 159.89 583.47 L 161.29 580.69 L 163.00 578.15 L 165.03 575.84 L 167.34 573.81 L 169.87 572.10 L 172.66 570.70 L 175.60 569.67 L 178.70 569.04 L 182.00 568.81 Z" fill="#000000" fill-rule="evenodd" node-id="177" stroke-linecap="butt" stroke-width="1" target-height="161.7143" target-width="113" target-x="158" target-y="568.81366"></path></clipPath><clipPath id="mask-4_7" node-id="40"><path d="M 182.00 568.81 L 247.00 568.81 L 250.30 569.04 L 253.40 569.67 L 256.34 570.70 L 259.13 572.10 L 261.66 573.81 L 263.97 575.84 L 266.00 578.15 L 267.71 580.69 L 269.11 583.47 L 270.14 586.41 L 270.77 589.52 L 271.00 592.81 L 271.00 706.53 L 270.77 709.82 L 270.14 712.93 L 269.11 715.87 L 267.71 718.66 L 266.00 721.19 L 263.97 723.50 L 261.66 725.53 L 259.13 727.24 L 256.34 728.64 L 253.40 729.67 L 250.30 730.30 L 247.00 730.53 L 182.00 730.53 L 178.70 730.30 L 175.60 729.67 L 172.66 728.64 L 169.87 727.24 L 167.34 725.53 L 165.03 723.50 L 163.00 721.19 L 161.29 718.66 L 159.89 715.87 L 158.86 712.93 L 158.23 709.82 L 158.00 706.53 L 158.00 592.81 L 158.23 589.52 L 158.86 586.41 L 159.89 583.47 L 161.29 580.69 L 163.00 578.15 L 165.03 575.84 L 167.34 573.81 L 169.87 572.10 L 172.66 570.70 L 175.60 569.67 L 178.70 569.04 L 182.00 568.81 Z" fill="#000000" fill-rule="evenodd" node-id="177" stroke-linecap="butt" stroke-width="1" target-height="161.7143" target-width="113" target-x="158" target-y="568.81366"></path></clipPath><clipPath id="mask-4_8" node-id="40"><path d="M 182.00 568.81 L 247.00 568.81 L 250.30 569.04 L 253.40 569.67 L 256.34 570.70 L 259.13 572.10 L 261.66 573.81 L 263.97 575.84 L 266.00 578.15 L 267.71 580.69 L 269.11 583.47 L 270.14 586.41 L 270.77 589.52 L 271.00 592.81 L 271.00 706.53 L 270.77 709.82 L 270.14 712.93 L 269.11 715.87 L 267.71 718.66 L 266.00 721.19 L 263.97 723.50 L 261.66 725.53 L 259.13 727.24 L 256.34 728.64 L 253.40 729.67 L 250.30 730.30 L 247.00 730.53 L 182.00 730.53 L 178.70 730.30 L 175.60 729.67 L 172.66 728.64 L 169.87 727.24 L 167.34 725.53 L 165.03 723.50 L 163.00 721.19 L 161.29 718.66 L 159.89 715.87 L 158.86 712.93 L 158.23 709.82 L 158.00 706.53 L 158.00 592.81 L 158.23 589.52 L 158.86 586.41 L 159.89 583.47 L 161.29 580.69 L 163.00 578.15 L 165.03 575.84 L 167.34 573.81 L 169.87 572.10 L 172.66 570.70 L 175.60 569.67 L 178.70 569.04 L 182.00 568.81 Z" fill="#000000" fill-rule="evenodd" node-id="177" stroke-linecap="butt" stroke-width="1" target-height="161.7143" target-width="113" target-x="158" target-y="568.81366"></path></clipPath><clipPath id="mask-18_4" node-id="107"><path d="M 589.95 649.93 L 593.86 640.61 L 598.12 631.95 L 602.72 623.89 L 607.65 616.41 L 612.90 609.48 L 618.49 603.06 L 624.41 597.14 L 630.68 591.69 L 637.31 586.71 L 644.32 582.17 L 651.72 578.07 L 659.55 574.42 L 667.82 571.21 L 676.57 568.45 L 685.83 566.15 L 695.63 564.33 L 706.01 563.01 L 717.01 562.22 L 705.42 571.61 L 698.24 577.98 L 694.24 582.09 L 690.37 587.05 L 687.47 591.50 L 683.17 598.98 L 681.89 600.91 L 680.85 601.99 L 679.98 602.49 L 667.61 604.47 L 663.17 609.81 L 659.21 613.89 L 655.67 616.91 L 652.51 619.03 L 649.67 620.42 L 647.09 621.19 L 644.72 621.43 L 639.82 624.88 L 635.04 627.70 L 630.36 629.92 L 625.76 631.60 L 621.22 632.76 L 616.71 633.43 L 612.96 634.04 L 609.22 635.16 L 605.47 636.82 L 601.69 639.06 L 597.85 641.94 L 593.94 645.54 L 589.95 649.93 Z" fill="#000000" fill-rule="evenodd" node-id="209" stroke-linecap="butt" stroke-width="1" target-height="87.710205" target-width="127.06268" target-x="589.94824" target-y="562.2206"></path></clipPath><clipPath id="mask-18_5" node-id="107"><path d="M 589.95 649.93 L 593.86 640.61 L 598.12 631.95 L 602.72 623.89 L 607.65 616.41 L 612.90 609.48 L 618.49 603.06 L 624.41 597.14 L 630.68 591.69 L 637.31 586.71 L 644.32 582.17 L 651.72 578.07 L 659.55 574.42 L 667.82 571.21 L 676.57 568.45 L 685.83 566.15 L 695.63 564.33 L 706.01 563.01 L 717.01 562.22 L 705.42 571.61 L 698.24 577.98 L 694.24 582.09 L 690.37 587.05 L 687.47 591.50 L 683.17 598.98 L 681.89 600.91 L 680.85 601.99 L 679.98 602.49 L 667.61 604.47 L 663.17 609.81 L 659.21 613.89 L 655.67 616.91 L 652.51 619.03 L 649.67 620.42 L 647.09 621.19 L 644.72 621.43 L 639.82 624.88 L 635.04 627.70 L 630.36 629.92 L 625.76 631.60 L 621.22 632.76 L 616.71 633.43 L 612.96 634.04 L 609.22 635.16 L 605.47 636.82 L 601.69 639.06 L 597.85 641.94 L 593.94 645.54 L 589.95 649.93 Z" fill="#000000" fill-rule="evenodd" node-id="209" stroke-linecap="butt" stroke-width="1" target-height="87.710205" target-width="127.06268" target-x="589.94824" target-y="562.2206"></path></clipPath><clipPath id="mask-18_6" node-id="107"><path d="M 589.95 649.93 L 593.86 640.61 L 598.12 631.95 L 602.72 623.89 L 607.65 616.41 L 612.90 609.48 L 618.49 603.06 L 624.41 597.14 L 630.68 591.69 L 637.31 586.71 L 644.32 582.17 L 651.72 578.07 L 659.55 574.42 L 667.82 571.21 L 676.57 568.45 L 685.83 566.15 L 695.63 564.33 L 706.01 563.01 L 717.01 562.22 L 705.42 571.61 L 698.24 577.98 L 694.24 582.09 L 690.37 587.05 L 687.47 591.50 L 683.17 598.98 L 681.89 600.91 L 680.85 601.99 L 679.98 602.49 L 667.61 604.47 L 663.17 609.81 L 659.21 613.89 L 655.67 616.91 L 652.51 619.03 L 649.67 620.42 L 647.09 621.19 L 644.72 621.43 L 639.82 624.88 L 635.04 627.70 L 630.36 629.92 L 625.76 631.60 L 621.22 632.76 L 616.71 633.43 L 612.96 634.04 L 609.22 635.16 L 605.47 636.82 L 601.69 639.06 L 597.85 641.94 L 593.94 645.54 L 589.95 649.93 Z" fill="#000000" fill-rule="evenodd" node-id="209" stroke-linecap="butt" stroke-width="1" target-height="87.710205" target-width="127.06268" target-x="589.94824" target-y="562.2206"></path></clipPath><clipPath id="mask-22_5" node-id="119"><path d="M 558.02 676.94 L 554.61 664.90 L 550.81 653.71 L 546.66 643.31 L 542.17 633.66 L 537.34 624.72 L 532.19 616.44 L 526.73 608.80 L 520.95 601.74 L 514.85 595.25 L 508.42 589.29 L 501.66 583.86 L 494.55 578.92 L 487.07 574.48 L 479.20 570.52 L 470.91 567.04 L 462.18 564.04 L 462.02 568.25 L 462.47 572.31 L 463.53 576.26 L 465.22 580.15 L 467.60 584.01 L 470.75 587.87 L 474.75 591.74 L 479.73 595.64 L 478.39 598.75 L 477.76 601.62 L 477.74 604.32 L 478.30 606.93 L 479.49 609.50 L 481.37 612.08 L 484.08 614.71 L 487.80 617.39 L 492.74 620.13 L 499.12 622.90 L 501.90 624.67 L 504.67 627.04 L 507.44 630.12 L 510.22 634.01 L 513.00 638.84 L 515.78 644.75 L 517.60 648.28 L 520.14 651.91 L 523.52 655.67 L 527.86 659.58 L 533.31 663.65 L 540.03 667.90 L 548.20 672.33 L 558.02 676.94 Z" fill="#000000" fill-rule="evenodd" node-id="217" stroke-linecap="butt" stroke-width="1" target-height="112.8952" target-width="96.00531" target-x="462.01685" target-y="564.0418"></path></clipPath><clipPath id="mask-22_6" node-id="119"><path d="M 558.02 676.94 L 554.61 664.90 L 550.81 653.71 L 546.66 643.31 L 542.17 633.66 L 537.34 624.72 L 532.19 616.44 L 526.73 608.80 L 520.95 601.74 L 514.85 595.25 L 508.42 589.29 L 501.66 583.86 L 494.55 578.92 L 487.07 574.48 L 479.20 570.52 L 470.91 567.04 L 462.18 564.04 L 462.02 568.25 L 462.47 572.31 L 463.53 576.26 L 465.22 580.15 L 467.60 584.01 L 470.75 587.87 L 474.75 591.74 L 479.73 595.64 L 478.39 598.75 L 477.76 601.62 L 477.74 604.32 L 478.30 606.93 L 479.49 609.50 L 481.37 612.08 L 484.08 614.71 L 487.80 617.39 L 492.74 620.13 L 499.12 622.90 L 501.90 624.67 L 504.67 627.04 L 507.44 630.12 L 510.22 634.01 L 513.00 638.84 L 515.78 644.75 L 517.60 648.28 L 520.14 651.91 L 523.52 655.67 L 527.86 659.58 L 533.31 663.65 L 540.03 667.90 L 548.20 672.33 L 558.02 676.94 Z" fill="#000000" fill-rule="evenodd" node-id="217" stroke-linecap="butt" stroke-width="1" target-height="112.8952" target-width="96.00531" target-x="462.01685" target-y="564.0418"></path></clipPath><clipPath id="mask-22_7" node-id="119"><path d="M 558.02 676.94 L 554.61 664.90 L 550.81 653.71 L 546.66 643.31 L 542.17 633.66 L 537.34 624.72 L 532.19 616.44 L 526.73 608.80 L 520.95 601.74 L 514.85 595.25 L 508.42 589.29 L 501.66 583.86 L 494.55 578.92 L 487.07 574.48 L 479.20 570.52 L 470.91 567.04 L 462.18 564.04 L 462.02 568.25 L 462.47 572.31 L 463.53 576.26 L 465.22 580.15 L 467.60 584.01 L 470.75 587.87 L 474.75 591.74 L 479.73 595.64 L 478.39 598.75 L 477.76 601.62 L 477.74 604.32 L 478.30 606.93 L 479.49 609.50 L 481.37 612.08 L 484.08 614.71 L 487.80 617.39 L 492.74 620.13 L 499.12 622.90 L 501.90 624.67 L 504.67 627.04 L 507.44 630.12 L 510.22 634.01 L 513.00 638.84 L 515.78 644.75 L 517.60 648.28 L 520.14 651.91 L 523.52 655.67 L 527.86 659.58 L 533.31 663.65 L 540.03 667.90 L 548.20 672.33 L 558.02 676.94 Z" fill="#000000" fill-rule="evenodd" node-id="217" stroke-linecap="butt" stroke-width="1" target-height="112.8952" target-width="96.00531" target-x="462.01685" target-y="564.0418"></path></clipPath><clipPath id="mask-22_8" node-id="119"><path d="M 558.02 676.94 L 554.61 664.90 L 550.81 653.71 L 546.66 643.31 L 542.17 633.66 L 537.34 624.72 L 532.19 616.44 L 526.73 608.80 L 520.95 601.74 L 514.85 595.25 L 508.42 589.29 L 501.66 583.86 L 494.55 578.92 L 487.07 574.48 L 479.20 570.52 L 470.91 567.04 L 462.18 564.04 L 462.02 568.25 L 462.47 572.31 L 463.53 576.26 L 465.22 580.15 L 467.60 584.01 L 470.75 587.87 L 474.75 591.74 L 479.73 595.64 L 478.39 598.75 L 477.76 601.62 L 477.74 604.32 L 478.30 606.93 L 479.49 609.50 L 481.37 612.08 L 484.08 614.71 L 487.80 617.39 L 492.74 620.13 L 499.12 622.90 L 501.90 624.67 L 504.67 627.04 L 507.44 630.12 L 510.22 634.01 L 513.00 638.84 L 515.78 644.75 L 517.60 648.28 L 520.14 651.91 L 523.52 655.67 L 527.86 659.58 L 533.31 663.65 L 540.03 667.90 L 548.20 672.33 L 558.02 676.94 Z" fill="#000000" fill-rule="evenodd" node-id="217" stroke-linecap="butt" stroke-width="1" target-height="112.8952" target-width="96.00531" target-x="462.01685" target-y="564.0418"></path></clipPath><clipPath id="mask-28_4" node-id="147"><path d="M 395.41 415.66 L 437.27 423.93 L 447.65 469.55 L 447.78 471.19 L 447.53 472.68 L 446.88 474.08 L 445.90 475.27 L 444.67 476.15 L 443.13 476.73 L 442.44 476.85 L 417.79 479.50 L 416.36 479.49 L 414.97 479.13 L 388.16 468.66 L 388.16 468.66 L 395.41 415.66 Z" fill="#000000" fill-rule="evenodd" node-id="229" stroke-linecap="butt" stroke-width="1" target-height="63.842896" target-width="59.62912" target-x="388.15536" target-y="415.66064"></path></clipPath><clipPath id="mask-28_5" node-id="147"><path d="M 395.41 415.66 L 437.27 423.93 L 447.65 469.55 L 447.78 471.19 L 447.53 472.68 L 446.88 474.08 L 445.90 475.27 L 444.67 476.15 L 443.13 476.73 L 442.44 476.85 L 417.79 479.50 L 416.36 479.49 L 414.97 479.13 L 388.16 468.66 L 388.16 468.66 L 395.41 415.66 Z" fill="#000000" fill-rule="evenodd" node-id="229" stroke-linecap="butt" stroke-width="1" target-height="63.842896" target-width="59.62912" target-x="388.15536" target-y="415.66064"></path></clipPath><clipPath id="mask-28_6" node-id="147"><path d="M 395.41 415.66 L 437.27 423.93 L 447.65 469.55 L 447.78 471.19 L 447.53 472.68 L 446.88 474.08 L 445.90 475.27 L 444.67 476.15 L 443.13 476.73 L 442.44 476.85 L 417.79 479.50 L 416.36 479.49 L 414.97 479.13 L 388.16 468.66 L 388.16 468.66 L 395.41 415.66 Z" fill="#000000" fill-rule="evenodd" node-id="229" stroke-linecap="butt" stroke-width="1" target-height="63.842896" target-width="59.62912" target-x="388.15536" target-y="415.66064"></path></clipPath></defs><path d="M 0.00 0.00 L 800.00 0.00 L 800.00 800.00 L 0.00 800.00 Z" fill="#ffffff" fill-rule="evenodd" hidden="true" node-id="234" stroke="none" target-height="800" target-width="800" target-x="0" target-y="0" visibility="hidden"></path><g node-id="480"><g node-id="481"><g node-id="487"><path d="M 248.10 419.10 L 247.82 424.92 L 247.07 430.49 L 245.87 435.82 L 244.21 440.96 L 242.15 445.97 L 239.73 450.86 L 236.96 455.65 L 233.81 460.34 L 229.26 466.34 L 224.26 472.27 L 218.79 478.14 L 210.18 486.67 L 201.02 495.24 L 182.39 512.56 L 173.33 521.58 L 164.79 530.97 L 159.46 537.51 L 154.57 544.31 L 150.11 551.37 L 147.12 556.86 L 144.47 562.56 L 142.18 568.49 L 140.23 574.67 L 138.74 580.90 L 137.70 587.48 L 137.13 594.41 L 137.04 601.75 L 137.46 608.91 L 138.46 616.57 L 140.10 624.75 L 142.41 633.50 L 144.52 639.63 L 147.10 645.66 L 150.17 651.61 L 153.74 657.49 L 157.84 663.31 L 163.37 670.12 L 169.58 676.77 L 176.51 683.27 L 184.20 689.63 L 192.13 695.46 L 200.67 701.07 L 209.83 706.45 L 219.65 711.61 L 229.58 716.26 L 240.00 720.61 L 250.92 724.66 L 262.38 728.39 L 273.87 731.65 L 285.71 734.54 L 297.93 737.03 L 310.54 739.14 L 323.14 740.78 L 335.97 741.98 L 349.02 742.72 L 362.32 743.00 L 375.57 742.80 L 388.91 742.08 L 402.35 740.86 L 415.89 739.12 L 429.32 736.85 L 442.71 734.02 L 456.07 730.62 L 469.41 726.64 L 482.54 722.10 L 495.52 716.95 L 508.35 711.16 L 521.07 704.72 L 530.96 699.18 L 540.70 693.19 L 550.29 686.76 L 559.72 679.87 L 569.02 672.51 L 577.92 664.86 L 586.61 656.71 L 595.09 648.06 L 603.37 638.88 L 611.44 629.16 L 617.85 620.59 L 623.60 611.97 L 628.73 603.27 L 633.26 594.50 L 637.21 585.65 L 640.70 576.49 L 643.66 567.29 L 646.10 558.01 L 648.03 548.66 L 649.46 539.21 L 650.41 529.70 L 650.91 520.14 L 650.97 510.53 L 650.58 500.85 L 649.74 491.10 L 648.12 479.02 L 645.89 466.91 L 643.06 454.76 L 639.60 442.57 L 635.63 430.57 L 631.14 418.62 L 626.13 406.72 L 620.59 394.86 L 614.63 383.23 L 608.27 371.76 L 601.47 360.42 L 594.25 349.23 L 586.69 338.28 L 578.82 327.58 L 570.64 317.13 L 562.15 306.93 L 553.35 296.97 L 544.36 287.36 L 535.19 278.11 L 525.83 269.21 L 516.16 260.55 L 506.44 252.36 L 496.66 244.62 L 486.83 237.32 L 476.68 230.29 L 466.61 223.83 L 456.63 217.91 L 446.71 212.51 L 436.47 207.46 L 426.45 203.04 L 416.64 199.24 L 407.02 196.03 L 397.11 193.29 L 387.54 191.25 L 378.28 189.88 L 369.31 189.13 L 361.99 189.00 L 354.93 189.34 L 348.12 190.14 L 341.52 191.38 L 335.12 193.06 L 323.53 196.93 L 313.16 200.95 L 303.92 205.11 L 295.72 209.39 L 287.55 214.32 L 280.32 219.34 L 273.95 224.46 L 268.38 229.67 L 263.10 235.39 L 258.49 241.20 L 254.50 247.11 L 251.11 253.14 L 248.14 259.45 L 245.62 265.86 L 243.56 272.39 L 241.93 279.06 L 240.35 288.08 L 239.32 297.27 L 238.87 306.67 L 238.87 316.09 L 239.23 325.61 L 239.93 335.23 L 241.40 349.64 L 243.15 363.99 L 244.95 378.27 L 246.53 392.19 L 247.37 401.45 L 247.89 410.42 L 248.10 419.10 Z" fill="#eef6ff" fill-rule="evenodd" group-id="1,2,8" node-id="240" stroke-linecap="butt" stroke-width="1" target-height="553.99567" target-width="513.93555" target-x="137.03545" target-y="189.00322"></path></g><g clip-path="url(#mask-2)" group-id="1,2,9" node-id="243"><path d="M 241.31 401.00 L 249.40 406.53 L 256.74 412.21 L 263.38 418.03 L 269.35 424.00 L 274.70 430.12 L 279.46 436.41 L 283.65 442.85 L 287.29 449.49 L 290.40 456.31 L 293.00 463.35 L 295.08 470.63 L 296.64 478.16 L 297.69 485.97 L 298.20 494.09 L 298.15 502.55 L 297.54 511.36 L 296.32 520.57 L 294.46 530.20 L 293.61 535.22 L 293.22 540.23 L 293.29 545.27 L 293.83 550.34 L 294.84 555.47 L 296.66 561.68 L 299.13 567.91 L 302.28 574.18 L 306.15 580.51 L 310.43 586.44 L 315.31 592.33 L 320.84 598.18 L 327.06 603.99 L 333.49 609.37 L 340.47 614.59 L 348.03 619.67 L 356.20 624.61 L 364.49 629.09 L 373.24 633.33 L 382.49 637.31 L 392.25 641.03 L 402.05 644.29 L 412.24 647.20 L 422.83 649.75 L 433.84 651.93 L 444.83 653.63 L 456.12 654.89 L 467.72 655.68 L 479.64 656.00 L 491.47 655.81 L 503.51 655.07 L 515.78 653.78 L 528.29 651.91 L 540.61 649.51 L 553.06 646.46 L 565.68 642.75 L 578.46 638.35 L 588.41 634.46 L 598.41 630.10 L 608.47 625.24 L 618.59 619.88 L 628.79 614.00 L 618.92 633.70 L 609.87 650.62 L 601.57 665.01 L 593.97 677.14 L 587.03 687.25 L 580.70 695.57 L 574.92 702.32 L 569.66 707.68 L 564.86 711.85 L 560.47 714.99 L 556.45 717.25 L 552.75 718.76 L 547.61 720.60 L 538.84 723.97 L 516.07 732.69 L 502.22 737.72 L 485.96 743.29 L 468.91 748.70 L 450.01 754.14 L 437.15 757.51 L 423.74 760.68 L 409.75 763.64 L 395.70 766.22 L 381.34 768.39 L 366.68 770.15 L 351.96 771.39 L 337.18 772.02 L 322.32 772.06 L 311.17 771.64 L 300.10 770.78 L 289.11 769.48 L 278.17 767.75 L 267.33 765.52 L 256.65 762.75 L 246.14 759.44 L 235.76 755.59 L 227.65 752.11 L 219.69 748.21 L 211.86 743.89 L 204.17 739.15 L 196.60 733.97 L 186.12 726.00 L 176.61 718.06 L 168.03 710.14 L 160.32 702.25 L 153.42 694.37 L 147.29 686.50 L 141.89 678.64 L 137.19 670.76 L 133.14 662.86 L 129.73 654.93 L 126.93 646.94 L 124.72 638.89 L 123.10 630.74 L 122.05 622.49 L 121.58 614.11 L 121.70 605.58 L 122.41 596.88 L 123.74 587.97 L 125.71 578.86 L 128.34 569.49 L 131.67 559.87 L 135.73 549.96 L 140.58 539.74 L 146.25 529.18 L 152.80 518.28 L 214.00 466.00 L 241.31 401.00 Z" fill="#e9f4ff" fill-rule="evenodd" group-id="1,2,9" node-id="245" stroke-linecap="butt" stroke-width="1" target-height="371.05432" target-width="507.20093" target-x="121.5847" target-y="401.00482"></path></g></g><g node-id="482"><g node-id="489"><path d="M 177.05 582.25 L 177.05 495.06 L 177.28 491.63 L 177.94 488.39 L 179.01 485.33 L 180.47 482.43 L 182.25 479.79 L 184.37 477.38 L 186.77 475.27 L 189.41 473.49 L 192.32 472.03 L 195.38 470.96 L 198.61 470.30 L 202.05 470.06 L 225.86 470.06 L 229.29 470.30 L 232.52 470.96 L 235.59 472.03 L 238.49 473.49 L 241.13 475.27 L 243.53 477.38 L 245.65 479.79 L 247.43 482.43 L 248.89 485.33 L 249.96 488.39 L 250.62 491.63 L 250.86 495.06 L 250.86 582.25 L 250.86 582.25" fill="none" group-id="1,3,10" id="Path-67" node-id="35" stroke="#b4b4b4" stroke-linecap="butt" stroke-width="5" target-height="112.19284" target-width="73.80975" target-x="177.04675" target-y="470.06155"></path><path d="M 179.56 714.18 L 179.56 714.18 L 181.20 714.42 L 182.61 715.00 L 183.83 715.95 L 184.78 717.18 L 185.37 718.58 L 185.60 720.22 L 185.60 736.53 L 185.37 738.17 L 184.78 739.58 L 183.83 740.80 L 182.61 741.75 L 181.20 742.34 L 179.56 742.57 L 179.56 742.57 L 177.93 742.34 L 176.52 741.75 L 175.30 740.80 L 174.35 739.58 L 173.76 738.17 L 173.53 736.53 L 173.53 720.22 L 173.76 718.58 L 174.35 717.18 L 175.30 715.95 L 176.52 715.00 L 177.93 714.42 L 179.56 714.18 Z" fill="#38372d" fill-rule="evenodd" group-id="1,3,10" id="Rectangle" node-id="36" stroke-linecap="butt" stroke-width="1" target-height="28.386047" target-width="12.07634" target-x="173.52672" target-y="714.1845"></path><path d="M 248.57 714.18 L 248.57 714.18 L 250.21 714.42 L 251.62 715.00 L 252.84 715.95 L 253.79 717.18 L 254.38 718.58 L 254.61 720.22 L 254.61 736.53 L 254.38 738.17 L 253.79 739.58 L 252.84 740.80 L 251.62 741.75 L 250.21 742.34 L 248.57 742.57 L 248.57 742.57 L 246.93 742.34 L 245.53 741.75 L 244.30 740.80 L 243.35 739.58 L 242.77 738.17 L 242.53 736.53 L 242.53 720.22 L 242.77 718.58 L 243.35 717.18 L 244.30 715.95 L 245.53 715.00 L 246.93 714.42 L 248.57 714.18 Z" fill="#38372d" fill-rule="evenodd" group-id="1,3,10" id="Rectangle-Copy-5" node-id="37" stroke-linecap="butt" stroke-width="1" target-height="28.386047" target-width="12.07634" target-x="242.53435" target-y="714.1845"></path><g node-id="505"><g node-id="530"><g node-id="535"><path d="M 182.00 568.81 L 247.00 568.81 L 250.30 569.04 L 253.40 569.67 L 256.34 570.70 L 259.13 572.10 L 261.66 573.81 L 263.97 575.84 L 266.00 578.15 L 267.71 580.69 L 269.11 583.47 L 270.14 586.41 L 270.77 589.52 L 271.00 592.81 L 271.00 706.53 L 270.77 709.82 L 270.14 712.93 L 269.11 715.87 L 267.71 718.66 L 266.00 721.19 L 263.97 723.50 L 261.66 725.53 L 259.13 727.24 L 256.34 728.64 L 253.40 729.67 L 250.30 730.30 L 247.00 730.53 L 182.00 730.53 L 178.70 730.30 L 175.60 729.67 L 172.66 728.64 L 169.87 727.24 L 167.34 725.53 L 165.03 723.50 L 163.00 721.19 L 161.29 718.66 L 159.89 715.87 L 158.86 712.93 L 158.23 709.82 L 158.00 706.53 L 158.00 592.81 L 158.23 589.52 L 158.86 586.41 L 159.89 583.47 L 161.29 580.69 L 163.00 578.15 L 165.03 575.84 L 167.34 573.81 L 169.87 572.10 L 172.66 570.70 L 175.60 569.67 L 178.70 569.04 L 182.00 568.81 Z" fill="#e38f00" fill-rule="evenodd" group-id="1,3,10,26,51,56" node-id="257" stroke-linecap="butt" stroke-width="1" target-height="161.7143" target-width="113" target-x="158" target-y="568.81366"></path></g><g node-id="536"><g clip-path="url(#mask-4_5)" group-id="1,3,10,26,51,57" node-id="260"><path d="M 185.45 572.25 L 250.45 572.25 L 253.75 572.48 L 256.85 573.11 L 259.79 574.14 L 262.58 575.54 L 265.11 577.25 L 267.42 579.28 L 269.45 581.59 L 271.16 584.13 L 272.56 586.91 L 273.59 589.85 L 274.22 592.96 L 274.45 596.25 L 274.45 709.97 L 274.22 713.27 L 273.59 716.37 L 272.56 719.31 L 271.16 722.10 L 269.45 724.63 L 267.42 726.94 L 265.11 728.97 L 262.58 730.68 L 259.79 732.08 L 256.85 733.11 L 253.75 733.74 L 250.45 733.97 L 185.45 733.97 L 182.15 733.74 L 179.05 733.11 L 176.11 732.08 L 173.32 730.68 L 170.79 728.97 L 168.48 726.94 L 166.45 724.63 L 164.74 722.10 L 163.34 719.31 L 162.31 716.37 L 161.68 713.27 L 161.45 709.97 L 161.45 596.25 L 161.68 592.96 L 162.31 589.85 L 163.34 586.91 L 164.74 584.13 L 166.45 581.59 L 168.48 579.28 L 170.79 577.25 L 173.32 575.54 L 176.11 574.14 L 179.05 573.11 L 182.15 572.48 L 185.45 572.25 Z" fill="#f5b315" fill-rule="evenodd" group-id="1,3,10,26,51,57" node-id="262" stroke-linecap="butt" stroke-width="1" target-height="161.7143" target-width="113" target-x="161.45038" target-y="572.2544"></path></g></g><g node-id="537"><g clip-path="url(#mask-4_6)" group-id="1,3,10,26,51,58" node-id="265"><path d="M 195.25 597.20 L 233.75 597.20 L 237.40 597.54 L 240.74 598.45 L 243.84 599.93 L 246.65 601.92 L 249.03 604.30 L 251.02 607.11 L 252.50 610.20 L 253.41 613.55 L 253.75 617.20 L 253.75 689.88 L 253.41 693.53 L 252.50 696.88 L 251.02 699.98 L 249.03 702.78 L 246.65 705.17 L 243.84 707.15 L 240.74 708.63 L 237.40 709.54 L 233.75 709.88 L 195.25 709.88 L 191.60 709.54 L 188.26 708.63 L 185.16 707.15 L 182.35 705.17 L 179.97 702.78 L 177.98 699.98 L 176.50 696.88 L 175.59 693.53 L 175.25 689.88 L 175.25 617.20 L 175.59 613.55 L 176.50 610.20 L 177.98 607.11 L 179.97 604.30 L 182.35 601.92 L 185.16 599.93 L 188.26 598.45 L 191.60 597.54 L 195.25 597.20 Z" fill="#e38f00" fill-rule="evenodd" group-id="1,3,10,26,51,58" id="Rectangle-Copy-2" node-id="44" stroke-linecap="butt" stroke-width="1" target-height="112.68384" target-width="78.496185" target-x="175.2519" target-y="597.1997"></path></g></g><g node-id="538"><g clip-path="url(#mask-4_7)" group-id="1,3,10,26,51,59" node-id="269"><path d="M 198.70 600.64 L 237.20 600.64 L 240.85 600.98 L 244.19 601.89 L 247.29 603.37 L 250.10 605.36 L 252.48 607.74 L 254.47 610.55 L 255.95 613.64 L 256.86 616.99 L 257.20 620.64 L 257.20 689.02 L 256.86 692.67 L 255.95 696.02 L 254.47 699.12 L 252.48 701.92 L 250.10 704.31 L 247.29 706.29 L 244.19 707.77 L 240.85 708.68 L 237.20 709.02 L 198.70 709.02 L 195.05 708.68 L 191.71 707.77 L 188.61 706.29 L 185.80 704.31 L 183.42 701.92 L 181.43 699.12 L 179.95 696.02 L 179.04 692.67 L 178.70 689.02 L 178.70 620.64 L 179.04 616.99 L 179.95 613.64 L 181.43 610.55 L 183.42 607.74 L 185.80 605.36 L 188.61 603.37 L 191.71 601.89 L 195.05 600.98 L 198.70 600.64 Z" fill="#f5b315" fill-rule="evenodd" group-id="1,3,10,26,51,59" id="Rectangle-Copy-3" node-id="45" stroke-linecap="butt" stroke-width="1" target-height="108.382996" target-width="78.4962" target-x="178.70229" target-y="600.6404"></path></g></g><g clip-path="url(#mask-4_8)" group-id="1,3,10,26,51,60" node-id="273"><path d="M 199.95 621.28 L 229.05 621.28 L 230.61 621.60 L 231.87 622.46 L 232.73 623.72 L 233.05 625.28 L 233.05 629.33 L 232.73 630.90 L 231.87 632.16 L 230.61 633.01 L 229.05 633.33 L 199.95 633.33 L 198.39 633.01 L 197.13 632.16 L 196.27 630.90 L 195.95 629.33 L 195.95 625.28 L 196.27 623.72 L 197.13 622.46 L 198.39 621.60 L 199.95 621.28 Z" fill="#ffffff" fill-rule="evenodd" group-id="1,3,10,26,51,60" id="Rectangle" node-id="46" stroke-linecap="butt" stroke-width="1" target-height="12.0425415" target-width="37.091614" target-x="195.9542" target-y="621.2848"></path></g></g></g><path d="M 191.60 471.33 L 236.31 471.33" fill="none" group-id="1,3,10" id="Path-68" node-id="47" stroke="#56565f" stroke-linecap="round" stroke-width="11" target-height="0" target-width="44.70984" target-x="191.59686" target-y="471.3292"></path></g></g><g node-id="483"><path d="M 388.62 210.00 L 607.28 210.00 L 610.41 210.23 L 613.34 210.82 L 616.09 211.77 L 618.70 213.09 L 621.12 214.73 L 623.27 216.63 L 625.17 218.78 L 626.81 221.20 L 628.13 223.81 L 629.08 226.56 L 629.67 229.49 L 629.90 232.62 L 629.90 718.95 L 629.67 722.08 L 629.08 725.01 L 628.13 727.76 L 626.81 730.37 L 625.17 732.79 L 623.27 734.94 L 621.12 736.84 L 618.70 738.48 L 616.09 739.80 L 613.34 740.75 L 610.41 741.34 L 607.28 741.57 L 388.62 741.57 L 385.49 741.34 L 382.56 740.75 L 379.81 739.80 L 377.20 738.48 L 374.78 736.84 L 372.63 734.94 L 370.73 732.79 L 369.09 730.37 L 367.77 727.76 L 366.82 725.01 L 366.23 722.08 L 366.00 718.95 L 366.00 232.62 L 366.23 229.49 L 366.82 226.56 L 367.77 223.81 L 369.09 221.20 L 370.73 218.78 L 372.63 216.63 L 374.78 214.73 L 377.20 213.09 L 379.81 211.77 L 382.56 210.82 L 385.49 210.23 L 388.62 210.00 Z" fill="#4e94dd" fill-rule="evenodd" group-id="1,4" id="Rectangle" node-id="49" stroke-linecap="butt" stroke-width="1" target-height="531.57" target-width="263.90002" target-x="366" target-y="210"></path><g node-id="490"><g node-id="506"><path d="M 400.99 251.47 L 594.91 251.47 L 598.55 251.81 L 601.88 252.72 L 604.96 254.19 L 607.75 256.17 L 610.12 258.54 L 612.10 261.33 L 613.57 264.41 L 614.48 267.74 L 614.82 271.38 L 614.82 657.57 L 614.48 661.21 L 613.57 664.54 L 612.10 667.62 L 610.12 670.41 L 607.75 672.78 L 604.96 674.76 L 601.88 676.23 L 598.55 677.14 L 594.91 677.48 L 400.99 677.48 L 397.35 677.14 L 394.02 676.23 L 390.94 674.76 L 388.15 672.78 L 385.78 670.41 L 383.80 667.62 L 382.33 664.54 L 381.42 661.21 L 381.08 657.57 L 381.08 271.38 L 381.42 267.74 L 382.33 264.41 L 383.80 261.33 L 385.78 258.54 L 388.15 256.17 L 390.94 254.19 L 394.02 252.72 L 397.35 251.81 L 400.99 251.47 Z" fill="#f3f9ff" fill-rule="evenodd" group-id="1,4,11,27" node-id="286" stroke-linecap="butt" stroke-width="1" target-height="426.00998" target-width="233.74002" target-x="381.08" target-y="251.47"></path></g><g clip-path="url(#mask-6)" group-id="1,4,11,28" node-id="289"><path d="M 614.82 251.47 L 381.08 700.13 L 381.08 251.47 Z" fill="#a6d1ff" fill-opacity="0.1" fill-rule="evenodd" group-id="1,4,11,28" node-id="291" stroke-linecap="butt" stroke-opacity="0.1" stroke-width="1" target-height="448.66452" target-width="233.74002" target-x="381.08" target-y="251.47"></path></g></g><path d="M 516.80 705.75 L 516.51 708.85 L 515.74 711.69 L 514.48 714.32 L 512.80 716.70 L 510.78 718.72 L 508.40 720.40 L 505.77 721.66 L 502.93 722.43 L 499.84 722.72 L 496.74 722.43 L 493.90 721.66 L 491.27 720.40 L 488.89 718.72 L 486.87 716.70 L 485.19 714.32 L 483.93 711.69 L 483.16 708.85 L 482.87 705.75 L 483.16 702.66 L 483.93 699.82 L 485.19 697.19 L 486.87 694.81 L 488.89 692.79 L 491.27 691.11 L 493.90 689.85 L 496.74 689.08 L 499.84 688.79 L 502.93 689.08 L 505.77 689.85 L 508.40 691.11 L 510.78 692.79 L 512.80 694.81 L 514.48 697.19 L 515.74 699.82 L 516.51 702.66 L 516.80 705.75 Z" fill="#f3f9ff" fill-rule="evenodd" group-id="1,4" id="Oval" node-id="55" stroke-linecap="butt" stroke-width="1" target-height="33.929993" target-width="33.929993" target-x="482.87" target-y="688.79004"></path><path d="M 490.41 234.50 L 528.83 234.50" fill="none" group-id="1,4" id="Path-61" node-id="56" stroke="#f3f9ff" stroke-linecap="butt" stroke-width="3.77" target-height="0" target-width="38.415253" target-x="490.41" target-y="234.505"></path><path d="M 482.87 234.50 L 482.65 236.04 L 482.10 237.36 L 481.21 238.50 L 480.07 239.39 L 478.75 239.94 L 477.21 240.16 L 475.68 239.94 L 474.36 239.39 L 473.22 238.50 L 472.33 237.36 L 471.78 236.04 L 471.56 234.50 L 471.78 232.97 L 472.33 231.65 L 473.22 230.51 L 474.36 229.62 L 475.68 229.07 L 477.21 228.85 L 478.75 229.07 L 480.07 229.62 L 481.21 230.51 L 482.10 231.65 L 482.65 232.97 L 482.87 234.50 Z" fill="#f3f9ff" fill-rule="evenodd" group-id="1,4" id="Oval" node-id="57" stroke-linecap="butt" stroke-width="1" target-height="11.309998" target-width="11.309998" target-x="471.56" target-y="228.85"></path></g><g node-id="484"><g node-id="491"><g node-id="508"><path d="M 444.00 141.00 L 656.00 141.00 L 658.92 141.27 L 661.60 142.00 L 664.08 143.18 L 666.32 144.77 L 668.23 146.68 L 669.82 148.92 L 671.00 151.40 L 671.73 154.08 L 672.00 157.00 L 672.00 466.00 L 671.73 468.92 L 671.00 471.60 L 669.82 474.08 L 668.23 476.32 L 666.32 478.23 L 664.08 479.82 L 661.60 481.00 L 658.92 481.73 L 656.00 482.00 L 444.00 482.00 L 441.08 481.73 L 438.40 481.00 L 435.92 479.82 L 433.68 478.23 L 431.77 476.32 L 430.18 474.08 L 429.00 471.60 L 428.27 468.92 L 428.00 466.00 L 428.00 157.00 L 428.27 154.08 L 429.00 151.40 L 430.18 148.92 L 431.77 146.68 L 433.68 144.77 L 435.92 143.18 L 438.40 142.00 L 441.08 141.27 L 444.00 141.00 Z" fill="#000000" fill-rule="evenodd" filter="url(#filter-8)" group-id="1,5,12,29" node-id="303" stroke-linecap="butt" stroke-width="1" target-height="341" target-width="244" target-x="428" target-y="141"></path></g><path d="M 444.00 141.00 L 656.00 141.00 L 658.92 141.27 L 661.60 142.00 L 664.08 143.18 L 666.32 144.77 L 668.23 146.68 L 669.82 148.92 L 671.00 151.40 L 671.73 154.08 L 672.00 157.00 L 672.00 466.00 L 671.73 468.92 L 671.00 471.60 L 669.82 474.08 L 668.23 476.32 L 666.32 478.23 L 664.08 479.82 L 661.60 481.00 L 658.92 481.73 L 656.00 482.00 L 444.00 482.00 L 441.08 481.73 L 438.40 481.00 L 435.92 479.82 L 433.68 478.23 L 431.77 476.32 L 430.18 474.08 L 429.00 471.60 L 428.27 468.92 L 428.00 466.00 L 428.00 157.00 L 428.27 154.08 L 429.00 151.40 L 430.18 148.92 L 431.77 146.68 L 433.68 144.77 L 435.92 143.18 L 438.40 142.00 L 441.08 141.27 L 444.00 141.00 Z" fill="#f3f9ff" fill-rule="evenodd" group-id="1,5,12" node-id="306" stroke-linecap="butt" stroke-width="1" target-height="341" target-width="244" target-x="428" target-y="141"></path></g><path d="M 465.80 320.00 L 635.20 320.00 L 637.54 320.22 L 639.68 320.80 L 641.66 321.75 L 643.46 323.02 L 644.98 324.54 L 646.25 326.34 L 647.20 328.32 L 647.78 330.46 L 648.00 332.80 L 648.00 439.20 L 647.78 441.54 L 647.20 443.68 L 646.25 445.66 L 644.98 447.46 L 643.46 448.98 L 641.66 450.25 L 639.68 451.20 L 637.54 451.78 L 635.20 452.00 L 465.80 452.00 L 463.46 451.78 L 461.32 451.20 L 459.34 450.25 L 457.54 448.98 L 456.02 447.46 L 454.75 445.66 L 453.80 443.68 L 453.22 441.54 L 453.00 439.20 L 453.00 332.80 L 453.22 330.46 L 453.80 328.32 L 454.75 326.34 L 456.02 324.54 L 457.54 323.02 L 459.34 321.75 L 461.32 320.80 L 463.46 320.22 L 465.80 320.00 Z" fill="#ffffff" fill-rule="evenodd" group-id="1,5" id="Rectangle-Copy-6" node-id="62" stroke-linecap="butt" stroke-width="1" target-height="132" target-width="195" target-x="453" target-y="320"></path><path d="M 469.30 292.95 L 461.48 297.06 L 462.98 288.35 L 456.65 282.19 L 465.39 280.92 L 469.30 273.00 L 473.21 280.92 L 481.95 282.19 L 475.62 288.35 L 477.12 297.06 Z" fill="#ffb400" fill-rule="evenodd" group-id="1,5,13" node-id="311" stroke-linecap="butt" stroke-width="1" target-height="24.059937" target-width="25.298096" target-x="456.65094" target-y="273"></path><path d="M 509.90 292.95 L 502.08 297.06 L 503.58 288.35 L 497.25 282.19 L 505.99 280.92 L 509.90 273.00 L 513.81 280.92 L 522.55 282.19 L 516.22 288.35 L 517.72 297.06 Z" fill="#ffb400" fill-rule="evenodd" group-id="1,5,13" id="Star-Copy" node-id="65" stroke-linecap="butt" stroke-width="1" target-height="24.059937" target-width="25.298126" target-x="497.25095" target-y="273"></path><path d="M 550.50 292.95 L 542.68 297.06 L 544.18 288.35 L 537.85 282.19 L 546.59 280.92 L 550.50 273.00 L 554.41 280.92 L 563.15 282.19 L 556.82 288.35 L 558.32 297.06 Z" fill="#ffb400" fill-rule="evenodd" group-id="1,5,13" id="Star-Copy-2" node-id="66" stroke-linecap="butt" stroke-width="1" target-height="24.059937" target-width="25.298096" target-x="537.85095" target-y="273"></path><path d="M 591.10 292.95 L 583.28 297.06 L 584.78 288.35 L 578.45 282.19 L 587.19 280.92 L 591.10 273.00 L 595.01 280.92 L 603.75 282.19 L 597.42 288.35 L 598.92 297.06 Z" fill="#ffb400" fill-rule="evenodd" group-id="1,5,13" id="Star-Copy-3" node-id="67" stroke-linecap="butt" stroke-width="1" target-height="24.059937" target-width="25.298096" target-x="578.4509" target-y="273"></path><path d="M 631.70 292.95 L 623.88 297.06 L 625.38 288.35 L 619.05 282.19 L 627.79 280.92 L 631.70 273.00 L 635.61 280.92 L 644.35 282.19 L 638.02 288.35 L 639.52 297.06 Z" fill="#ffb400" fill-rule="evenodd" group-id="1,5,13" id="Star-Copy-4" node-id="68" stroke-linecap="butt" stroke-width="1" target-height="24.059937" target-width="25.298096" target-x="619.05096" target-y="273"></path><path d="M 588.00 215.50 L 587.79 219.39 L 587.23 223.11 L 586.31 226.67 L 585.05 230.10 L 582.86 234.45 L 580.19 238.41 L 577.02 242.02 L 573.41 245.19 L 569.45 247.86 L 565.10 250.05 L 561.67 251.31 L 558.11 252.23 L 554.39 252.79 L 550.50 253.00 L 546.61 252.79 L 542.89 252.23 L 539.33 251.31 L 535.90 250.05 L 531.55 247.86 L 527.59 245.19 L 523.98 242.02 L 520.81 238.41 L 518.14 234.45 L 515.95 230.10 L 514.69 226.67 L 513.77 223.11 L 513.21 219.39 L 513.00 215.50 L 513.21 211.61 L 513.77 207.89 L 514.69 204.33 L 515.95 200.90 L 518.14 196.55 L 520.81 192.59 L 523.98 188.98 L 527.59 185.81 L 531.55 183.14 L 535.90 180.95 L 539.33 179.69 L 542.89 178.77 L 546.61 178.21 L 550.50 178.00 L 554.39 178.21 L 558.11 178.77 L 561.67 179.69 L 565.10 180.95 L 569.45 183.14 L 573.41 185.81 L 577.02 188.98 L 580.19 192.59 L 582.86 196.55 L 585.05 200.90 L 586.31 204.33 L 587.23 207.89 L 587.79 211.61 L 588.00 215.50 Z" fill="#4e94dd" fill-rule="evenodd" group-id="1,5,14,30" node-id="320" stroke-linecap="butt" stroke-width="1" target-height="75" target-width="75" target-x="513" target-y="178"></path><g clip-path="url(#mask-10)" group-id="1,5,14,31" node-id="323"><path d="M 537.15 207.07 L 535.91 205.45 L 534.96 203.40 L 534.35 200.82 L 534.13 197.59 L 534.32 195.14 L 535.00 192.53 L 535.75 190.88 L 536.82 189.34 L 538.24 187.89 L 539.90 186.73 L 542.04 185.79 L 544.78 185.11 L 547.59 184.84 L 551.13 184.98 L 555.55 185.63 L 557.98 184.54 L 559.99 184.10 L 561.68 184.16 L 563.15 184.67 L 564.46 185.63 L 565.12 186.57 L 565.85 188.22 L 566.63 190.88 L 567.48 195.07 L 568.22 200.49 L 568.72 206.19 L 569.01 212.34 L 569.05 218.50 L 568.81 224.30 L 568.41 226.55 L 567.69 227.95 L 566.71 228.75 L 565.40 229.08 L 563.57 228.86 L 561.01 227.85 L 557.41 225.67 L 552.49 221.86 L 545.86 215.87 L 537.15 207.07 Z" fill="#3d2423" fill-rule="evenodd" group-id="1,5,14,31,52,61" node-id="327" stroke-linecap="butt" stroke-width="1" target-height="44.98471" target-width="34.920776" target-x="534.126" target-y="184.09818"></path><g clip-path="url(#mask-12)" group-id="1,5,14,31,52,62" node-id="330"><path d="M 555.09 185.01 L 556.98 186.77 L 558.41 188.75 L 559.43 190.98 L 560.04 193.53 L 560.21 196.45 L 559.88 199.82" fill="none" group-id="1,5,14,31,52,62" id="Path-94" node-id="79" stroke="#ffffff" stroke-linecap="butt" stroke-width="0.65000004" target-height="14.812286" target-width="5.114563" target-x="555.0928" target-y="185.01216"></path></g><path d="M 561.31 219.66 L 570.60 224.71 L 576.16 228.25 L 579.12 230.65 L 580.42 232.23 L 580.75 233.28 L 581.15 237.28 L 582.04 245.06 L 582.97 254.98 L 583.30 260.26 L 583.47 265.42 L 583.42 270.45 L 583.09 274.74 L 582.66 277.51 L 582.07 279.66 L 581.37 281.30 L 580.37 282.65 L 579.22 283.34 L 577.85 283.48 L 575.45 283.30 L 572.65 282.76 L 569.38 281.78 L 569.67 285.67 L 525.88 283.48 L 526.65 279.03 L 524.20 278.87 L 522.10 278.27 L 520.28 277.23 L 518.69 275.74 L 517.30 273.71 L 516.14 271.05 L 522.78 266.54 L 523.94 244.68 L 524.83 233.30 L 525.46 228.35 L 525.88 226.80 L 526.51 225.75 L 527.61 224.51 L 529.07 223.39 L 531.42 222.19 L 534.25 221.24 L 538.45 220.38 L 543.21 219.87 L 549.81 219.66 L 561.31 219.66 Z" fill="#13bb84" fill-rule="evenodd" group-id="1,5,14,31,53,63,68" node-id="338" stroke-linecap="butt" stroke-width="1" target-height="66.00687" target-width="67.333984" target-x="516.1394" target-y="219.65921"></path><g clip-path="url(#mask-14)" group-id="1,5,14,31,53,63,69" node-id="341"><path d="M 545.58 219.66 L 544.40 224.64 L 543.59 230.20 L 543.18 236.42 L 543.23 243.36 L 543.79 251.09 L 544.93 259.71 L 546.70 269.27 L 548.48 258.63 L 550.22 250.54 L 551.90 244.54 L 553.49 240.23 L 554.97 237.27 L 559.37 229.90 L 562.81 224.18 L 564.68 221.05 L 564.98 220.15 L 564.80 219.45 L 564.09 218.84 L 562.53 218.31 L 559.59 217.96 L 554.59 217.97 L 546.70 218.57 L 545.58 219.66 Z" fill="#ffffff" fill-rule="evenodd" group-id="1,5,14,31,53,63,69" node-id="343" stroke-linecap="butt" stroke-width="1" target-height="51.316956" target-width="21.801636" target-x="543.1821" target-y="217.95743"></path></g><path d="M 530.12 233.80 L 530.76 250.58 L 530.66 261.07 L 530.12 267.08 L 529.06 274.36 L 528.58 276.24 L 527.92 277.51 L 527.10 278.33 L 526.05 278.73 L 524.44 278.72 L 521.96 278.06 L 520.13 276.90 L 518.57 275.40 L 517.24 273.51 L 516.16 271.16 L 522.93 266.47 L 527.09 268.12" fill="none" group-id="1,5,14,31,53" id="Path-117" node-id="86" stroke="#201f1d" stroke-linecap="butt" stroke-width="0.65000004" target-height="44.935883" target-width="14.600342" target-x="516.16376" target-y="233.79861"></path><path d="M 549.19 258.29 L 547.72 264.42 L 541.39 264.03 L 540.60 265.10 L 539.36 265.82 L 537.51 266.17 L 534.77 266.02 L 528.77 254.60 L 533.90 254.38 L 538.57 254.69 L 542.83 255.49 L 549.19 258.29 Z" fill="#ffa990" fill-rule="evenodd" group-id="1,5,14,31,53" id="Path-108" node-id="87" stroke-linecap="butt" stroke-width="1" target-height="11.789902" target-width="20.423157" target-x="528.7686" target-y="254.38332"></path><path d="M 516.85 270.36 L 515.06 268.77 L 514.19 267.49 L 513.94 266.41 L 511.99 264.69 L 511.12 263.45 L 510.93 262.54 L 509.71 260.32 L 509.19 258.36 L 509.24 256.57 L 509.83 253.87 L 510.54 251.44 L 514.69 246.10 L 515.15 247.60 L 515.12 248.74 L 514.69 249.64 L 512.56 252.66 L 511.79 256.57 L 517.21 251.44 L 520.96 249.44 L 521.24 250.51 L 521.07 251.47 L 520.42 252.43 L 519.10 253.43 L 513.75 259.25 L 517.61 257.76 L 519.59 256.85 L 521.24 255.84 L 522.71 255.02 L 523.31 254.92 L 523.72 255.14 L 523.94 255.86 L 523.58 256.83 L 522.79 257.77 L 521.49 258.77 L 517.21 261.59 L 520.42 260.64 L 522.77 259.54 L 524.22 258.98 L 524.81 259.10 L 525.12 259.54 L 525.10 260.05 L 524.20 260.92 L 518.71 264.71 L 520.32 265.19 L 521.50 265.81 L 522.36 266.54 L 516.85 270.36 Z" fill="#ffa990" fill-rule="evenodd" group-id="1,5,14,31,53" id="Path-106" node-id="88" stroke-linecap="butt" stroke-width="1" target-height="24.263779" target-width="15.932159" target-x="509.1862" target-y="246.09624"></path><path d="M 576.72 271.72 L 575.10 270.29 L 573.04 268.90 L 570.45 267.55 L 561.23 263.41 L 557.21 261.37 L 549.81 257.23 L 548.51 261.52 L 547.72 265.02 L 552.08 269.38 L 557.10 273.62 L 562.82 277.73 L 569.30 281.71" fill="none" group-id="1,5,14,31,53" id="Path-104" node-id="89" stroke="#201f1d" stroke-linecap="butt" stroke-width="0.65000004" target-height="24.480286" target-width="29.001526" target-x="547.7211" target-y="257.23376"></path><path d="M 566.72 242.93 L 569.37 267.08" fill="none" group-id="1,5,14,31,53" id="Path-116" node-id="90" stroke="#201f1d" stroke-linecap="butt" stroke-width="0.65000004" target-height="24.148392" target-width="2.6520996" target-x="566.7175" target-y="242.93489"></path><path d="M 559.19 206.89 L 559.67 206.39 L 559.99 205.63 L 560.41 203.89 L 560.95 202.34 L 561.25 200.80 L 561.00 199.84 L 560.36 199.20 L 559.46 198.85 L 558.42 198.82 L 557.41 199.11 L 556.56 199.74 L 556.03 200.67 L 555.78 201.83 L 555.75 204.06 L 555.73 204.93 L 555.62 205.12 L 555.09 204.59 L 552.99 200.80 L 549.30 199.47 L 543.53 196.67 L 541.19 197.67 L 538.82 198.01 L 536.35 197.72 L 536.23 200.56 L 535.97 202.02 L 535.67 202.64 L 537.37 208.31 L 539.09 212.65 L 540.81 215.89 L 542.50 218.23 L 544.18 219.85 L 545.84 220.89 L 547.52 221.44 L 546.51 224.88 L 546.15 227.42 L 546.25 229.27 L 546.69 230.61 L 547.43 231.57 L 548.47 232.24 L 549.55 232.48 L 550.78 232.41 L 552.26 231.97 L 554.38 230.86 L 556.63 229.19 L 558.67 227.18 L 560.43 224.94 L 561.79 222.53 L 562.53 220.26 L 559.19 210.93 L 559.05 209.55 L 559.19 206.89 Z" fill="#ffa990" fill-rule="evenodd" group-id="1,5,14,31,54,64" node-id="355" stroke-linecap="butt" stroke-width="1" target-height="35.81729" target-width="26.85614" target-x="535.67175" target-y="196.66554"></path><g clip-path="url(#mask-16)" group-id="1,5,14,31,54,65" node-id="358"><path d="M 546.53 221.27 L 548.63 221.50 L 550.61 221.16 L 552.53 220.22 L 554.44 218.58 L 556.39 216.06 L 555.81 217.92 L 554.80 219.59 L 553.33 221.12 L 551.32 222.51 L 549.29 223.90 L 547.71 225.45 L 546.58 227.20 L 546.15 228.88 L 546.24 229.97 L 546.72 231.02 L 547.66 232.06 L 549.65 233.55 L 549.71 233.79 L 548.57 233.51 L 547.25 232.83 L 546.20 231.95 L 545.40 230.83 L 544.93 229.57 L 544.88 228.23 L 545.26 226.75 L 546.22 223.88 L 546.53 221.27 Z" fill="#e79279" fill-rule="evenodd" group-id="1,5,14,31,54,65" id="Path-103" node-id="95" stroke-linecap="butt" stroke-width="1" target-height="17.730362" target-width="11.514709" target-x="544.8788" target-y="216.05946"></path></g></g><path d="M 466.00 356.50 L 635.76 356.50" fill="none" group-id="1,5,15" id="Path-5" node-id="97" stroke="#b9dbff" stroke-linecap="butt" stroke-width="6" target-height="0" target-width="169.75885" target-x="466" target-y="356.5"></path><path d="M 466.00 376.50 L 575.76 376.50" fill="none" group-id="1,5,15" id="Path-5-Copy" node-id="98" stroke="#b9dbff" stroke-linecap="butt" stroke-width="6" target-height="0" target-width="109.75885" target-x="466" target-y="376.5"></path><path d="M 466.00 396.50 L 615.76 396.50" fill="none" group-id="1,5,15" id="Path-5-Copy-2" node-id="99" stroke="#b9dbff" stroke-linecap="butt" stroke-width="6" target-height="0" target-width="149.75885" target-x="466" target-y="396.5"></path><path d="M 466.00 416.50 L 557.76 416.50" fill="none" group-id="1,5,15" id="Path-5-Copy-3" node-id="100" stroke="#b9dbff" stroke-linecap="butt" stroke-width="6" target-height="0" target-width="91.75885" target-x="466" target-y="416.5"></path></g><g node-id="485"><path d="M 570.45 706.99 L 572.23 697.69 L 574.71 688.02 L 577.92 677.94 L 581.90 667.44 L 586.72 656.47 L 592.42 645.01 L 599.07 633.03 L 606.73 620.49" fill="none" group-id="1,6" id="Path-50" node-id="102" stroke="#aac9f1" stroke-linecap="butt" stroke-width="0.9" target-height="86.50128" target-width="36.28711" target-x="570.445" target-y="620.48944"></path><path d="M 567.28 706.99 L 567.71 692.43 L 568.61 679.39 L 569.90 667.77 L 571.56 657.43 L 573.53 648.27 L 575.77 640.19 L 578.26 633.08 L 580.96 626.86 L 583.85 621.43" fill="none" group-id="1,6" id="Path-51" node-id="103" stroke="#aac9f1" stroke-linecap="butt" stroke-width="0.9" target-height="85.56195" target-width="16.56659" target-x="567.279" target-y="621.4288"></path><path d="M 567.28 705.38 L 565.69 681.68 L 563.92 662.11 L 562.02 646.14 L 560.04 633.31 L 558.02 623.18" fill="none" group-id="1,6" id="Path-52" node-id="104" stroke="#aac9f1" stroke-linecap="butt" stroke-width="0.9" target-height="82.20209" target-width="9.256836" target-x="558.02216" target-y="623.17505"></path><path d="M 565.63 706.99 L 566.16 703.64 L 566.16 699.91 L 565.57 695.73 L 564.31 691.01 L 562.25 685.68 L 559.27 679.63 L 555.21 672.78 L 549.91 665.03 L 543.18 656.29 L 534.82 646.44" fill="none" group-id="1,6" id="Path-53" node-id="105" stroke="#aac9f1" stroke-linecap="butt" stroke-width="0.9" target-height="60.553833" target-width="31.345764" target-x="534.8152" target-y="646.4369"></path><g node-id="495"><g node-id="511"><path d="M 589.95 649.93 L 593.86 640.61 L 598.12 631.95 L 602.72 623.89 L 607.65 616.41 L 612.90 609.48 L 618.49 603.06 L 624.41 597.14 L 630.68 591.69 L 637.31 586.71 L 644.32 582.17 L 651.72 578.07 L 659.55 574.42 L 667.82 571.21 L 676.57 568.45 L 685.83 566.15 L 695.63 564.33 L 706.01 563.01 L 717.01 562.22 L 705.42 571.61 L 698.24 577.98 L 694.24 582.09 L 690.37 587.05 L 687.47 591.50 L 683.17 598.98 L 681.89 600.91 L 680.85 601.99 L 679.98 602.49 L 667.61 604.47 L 663.17 609.81 L 659.21 613.89 L 655.67 616.91 L 652.51 619.03 L 649.67 620.42 L 647.09 621.19 L 644.72 621.43 L 639.82 624.88 L 635.04 627.70 L 630.36 629.92 L 625.76 631.60 L 621.22 632.76 L 616.71 633.43 L 612.96 634.04 L 609.22 635.16 L 605.47 636.82 L 601.69 639.06 L 597.85 641.94 L 593.94 645.54 L 589.95 649.93 Z" fill="#e4f0ff" fill-rule="evenodd" group-id="1,6,16,32" node-id="379" stroke-linecap="butt" stroke-width="1" target-height="87.710205" target-width="127.06268" target-x="589.94824" target-y="562.2206"></path></g><g node-id="512"><g clip-path="url(#mask-18_4)" group-id="1,6,16,33" node-id="382"><path d="M 599.10 629.58 L 599.70 629.28 L 601.59 627.95 L 603.88 626.39 L 607.33 624.36 L 611.28 622.51 L 616.39 620.78 L 620.00 619.94 L 624.12 619.38 L 628.83 619.15 L 633.52 619.34 L 638.79 620.08 L 644.72 621.43" fill="none" group-id="1,6,16,33" id="Path-48" node-id="110" stroke="#f1f7ff" stroke-linecap="butt" stroke-width="0.9" target-height="10.431213" target-width="45.616943" target-x="599.10016" target-y="619.1469"></path></g></g><g node-id="513"><g clip-path="url(#mask-18_5)" group-id="1,6,16,34" node-id="386"><path d="M 613.81 604.50 L 622.23 602.07 L 630.06 600.40 L 637.35 599.44 L 644.14 599.12 L 650.50 599.41 L 656.47 600.27 L 662.08 601.67 L 667.39 603.60 L 672.42 606.08" fill="none" group-id="1,6,16,34" id="Path-58" node-id="111" stroke="#f1f7ff" stroke-linecap="butt" stroke-width="0.9" target-height="6.9536743" target-width="58.60205" target-x="613.8133" target-y="599.122"></path></g></g><g clip-path="url(#mask-18_6)" group-id="1,6,16,35" node-id="390"><path d="M 631.23 587.63 L 634.23 586.02 L 637.52 584.41 L 642.60 582.17 L 648.27 579.97 L 655.39 577.60 L 662.99 575.54 L 671.69 573.77 L 677.64 572.93 L 683.92 572.39 L 690.54 572.20 L 697.15 572.41 L 703.97 573.12 L 711.02 574.35" fill="none" group-id="1,6,16,35" id="Path-59" node-id="112" stroke="#f1f7ff" stroke-linecap="butt" stroke-width="0.9" target-height="15.432007" target-width="79.783325" target-x="631.2349" target-y="572.195"></path></g></g><g node-id="496"><g node-id="515"><path d="M 561.35 640.19 L 556.64 636.47 L 552.55 632.62 L 549.03 628.62 L 546.05 624.48 L 543.56 620.17 L 541.56 615.68 L 540.03 610.99 L 538.96 606.08 L 537.86 600.38 L 536.87 596.49 L 534.87 590.71 L 533.36 586.62 L 532.92 584.63 L 532.72 582.09 L 532.82 579.24 L 533.33 575.01 L 535.10 564.72 L 535.86 560.07 L 536.35 555.63 L 536.47 551.17 L 536.09 546.38 L 535.53 543.19 L 534.63 539.62 L 533.33 535.62 L 532.36 532.39 L 531.83 529.53 L 531.69 526.99 L 532.00 523.26 L 532.81 520.05 L 533.99 517.06 L 535.31 514.46 L 537.82 509.89 L 538.66 507.81 L 538.96 506.00 L 541.94 508.48 L 544.63 511.46 L 547.06 515.01 L 549.20 519.19 L 551.04 524.08 L 552.56 529.79 L 554.14 535.85 L 555.96 541.13 L 558.04 546.11 L 560.08 550.46 L 563.84 558.21 L 565.30 561.73 L 566.22 564.83 L 566.68 568.03 L 566.85 571.52 L 566.82 578.53 L 566.88 581.94 L 567.16 584.94 L 567.55 586.85 L 568.14 588.44 L 568.91 589.77 L 570.04 591.48 L 570.96 593.44 L 571.66 595.70 L 572.04 598.04 L 572.14 600.87 L 571.90 604.27 L 571.36 607.64 L 570.39 611.72 L 568.91 616.62 L 564.36 630.52 L 561.35 640.19 Z" fill="#e4f0ff" fill-rule="evenodd" group-id="1,6,17,36" node-id="397" stroke-linecap="butt" stroke-width="1" target-height="134.19348" target-width="40.456238" target-x="531.6871" target-y="506"></path></g><g clip-path="url(#mask-20)" group-id="1,6,17,37" node-id="400"><path d="M 538.96 506.00 L 542.40 521.50 L 544.49 533.05 L 545.56 541.39 L 545.86 547.20 L 545.87 555.95 L 546.00 560.21 L 546.29 564.66 L 546.80 569.22 L 547.66 574.39 L 548.82 579.78 L 550.52 586.20 L 552.77 594.78 L 555.30 606.24 L 558.16 621.17 L 561.35 640.19" fill="none" group-id="1,6,17,37" node-id="402" stroke="#ffffff" stroke-linecap="butt" stroke-width="0.9" target-height="134.19348" target-width="22.391052" target-x="538.9598" target-y="506"></path></g></g><g node-id="497"><g node-id="517"><path d="M 558.02 676.94 L 554.61 664.90 L 550.81 653.71 L 546.66 643.31 L 542.17 633.66 L 537.34 624.72 L 532.19 616.44 L 526.73 608.80 L 520.95 601.74 L 514.85 595.25 L 508.42 589.29 L 501.66 583.86 L 494.55 578.92 L 487.07 574.48 L 479.20 570.52 L 470.91 567.04 L 462.18 564.04 L 462.02 568.25 L 462.47 572.31 L 463.53 576.26 L 465.22 580.15 L 467.60 584.01 L 470.75 587.87 L 474.75 591.74 L 479.73 595.64 L 478.39 598.75 L 477.76 601.62 L 477.74 604.32 L 478.30 606.93 L 479.49 609.50 L 481.37 612.08 L 484.08 614.71 L 487.80 617.39 L 492.74 620.13 L 499.12 622.90 L 501.90 624.67 L 504.67 627.04 L 507.44 630.12 L 510.22 634.01 L 513.00 638.84 L 515.78 644.75 L 517.60 648.28 L 520.14 651.91 L 523.52 655.67 L 527.86 659.58 L 533.31 663.65 L 540.03 667.90 L 548.20 672.33 L 558.02 676.94 Z" fill="#b6d6ff" fill-rule="evenodd" group-id="1,6,18,38" node-id="408" stroke-linecap="butt" stroke-width="1" target-height="112.8952" target-width="96.00531" target-x="462.01685" target-y="564.0418"></path></g><g node-id="518"><g clip-path="url(#mask-22_5)" group-id="1,6,18,39" node-id="411"><path d="M 553.49 659.98 L 523.41 657.73" fill="none" group-id="1,6,18,39" id="Path-47" node-id="122" stroke="#c3ddff" stroke-linecap="butt" stroke-width="0.9" target-height="2.2530518" target-width="30.087952" target-x="523.40594" target-y="657.73114"></path></g></g><g node-id="519"><g clip-path="url(#mask-22_6)" group-id="1,6,18,40" node-id="415"><path d="M 547.33 643.90 L 507.64 638.13" fill="none" group-id="1,6,18,40" id="Path-49" node-id="123" stroke="#c3ddff" stroke-linecap="butt" stroke-width="0.9" target-height="5.7664185" target-width="39.687073" target-x="507.63867" target-y="638.1318"></path></g></g><g node-id="520"><g clip-path="url(#mask-22_7)" group-id="1,6,18,41" node-id="419"><path d="M 538.45 625.68 L 494.36 621.43" fill="none" group-id="1,6,18,41" id="Path-56" node-id="124" stroke="#c3ddff" stroke-linecap="butt" stroke-width="0.9" target-height="4.246765" target-width="44.08612" target-x="494.36383" target-y="621.4288"></path></g></g><g clip-path="url(#mask-22_8)" group-id="1,6,18,42" node-id="423"><path d="M 525.79 606.08 L 491.38 598.32 L 473.86 594.54" fill="none" group-id="1,6,18,42" id="Path-57" node-id="125" stroke="#c3ddff" stroke-linecap="butt" stroke-width="0.9" target-height="11.53302" target-width="51.927338" target-x="473.86002" target-y="594.54266"></path></g></g><g node-id="498"><g node-id="522"><path d="M 574.52 643.90 L 573.21 639.03 L 572.59 634.87 L 572.54 631.33 L 572.98 628.29 L 573.86 625.67 L 575.16 623.40 L 576.89 621.43 L 578.25 619.24 L 579.26 616.77 L 579.90 613.99 L 580.15 610.84 L 579.97 607.25 L 579.28 603.15 L 578.87 600.25 L 578.87 597.77 L 579.23 595.64 L 580.34 592.62 L 581.95 589.96 L 583.90 587.51 L 586.01 585.13 L 588.08 582.74 L 589.95 580.19 L 590.48 576.14 L 591.44 572.81 L 592.78 570.10 L 594.47 567.90 L 596.53 566.14 L 599.01 564.79 L 601.37 563.50 L 603.76 561.61 L 606.19 558.98 L 608.68 555.48 L 611.22 550.94 L 613.81 545.19 L 616.86 550.65 L 619.01 555.54 L 620.38 559.93 L 621.08 563.89 L 621.19 567.48 L 620.77 570.78 L 619.83 573.82 L 618.39 576.67 L 616.40 579.36 L 613.81 581.92 L 612.71 587.46 L 611.18 592.20 L 609.26 596.24 L 606.98 599.67 L 604.33 602.57 L 602.59 604.39 L 601.40 605.99 L 600.65 607.38 L 599.92 609.58 L 599.67 611.63 L 599.70 615.83 L 599.56 618.02 L 599.01 620.49 L 597.95 622.66 L 595.61 625.76 L 591.41 630.08 L 584.65 635.99 L 574.52 643.90 Z" fill="#b6d6ff" fill-rule="evenodd" group-id="1,6,19,43" node-id="430" stroke-linecap="butt" stroke-width="1" target-height="98.71106" target-width="48.65027" target-x="572.5398" target-y="545.18713"></path></g><g clip-path="url(#mask-24)" group-id="1,6,19,44" node-id="433"><path d="M 613.81 545.19 L 610.39 559.39 L 608.26 566.55 L 606.04 572.41 L 603.95 577.31 L 599.95 585.72 L 596.86 592.35 L 590.92 606.38 L 585.99 617.51 L 578.14 634.70 L 575.51 640.85 L 574.52 643.90" fill="none" group-id="1,6,19,44" node-id="435" stroke="#ffffff" stroke-linecap="butt" stroke-width="0.9" target-height="98.71106" target-width="39.28839" target-x="574.52484" target-y="545.18713"></path></g></g><g node-id="499"><g node-id="524"><g node-id="534"><g node-id="545"><path d="M 544.87 694.82 L 592.28 694.82 L 587.29 741.85 L 549.86 741.85 Z" fill="#f3f9ff" fill-rule="evenodd" group-id="1,6,20,45,55,66" node-id="443" stroke-linecap="butt" stroke-width="1" target-height="47.032776" target-width="47.4068" target-x="544.8707" target-y="694.8171"></path></g><g clip-path="url(#mask-26)" group-id="1,6,20,45,55,67" node-id="446"><path d="M 592.28 701.70 L 543.50 715.79 L 543.50 700.10 Z" fill="#c0e0ff" fill-rule="evenodd" group-id="1,6,20,45,55,67" node-id="448" stroke-linecap="butt" stroke-width="1" target-height="15.692261" target-width="48.772705" target-x="543.5048" target-y="700.1019"></path></g></g><path d="M 539.88 687.35 L 597.27 687.35 L 597.27 702.29 L 539.88 702.29 Z" fill="#f3f9ff" fill-rule="evenodd" group-id="1,6,20,45" id="Rectangle" node-id="138" stroke-linecap="butt" stroke-width="1" target-height="14.943481" target-width="57.387207" target-x="539.88055" target-y="687.34534"></path></g></g></g><g node-id="486"><g node-id="500"><path d="M 440.38 360.07 L 449.24 347.76 L 455.43 326.16 L 472.88 307.60 L 474.74 306.05 L 475.92 305.42 L 476.66 305.34 L 477.15 305.61 L 477.47 306.38 L 477.23 307.74 L 476.00 310.12 L 466.47 322.72 L 468.70 324.10 L 470.03 325.37 L 470.72 326.56 L 470.91 327.72 L 472.27 329.32 L 473.00 330.90 L 473.22 332.53 L 474.28 334.85 L 475.13 338.22 L 475.07 339.38 L 474.37 341.06 L 472.68 343.51 L 469.52 347.02 L 464.31 351.89 L 452.07 369.59 L 440.38 360.07 Z" fill="#ffa990" fill-rule="evenodd" group-id="1,7,21" id="Path-158" node-id="141" stroke-linecap="butt" stroke-width="1" target-height="64.24582" target-width="37.095306" target-x="440.3767" target-y="305.34036"></path><path d="M 467.47 321.50 L 464.40 325.04" fill="none" group-id="1,7,21" id="Path-159" node-id="142" stroke="#062721" stroke-linecap="butt" stroke-width="1" target-height="3.538025" target-width="3.0731812" target-x="464.39886" target-y="321.50287"></path><path d="M 470.91 327.72 L 469.32 329.62" fill="none" group-id="1,7,21" id="Path-160" node-id="143" stroke="#062721" stroke-linecap="butt" stroke-width="1" target-height="1.8929443" target-width="1.5896606" target-x="469.32227" target-y="327.72302"></path><path d="M 473.22 332.53 L 472.24 334.29" fill="none" group-id="1,7,21" id="Path-161" node-id="144" stroke="#062721" stroke-linecap="butt" stroke-width="1" target-height="1.7653809" target-width="0.9839783" target-x="472.23697" target-y="332.52866"></path></g><path d="M 411.97 371.69 L 409.34 373.79 L 406.93 376.42 L 404.72 379.64 L 402.73 383.56 L 400.99 388.27 L 399.53 393.89 L 398.41 400.56 L 397.68 408.41 L 397.42 417.61" fill="none" group-id="1,7" id="Path-63" node-id="145" stroke="#5a271d" stroke-linecap="butt" stroke-width="4" target-height="45.917908" target-width="14.557068" target-x="397.41742" target-y="371.68835"></path><path d="M 395.41 415.66 L 437.27 423.93 L 447.65 469.55 L 447.78 471.19 L 447.53 472.68 L 446.88 474.08 L 445.90 475.27 L 444.67 476.15 L 443.13 476.73 L 442.44 476.85 L 417.79 479.50 L 416.36 479.49 L 414.97 479.13 L 388.16 468.66 L 388.16 468.66 L 395.41 415.66 Z" fill="#aa5849" fill-rule="evenodd" group-id="1,7,22,46" node-id="466" stroke-linecap="butt" stroke-width="1" target-height="63.842896" target-width="59.62912" target-x="388.15536" target-y="415.66064"></path><g clip-path="url(#mask-28_4)" group-id="1,7,22,47" node-id="469"><path d="M 437.27 423.93 L 426.29 427.31 L 395.41 415.66" fill="none" group-id="1,7,22,47" node-id="471" stroke="#5a271d" stroke-linecap="butt" stroke-width="1" target-height="11.652466" target-width="41.857513" target-x="395.40753" target-y="415.66064"></path></g><g clip-path="url(#mask-28_5)" group-id="1,7,22,48" node-id="474"><path d="M 431.80 425.64 L 398.44 416.41" fill="none" group-id="1,7,22,48" id="Path-64" node-id="151" stroke="#5a271d" stroke-linecap="butt" stroke-width="1" target-height="9.233368" target-width="33.363617" target-x="398.44125" target-y="416.4057"></path></g><g clip-path="url(#mask-28_6)" group-id="1,7,22,49" node-id="478"><path d="M 426.29 427.31 L 417.63 477.48" fill="none" group-id="1,7,22,49" id="Path-66" node-id="152" stroke="#5a271d" stroke-linecap="butt" stroke-width="1" target-height="50.16388" target-width="8.655609" target-x="417.63266" target-y="427.3131"></path></g><path d="M 366.42 326.27 L 384.38 344.64 L 420.01 380.69 L 443.90 351.44 L 460.87 364.19 L 452.94 378.20 L 446.33 388.99 L 440.87 397.07 L 436.39 402.93 L 432.75 406.99 L 429.81 409.65 L 427.44 411.23 L 425.57 411.91 L 423.22 412.12 L 420.25 411.74 L 416.48 410.60 L 411.70 408.48 L 405.72 405.10 L 398.28 400.14 L 389.14 393.27 L 378.03 384.08 L 383.46 402.37 L 387.35 414.35 L 389.55 421.73 L 391.81 431.79 L 394.08 445.10 L 320.54 444.71 L 320.37 438.16 L 288.64 438.16 L 287.22 437.88 L 285.92 436.99 L 284.68 435.33 L 283.50 432.56 L 282.46 428.29 L 281.66 422.01 L 281.26 413.14 L 281.40 401.03 L 282.29 384.98 L 284.13 364.17 L 287.14 337.74 L 287.14 337.74 L 287.36 338.19 L 288.12 334.36 L 289.38 330.99 L 291.14 328.03 L 293.40 325.40 L 296.23 323.09 L 299.69 321.08 L 303.88 319.40 L 315.04 317.63 L 324.75 316.63 L 333.17 316.29 L 340.43 316.52 L 346.66 317.23 L 352.00 318.37 L 356.55 319.88 L 360.41 321.71 L 363.68 323.84 L 366.42 326.27 Z M 309.87 402.32 L 307.91 414.94 L 314.97 415.07 L 312.78 409.34 L 309.87 402.32 Z" fill="#13bb84" fill-rule="evenodd" group-id="1,7,23" id="Combined-Shape" node-id="154" stroke-linecap="butt" stroke-width="1" target-height="128.80878" target-width="179.61295" target-x="281.256" target-y="316.2874"></path><path d="M 298.92 376.91 L 304.73 389.00 L 309.45 399.87 L 313.19 409.62 L 316.05 418.34 L 318.13 426.12 L 319.51 433.05 L 320.29 439.22 L 320.54 444.71 L 353.61 444.90" fill="none" group-id="1,7,23" id="Path-39" node-id="155" stroke="#201f1d" stroke-linecap="butt" stroke-width="1" target-height="67.99164" target-width="54.695953" target-x="298.9161" target-y="376.90833"></path><path d="M 358.60 370.08 L 399.88 401.00" fill="none" group-id="1,7,23" id="Path-40" node-id="156" stroke="#201f1d" stroke-linecap="butt" stroke-width="1" target-height="30.920807" target-width="41.27939" target-x="358.59656" target-y="370.084"></path><path d="M 443.90 351.44 L 420.01 380.69" fill="none" group-id="1,7,23" id="Path-41" node-id="157" stroke="#201f1d" stroke-linecap="butt" stroke-width="1" target-height="29.249146" target-width="23.89505" target-x="420.00842" target-y="351.4419"></path><path d="M 356.46 576.32 L 354.17 588.34 L 352.67 599.04 L 351.87 608.51 L 351.68 616.89 L 352.04 624.28 L 352.87 630.79 L 353.68 636.97 L 354.22 645.21 L 354.41 655.93 L 354.13 669.60 L 353.26 686.72 L 351.69 707.83 L 371.49 731.94 L 375.97 731.94 L 373.04 724.09 L 371.49 718.92 L 370.52 713.96 L 369.91 707.83 L 386.90 576.32 L 356.46 576.32 Z" fill="#ffa990" fill-rule="evenodd" group-id="1,7,24,50" id="Path-34" node-id="160" stroke-linecap="butt" stroke-width="1" target-height="155.6253" target-width="35.215485" target-x="351.68073" target-y="576.31775"></path><path d="M 351.51 741.28 L 348.20 715.71 L 348.53 709.70 L 349.22 705.55 L 350.14 702.81 L 351.20 701.10 L 352.37 700.12 L 353.67 699.70 L 355.21 699.81 L 356.23 700.28 L 357.27 701.16 L 358.35 702.60 L 359.72 705.08 L 361.15 708.34 L 363.83 715.54 L 366.63 722.69 L 368.20 725.87 L 369.77 728.28 L 371.00 729.61 L 372.23 730.42 L 373.48 730.81 L 376.01 731.39 L 377.95 732.40 L 379.41 733.80 L 380.47 735.66 L 381.12 738.10 L 381.27 741.28 L 362.04 741.28 L 355.21 727.24 L 353.60 741.28 L 351.51 741.28 Z" fill="#201f1d" fill-rule="evenodd" group-id="1,7,24,50" id="Path-35" node-id="161" stroke-linecap="butt" stroke-width="1" target-height="41.575073" target-width="33.077118" target-x="348.1977" target-y="699.70496"></path><path d="M 317.75 576.32 L 315.90 596.04 L 311.98 601.03 L 308.64 606.12 L 305.83 611.34 L 303.54 616.69 L 301.75 622.19 L 300.46 627.86 L 299.66 633.73 L 298.66 641.43 L 296.74 651.35 L 293.67 663.91 L 289.21 679.58 L 283.10 698.84 L 300.83 730.94 L 307.65 732.92 L 304.59 728.12 L 302.75 724.59 L 301.80 722.06 L 301.24 719.43 L 300.90 715.95 L 300.83 711.44 L 316.11 667.63 L 323.27 647.73 L 327.87 636.04 L 331.57 627.61 L 335.12 620.26 L 337.55 615.57 L 339.58 611.69 L 340.32 609.96 L 350.04 576.32 L 317.75 576.32 Z" fill="#ffa990" fill-rule="evenodd" group-id="1,7,24,50" id="Path-37" node-id="162" stroke-linecap="butt" stroke-width="1" target-height="156.59778" target-width="66.939545" target-x="283.09695" target-y="576.31775"></path><path d="M 283.10 698.84 L 280.61 702.85 L 278.79 706.59 L 277.56 710.08 L 276.85 713.37 L 276.63 716.49 L 276.63 741.28 L 283.10 741.28 L 285.12 722.07 L 287.20 730.05 L 288.93 735.28 L 290.37 738.47 L 291.54 740.23 L 292.49 741.05 L 293.30 741.28 L 309.43 741.28 L 310.50 739.69 L 310.98 738.24 L 310.95 736.86 L 310.44 735.47 L 309.33 734.00 L 307.44 732.41 L 305.30 730.52 L 303.09 727.84 L 301.11 724.80 L 299.28 721.46 L 297.68 718.03 L 296.41 714.86 L 295.41 711.80 L 294.88 709.57 L 294.51 707.91 L 293.86 705.84 L 292.94 703.78 L 291.70 701.79 L 290.11 700.10 L 288.12 698.84 L 286.86 698.49 L 285.23 698.46 L 283.10 698.84 Z" fill="#201f1d" fill-rule="evenodd" group-id="1,7,24,50" id="Path-36" node-id="163" stroke-linecap="butt" stroke-width="1" target-height="42.820007" target-width="34.350616" target-x="276.62573" target-y="698.46"></path><path d="M 320.54 444.71 L 317.38 449.58 L 314.81 454.50 L 312.79 459.48 L 311.30 464.54 L 310.32 469.71 L 309.86 475.00 L 309.92 480.46 L 310.52 486.10 L 311.68 491.96 L 312.99 498.70 L 313.89 506.47 L 314.36 514.52 L 314.48 523.03 L 314.32 531.61 L 313.91 540.09 L 313.32 548.44 L 312.63 556.10 L 311.07 569.52 L 309.69 578.79 L 394.08 578.79 L 396.88 555.00 L 398.81 534.18 L 399.98 516.06 L 400.48 500.38 L 400.40 486.91 L 399.83 475.42 L 398.84 465.69 L 397.52 457.51 L 395.91 450.71 L 394.08 445.10 L 320.54 444.71 Z" fill="#201f1d" fill-rule="evenodd" group-id="1,7,24" id="Path-33" node-id="164" stroke-linecap="butt" stroke-width="1" target-height="134.07886" target-width="90.792145" target-x="309.68692" target-y="444.71088"></path><path d="M 359.84 272.09 L 359.22 280.88 L 358.15 288.45 L 356.70 294.93 L 354.93 300.47 L 352.87 305.16 L 350.56 309.12 L 348.01 312.43 L 346.56 313.36 L 345.08 313.82 L 343.53 313.87 L 342.97 316.97 L 336.73 316.97 L 336.73 272.09 L 359.84 272.09 Z" fill="#ffa990" fill-rule="evenodd" group-id="1,7,25" id="Path-30" node-id="166" stroke-linecap="butt" stroke-width="1" target-height="44.875946" target-width="23.111877" target-x="336.72736" target-y="272.09442"></path><path d="M 351.35 251.48 L 353.56 253.38 L 355.87 255.83 L 357.87 258.62 L 359.45 261.85 L 360.14 264.16 L 360.46 266.65 L 360.39 269.35 L 359.87 272.00 L 358.76 274.91 L 356.96 278.13 L 354.75 281.08 L 351.64 284.34 L 347.44 287.97 L 346.83 284.62 L 346.13 282.64 L 345.41 281.59 L 344.68 281.14 L 344.10 281.20 L 343.54 281.67 L 342.95 282.81 L 342.46 284.82 L 342.34 287.51 L 342.54 289.36 L 343.03 291.17 L 343.82 292.96 L 342.00 295.65 L 339.57 298.52 L 341.15 310.09 L 342.19 320.72 L 342.75 330.44 L 342.85 339.34 L 342.54 347.47 L 341.86 354.89 L 341.27 357.75 L 340.34 360.25 L 339.09 362.44 L 337.52 364.36 L 334.99 366.55 L 332.07 368.33 L 328.71 369.69 L 325.17 370.61 L 321.46 371.14 L 317.55 371.28 L 313.64 371.04 L 309.84 370.44 L 306.13 369.50 L 302.55 368.19 L 299.37 366.59 L 296.56 364.73 L 294.08 362.49 L 292.23 360.04 L 290.94 357.35 L 289.98 353.91 L 289.52 350.86 L 289.49 348.12 L 289.82 345.39 L 290.46 342.76 L 291.40 340.21 L 293.20 336.47 L 295.43 332.54 L 300.34 323.97 L 302.68 319.12 L 304.89 313.40 L 306.01 309.35 L 306.86 305.07 L 307.42 300.55 L 307.91 293.69 L 308.15 286.74 L 308.35 279.82 L 308.69 273.30 L 309.11 269.00 L 309.76 265.10 L 310.64 261.55 L 311.90 258.16 L 313.55 255.28 L 315.59 252.83 L 318.69 250.27 L 321.84 248.37 L 325.06 247.05 L 328.46 246.19 L 331.79 245.77 L 335.09 245.77 L 338.38 246.14 L 341.45 246.78 L 344.31 247.69 L 347.08 248.87 L 349.41 250.13 L 351.35 251.48 Z" fill="#3d2423" fill-rule="evenodd" group-id="1,7,25" id="Path-31" node-id="167" stroke-linecap="butt" stroke-width="1" target-height="125.510544" target-width="70.970764" target-x="289.49048" target-y="245.77138"></path><path d="M 411.51 371.96 L 412.84 371.13 L 414.10 370.97 L 415.39 371.41 L 416.86 372.63 L 418.56 375.00 L 420.54 379.03 L 422.85 385.34 L 425.48 394.65 L 428.46 407.78 L 431.80 425.64" fill="none" group-id="1,7" id="Path-62" node-id="168" stroke="#5a271d" stroke-linecap="butt" stroke-width="4" target-height="54.67343" target-width="20.295258" target-x="411.5096" target-y="370.9656"></path></g></g></svg>