<?xml version="1.0" standalone="no"?><!DOCTYPE svg PUBLIC "-//W3C//DTD SVG 1.1//EN" "http://www.w3.org/Graphics/SVG/1.1/DTD/svg11.dtd"><svg height="1162" legacy-metrics="false" node-id="1" sillyvg="true" template-height="1162" template-width="1232" version="1.1" viewBox="0 0 1232 1162" width="1232" xmlns="http://www.w3.org/2000/svg" xmlns:xlink="http://www.w3.org/1999/xlink"><defs node-id="30"></defs><path d="M 748.69 0.00 L 66.03 0.00 C 47.79 0.00 33.00 14.79 33.00 33.03 L 33.00 622.75 C 33.00 640.99 47.79 655.78 66.03 655.78 L 748.69 655.78 C 766.93 655.78 781.72 640.99 781.72 622.75 L 781.72 33.03 C 781.72 14.79 766.93 0.00 748.69 0.00 Z" fill="#fbfbfb" fill-rule="nonzero" node-id="32" stroke="none" target-height="655.778" target-width="748.719" target-x="33" target-y="0"></path><path d="M 765.20 0.00 L 49.52 0.00 C 40.39 0.00 33.00 7.39 33.00 16.52 L 33.00 60.08 C 33.00 69.20 40.39 76.60 49.52 76.60 L 765.20 76.60 C 774.33 76.60 781.72 69.20 781.72 60.08 L 781.72 16.52 C 781.72 7.39 774.33 0.00 765.20 0.00 Z" fill="#ff8f7b" fill-rule="nonzero" node-id="34" stroke="none" target-height="76.599" target-width="748.719" target-x="33" target-y="0"></path><path d="M 80.06 39.51 L 80.06 35.52 C 80.06 29.38 75.08 24.40 68.94 24.40 C 62.80 24.40 57.82 29.38 57.82 35.52 L 57.82 39.51 C 57.82 45.65 62.80 50.63 68.94 50.63 C 75.08 50.63 80.06 45.65 80.06 39.51 Z" fill="#ffffff" fill-rule="nonzero" node-id="36" stroke="none" target-height="26.2325" target-width="22.245296" target-x="57.8165" target-y="24.3953"></path><path d="M 123.42 39.51 L 123.42 35.52 C 123.42 29.38 118.44 24.40 112.30 24.40 C 106.16 24.40 101.18 29.38 101.18 35.52 L 101.18 39.51 C 101.18 45.65 106.16 50.63 112.30 50.63 C 118.44 50.63 123.42 45.65 123.42 39.51 Z" fill="#ffffff" fill-rule="nonzero" node-id="38" stroke="none" target-height="26.2325" target-width="22.245995" target-x="101.177" target-y="24.3953"></path><path d="M 166.81 39.50 L 166.81 35.52 C 166.81 29.38 161.83 24.40 155.69 24.40 C 149.54 24.40 144.56 29.38 144.56 35.52 L 144.56 39.50 C 144.56 45.65 149.54 50.63 155.69 50.63 C 161.83 50.63 166.81 45.65 166.81 39.50 Z" fill="#ffffff" fill-rule="nonzero" node-id="40" stroke="none" target-height="26.2325" target-width="22.253998" target-x="144.558" target-y="24.3953"></path><path d="M 212.74 246.21 L 212.74 230.48 C 212.74 213.08 198.64 198.99 181.25 198.99 L 126.17 198.99 C 108.78 198.99 94.69 213.07 94.69 230.48 L 94.69 246.21 L 212.74 246.21 Z" fill="#b5d1de" fill-rule="nonzero" node-id="42" stroke="none" target-height="47.225998" target-width="118.0454" target-x="94.6896" target-y="198.985"></path><path d="M 153.71 175.38 C 168.92 175.38 181.25 163.05 181.25 147.84 C 181.25 132.63 168.92 120.30 153.71 120.30 C 138.50 120.30 126.18 132.63 126.18 147.84 C 126.18 163.05 138.50 175.38 153.71 175.38 Z" fill="#b5d1de" fill-rule="nonzero" node-id="44" stroke="none" target-height="55.071" target-width="55.071" target-x="126.177" target-y="120.304"></path><path d="M 637.29 150.78 L 267.28 150.78 L 267.28 168.27 L 637.29 168.27 L 637.29 150.78 Z" fill="#b5d1de" fill-rule="nonzero" node-id="46" stroke="none" target-height="17.488007" target-width="370.009" target-x="267.283" target-y="150.778"></path><path d="M 464.71 281.94 L 94.70 281.94 L 94.70 299.43 L 464.71 299.43 L 464.71 281.94 Z" fill="#b5d1de" fill-rule="nonzero" node-id="48" stroke="none" target-height="17.487" target-width="370.0094" target-x="94.6976" target-y="281.942"></path><path d="M 196.65 579.24 L 94.70 579.24 L 94.70 596.73 L 196.65 596.73 L 196.65 579.24 Z" fill="#d8e5ed" fill-rule="nonzero" node-id="50" stroke="none" target-height="17.489014" target-width="101.948395" target-x="94.6976" target-y="579.242"></path><path d="M 339.65 579.24 L 237.69 579.24 L 237.69 596.73 L 339.65 596.73 L 339.65 579.24 Z" fill="#d8e5ed" fill-rule="nonzero" node-id="52" stroke="none" target-height="17.489014" target-width="101.957016" target-x="237.691" target-y="579.242"></path><path d="M 482.64 579.24 L 380.69 579.24 L 380.69 596.73 L 482.64 596.73 L 482.64 579.24 Z" fill="#d8e5ed" fill-rule="nonzero" node-id="54" stroke="none" target-height="17.489014" target-width="101.948" target-x="380.694" target-y="579.242"></path><path d="M 514.98 197.81 L 267.28 197.81 L 267.28 215.30 L 514.98 215.30 L 514.98 197.81 Z" fill="#b5d1de" fill-rule="nonzero" node-id="56" stroke="none" target-height="17.488998" target-width="247.69601" target-x="267.283" target-y="197.812"></path><path d="M 715.53 328.11 L 94.70 328.11 L 94.70 549.62 L 715.53 549.62 L 715.53 328.11 Z" fill="#d8e5ed" fill-rule="nonzero" node-id="58" stroke="none" target-height="221.51599" target-width="620.8364" target-x="94.6976" target-y="328.109"></path><path d="M 322.00 177.43 L 322.00 1005.57 C 322.00 1035.08 351.59 1059.00 388.08 1059.00 L 1048.92 1059.00 C 1085.41 1059.00 1115.00 1035.08 1115.00 1005.57 L 1115.00 177.43 C 1115.00 147.92 1085.41 124.00 1048.92 124.00 L 388.08 124.00 C 351.59 124.00 322.00 147.92 322.00 177.43 Z" fill="#ffffff" fill-rule="nonzero" node-id="60" stroke="none" target-height="935" target-width="793" target-x="322" target-y="124"></path><path d="M 771.01 932.13 L 401.00 932.13 L 401.00 949.62 L 771.01 949.62 L 771.01 932.13 Z" fill="#b5d1de" fill-rule="nonzero" node-id="62" stroke="none" target-height="17.487" target-width="370.00897" target-x="401" target-y="932.13"></path><path d="M 648.70 885.00 L 401.00 885.00 L 401.00 902.49 L 648.70 902.49 L 648.70 885.00 Z" fill="#b5d1de" fill-rule="nonzero" node-id="64" stroke="none" target-height="17.489014" target-width="247.69598" target-x="401" target-y="885"></path><path d="M 400.00 259.52 C 400.00 250.39 407.40 243.00 416.52 243.00 L 847.77 243.00 C 856.90 243.00 864.29 250.39 864.29 259.52 L 864.29 422.49 C 864.29 431.61 856.90 439.00 847.77 439.00 L 416.52 439.00 C 407.40 439.00 400.00 431.61 400.00 422.49 L 400.00 259.52 Z" fill="#d8e5ed" fill-rule="evenodd" node-id="66" stroke="none" target-height="196.005" target-width="464.28998" target-x="400" target-y="243"></path><path d="M 549.45 404.71 C 583.28 404.71 610.71 377.28 610.71 343.45 C 610.71 309.62 583.28 282.20 549.45 282.20 C 515.63 282.20 488.20 309.62 488.20 343.45 C 488.20 377.28 515.63 404.71 549.45 404.71 Z" fill="#ffffff" fill-rule="nonzero" node-id="68" stroke="none" target-height="122.505005" target-width="122.50299" target-x="488.203" target-y="282.201"></path><path d="M 549.45 282.20 C 515.63 282.20 488.20 309.62 488.20 343.45 L 549.45 343.45 C 549.45 317.83 549.45 297.42 549.45 282.20 Z" fill="#ff8f7b" fill-rule="evenodd" node-id="70" stroke="none" target-height="61.252014" target-width="61.250977" target-x="488.203" target-y="282.201"></path><path d="M 720.96 404.71 C 754.79 404.71 782.21 377.28 782.21 343.45 C 782.21 309.62 754.79 282.20 720.96 282.20 C 687.13 282.20 659.71 309.62 659.71 343.45 C 659.71 377.28 687.13 404.71 720.96 404.71 Z" fill="#ffffff" fill-rule="nonzero" node-id="72" stroke="none" target-height="122.505005" target-width="122.50403" target-x="659.709" target-y="282.201"></path><path d="M 720.96 341.83 C 720.96 342.91 720.96 363.87 720.96 404.70 C 754.79 404.70 782.21 377.28 782.21 343.45 C 782.21 343.45 761.80 342.91 720.96 341.83 Z" fill="#ff8f7b" fill-rule="evenodd" node-id="74" stroke="none" target-height="62.871002" target-width="61.252014" target-x="720.961" target-y="341.833"></path><path d="M 1036.87 718.77 L 921.07 718.77 L 921.07 811.29 L 1036.87 811.29 L 1036.87 718.77 Z" fill="#d8e5ed" fill-rule="evenodd" node-id="76" stroke="none" target-height="92.518005" target-width="115.79797" target-x="921.072" target-y="718.772"></path><path d="M 901.00 528.50 L 1037.00 528.50 L 1037.00 547.00 L 901.00 547.00 L 901.00 528.50 Z M 901.00 473.00 L 1037.00 473.00 L 1037.00 491.50 L 901.00 491.50 L 901.00 473.00 Z M 901.00 417.50 L 1037.00 417.50 L 1037.00 436.00 L 901.00 436.00 L 901.00 417.50 Z M 901.00 362.00 L 1037.00 362.00 L 1037.00 380.50 L 901.00 380.50 L 901.00 362.00 Z M 901.00 306.50 L 1037.00 306.50 L 1037.00 325.00 L 901.00 325.00 L 901.00 306.50 Z M 901.00 251.00 L 1037.00 251.00 L 1037.00 269.50 L 901.00 269.50 L 901.00 251.00 Z" fill="#b5d1de" fill-rule="evenodd" node-id="78" stroke="none" target-height="296" target-width="136" target-x="901" target-y="251"></path><path d="M 863.17 641.06 L 747.38 641.06 L 747.38 811.29 L 863.17 811.29 L 863.17 641.06 Z" fill="#fda0a2" fill-rule="evenodd" node-id="80" stroke="none" target-height="170.23096" target-width="115.79297" target-x="747.382" target-y="641.059"></path><path d="M 689.48 563.34 L 573.69 563.34 L 573.69 811.29 L 689.48 811.29 L 689.48 563.34 Z" fill="#d8e5ed" fill-rule="evenodd" node-id="82" stroke="none" target-height="247.948" target-width="115.79297" target-x="573.69" target-y="563.342"></path><path d="M 515.79 514.00 L 400.00 514.00 L 400.00 811.29 L 515.79 811.29 L 515.79 514.00 Z" fill="#ff8f7b" fill-rule="evenodd" node-id="84" stroke="none" target-height="297.28998" target-width="115.79498" target-x="400" target-y="514"></path></svg>