<?xml version="1.0" standalone="no"?><!DOCTYPE svg PUBLIC "-//W3C//DTD SVG 1.1//EN" "http://www.w3.org/Graphics/SVG/1.1/DTD/svg11.dtd"><svg height="3710" legacy-metrics="false" node-id="1" sillyvg="true" template-height="3710" template-width="3710" version="1.1" viewBox="0 0 3710 3710" width="3710" xmlns="http://www.w3.org/2000/svg" xmlns:xlink="http://www.w3.org/1999/xlink"><defs node-id="310"><linearGradient gradientUnits="userSpaceOnUse" id="SVGID_1_" node-id="5" x1="3594.1775" x2="1126.3999" y1="4049.502" y2="984.6768"><stop offset="0" stop-color="#dae3fe"></stop><stop offset="1" stop-color="#e9effd"></stop></linearGradient><linearGradient gradientTransform="matrix(1 -0.0023 0.0023 1 -2.4796 -0.3106)" gradientUnits="userSpaceOnUse" id="SVGID_2_" node-id="23" x1="1590.3932" x2="2589.707" y1="2860.0422" y2="284.0307"><stop offset="0" stop-color="#09005d"></stop><stop offset="1" stop-color="#1a0f91"></stop></linearGradient><linearGradient gradientUnits="userSpaceOnUse" id="SVGID_3_" node-id="27" x1="1922.7073" x2="2291.859" y1="2270.5198" y2="-797.2668"><stop offset="0" stop-color="#4042e2"></stop><stop offset="1" stop-color="#4f52ff"></stop></linearGradient><linearGradient gradientUnits="userSpaceOnUse" id="SVGID_4_" node-id="31" x1="1988.4175" x2="1981.9707" y1="318.2196" y2="711.4677"><stop offset="0" stop-color="#4042e2"></stop><stop offset="1" stop-color="#4f52ff"></stop></linearGradient><linearGradient gradientUnits="userSpaceOnUse" id="SVGID_5_" node-id="38" x1="1445.4255" x2="1624.6003" y1="2801.8965" y2="2672.9502"><stop offset="0" stop-color="#09005d"></stop><stop offset="1" stop-color="#1a0f91"></stop></linearGradient><linearGradient gradientUnits="userSpaceOnUse" id="SVGID_6_" node-id="42" x1="1421.3092" x2="1467.4493" y1="2781.2192" y2="2748.0137"><stop offset="0" stop-color="#09005d"></stop><stop offset="1" stop-color="#1a0f91"></stop></linearGradient><linearGradient gradientUnits="userSpaceOnUse" id="SVGID_7_" node-id="46" x1="1608.437" x2="1653.8822" y1="2780.894" y2="2748.1887"><stop offset="0" stop-color="#09005d"></stop><stop offset="1" stop-color="#1a0f91"></stop></linearGradient><linearGradient gradientUnits="userSpaceOnUse" id="SVGID_8_" node-id="50" x1="1957.7046" x2="1851.1736" y1="2334.7385" y2="2497.8643"><stop offset="0" stop-color="#ff928e"></stop><stop offset="1" stop-color="#fe7062"></stop></linearGradient><linearGradient gradientUnits="userSpaceOnUse" id="SVGID_9_" node-id="54" x1="1701.6594" x2="912.5173" y1="2767.6475" y2="3768.7559"><stop offset="0" stop-color="#ff928e"></stop><stop offset="1" stop-color="#fe7062"></stop></linearGradient><linearGradient gradientUnits="userSpaceOnUse" id="SVGID_10_" node-id="62" x1="1290.9996" x2="1377.203" y1="2896.4546" y2="2834.417"><stop offset="0" stop-color="#09005d"></stop><stop offset="1" stop-color="#1a0f91"></stop></linearGradient><linearGradient gradientUnits="userSpaceOnUse" id="SVGID_11_" node-id="67" x1="1305.2739" x2="1332.494" y1="2905.03" y2="2885.4404"><stop offset="0" stop-color="#09005d"></stop><stop offset="1" stop-color="#1a0f91"></stop></linearGradient><linearGradient gradientUnits="userSpaceOnUse" id="SVGID_12_" node-id="71" x1="1335.2357" x2="1362.4558" y1="2905.03" y2="2885.4404"><stop offset="0" stop-color="#09005d"></stop><stop offset="1" stop-color="#1a0f91"></stop></linearGradient><linearGradient gradientUnits="userSpaceOnUse" id="SVGID_13_" node-id="78" x1="1681.6831" x2="1769.3518" y1="2896.862" y2="2833.77"><stop offset="0" stop-color="#09005d"></stop><stop offset="1" stop-color="#1a0f91"></stop></linearGradient><linearGradient gradientUnits="userSpaceOnUse" id="SVGID_14_" node-id="83" x1="1698.1072" x2="1725.3273" y1="2905.03" y2="2885.4404"><stop offset="0" stop-color="#09005d"></stop><stop offset="1" stop-color="#1a0f91"></stop></linearGradient><linearGradient gradientUnits="userSpaceOnUse" id="SVGID_15_" node-id="87" x1="1728.069" x2="1755.2891" y1="2905.03" y2="2885.4404"><stop offset="0" stop-color="#09005d"></stop><stop offset="1" stop-color="#1a0f91"></stop></linearGradient><linearGradient gradientUnits="userSpaceOnUse" id="SVGID_16_" node-id="100" x1="1405.5392" x2="1385.5646" y1="518.8217" y2="665.3022"><stop offset="0" stop-color="#ff928e"></stop><stop offset="1" stop-color="#fe7062"></stop></linearGradient><linearGradient gradientUnits="userSpaceOnUse" id="SVGID_17_" node-id="104" x1="1901.3597" x2="979.2004" y1="751.1685" y2="1207.2545"><stop offset="0" stop-color="#ff928e"></stop><stop offset="1" stop-color="#fe7062"></stop></linearGradient><linearGradient gradientUnits="userSpaceOnUse" id="SVGID_18_" node-id="108" x1="690.8967" x2="710.8716" y1="696.1185" y2="1039.0154"><stop offset="0" stop-color="#ff928e"></stop><stop offset="1" stop-color="#fe7062"></stop></linearGradient><linearGradient gradientUnits="userSpaceOnUse" id="SVGID_19_" node-id="112" x1="583.9181" x2="753.7019" y1="1184.379" y2="984.6332"><stop offset="0" stop-color="#ff928e"></stop><stop offset="1" stop-color="#fe7062"></stop></linearGradient><linearGradient gradientUnits="userSpaceOnUse" id="SVGID_20_" node-id="116" x1="2061.9414" x2="1562.5775" y1="2223.1196" y2="1517.3519"><stop offset="0" stop-color="#ff928e"></stop><stop offset="1" stop-color="#fe7062"></stop></linearGradient><linearGradient gradientUnits="userSpaceOnUse" id="SVGID_21_" node-id="120" x1="1327.4972" x2="641.7044" y1="1160.0402" y2="1779.2517"><stop offset="0" stop-color="#ff928e"></stop><stop offset="1" stop-color="#fe7062"></stop></linearGradient><linearGradient gradientUnits="userSpaceOnUse" id="SVGID_22_" node-id="124" x1="1620.2408" x2="2063.011" y1="1162.2822" y2="872.6509"><stop offset="0" stop-color="#ff928e"></stop><stop offset="1" stop-color="#fe7062"></stop></linearGradient><linearGradient gradientUnits="userSpaceOnUse" id="SVGID_23_" node-id="128" x1="684.7789" x2="1370.5732" y1="890.3049" y2="770.4574"><stop offset="0" stop-color="#ff928e"></stop><stop offset="1" stop-color="#fe7062"></stop></linearGradient><linearGradient gradientTransform="matrix(1 0.0045 -0.0045 1 -140.6322 -152.249)" gradientUnits="userSpaceOnUse" id="SVGID_24_" node-id="134" x1="1597.949" x2="1521.3827" y1="-20.4387" y2="209.2606"><stop offset="0" stop-color="#09005d"></stop><stop offset="1" stop-color="#1a0f91"></stop></linearGradient><linearGradient gradientTransform="matrix(1 0.0045 -0.0045 1 -140.6322 -152.249)" gradientUnits="userSpaceOnUse" id="SVGID_25_" node-id="138" x1="1663.017" x2="1586.4508" y1="1.2521" y2="230.9512"><stop offset="0" stop-color="#09005d"></stop><stop offset="1" stop-color="#1a0f91"></stop></linearGradient><linearGradient gradientTransform="matrix(1 0.0045 -0.0045 1 -140.6322 -152.249)" gradientUnits="userSpaceOnUse" id="SVGID_26_" node-id="142" x1="1724.6617" x2="1648.0956" y1="21.7934" y2="251.4924"><stop offset="0" stop-color="#09005d"></stop><stop offset="1" stop-color="#1a0f91"></stop></linearGradient><linearGradient gradientTransform="matrix(1 0.0045 -0.0045 1 -140.6322 -152.249)" gradientUnits="userSpaceOnUse" id="SVGID_27_" node-id="146" x1="1782.8812" x2="1706.3151" y1="41.1965" y2="270.8956"><stop offset="0" stop-color="#09005d"></stop><stop offset="1" stop-color="#1a0f91"></stop></linearGradient><linearGradient gradientTransform="matrix(1 0.0045 -0.0045 1 -140.6322 -152.249)" gradientUnits="userSpaceOnUse" id="SVGID_28_" node-id="150" x1="1851.3751" x2="1774.8091" y1="64.0234" y2="293.7225"><stop offset="0" stop-color="#09005d"></stop><stop offset="1" stop-color="#1a0f91"></stop></linearGradient><linearGradient gradientTransform="matrix(1 0.0045 -0.0045 1 -140.6322 -152.249)" gradientUnits="userSpaceOnUse" id="SVGID_29_" node-id="154" x1="1914.7319" x2="1838.1658" y1="85.1384" y2="314.8376"><stop offset="0" stop-color="#09005d"></stop><stop offset="1" stop-color="#1a0f91"></stop></linearGradient><linearGradient gradientTransform="matrix(1 0.0045 -0.0045 1 -140.6322 -152.249)" gradientUnits="userSpaceOnUse" id="SVGID_30_" node-id="158" x1="1976.3745" x2="1899.8083" y1="105.6863" y2="335.3855"><stop offset="0" stop-color="#09005d"></stop><stop offset="1" stop-color="#1a0f91"></stop></linearGradient><linearGradient gradientTransform="matrix(1 0.0045 -0.0045 1 -140.6322 -152.249)" gradientUnits="userSpaceOnUse" id="SVGID_31_" node-id="162" x1="2036.3064" x2="1959.7402" y1="125.6621" y2="355.3613"><stop offset="0" stop-color="#09005d"></stop><stop offset="1" stop-color="#1a0f91"></stop></linearGradient><linearGradient gradientTransform="matrix(1 0.0045 -0.0045 1 -140.6322 -152.249)" gradientUnits="userSpaceOnUse" id="SVGID_32_" node-id="166" x1="2099.663" x2="2023.097" y1="146.7772" y2="376.4763"><stop offset="0" stop-color="#09005d"></stop><stop offset="1" stop-color="#1a0f91"></stop></linearGradient><linearGradient gradientTransform="matrix(1 0.0045 -0.0045 1 -140.6322 -152.249)" gradientUnits="userSpaceOnUse" id="SVGID_33_" node-id="170" x1="2161.3071" x2="2084.741" y1="167.3209" y2="397.0201"><stop offset="0" stop-color="#09005d"></stop><stop offset="1" stop-color="#1a0f91"></stop></linearGradient><linearGradient gradientTransform="matrix(1 0.0045 -0.0045 1 -140.6322 -152.249)" gradientUnits="userSpaceOnUse" id="SVGID_34_" node-id="174" x1="2221.24" x2="2144.674" y1="187.2938" y2="416.9925"><stop offset="0" stop-color="#09005d"></stop><stop offset="1" stop-color="#1a0f91"></stop></linearGradient><linearGradient gradientTransform="matrix(1 0.0045 -0.0045 1 -140.6322 -152.249)" gradientUnits="userSpaceOnUse" id="SVGID_35_" node-id="178" x1="2383.9043" x2="2307.3352" y1="241.4713" y2="471.1798"><stop offset="0" stop-color="#09005d"></stop><stop offset="1" stop-color="#1a0f91"></stop></linearGradient><linearGradient gradientUnits="userSpaceOnUse" id="SVGID_36_" node-id="190" x1="1491.8082" x2="2439.618" y1="2295.264" y2="2295.264"><stop offset="0" stop-color="#dae3fe"></stop><stop offset="1" stop-color="#e9effd"></stop></linearGradient><linearGradient gradientUnits="userSpaceOnUse" id="SVGID_37_" node-id="210" x1="2951.8125" x2="2831.965" y1="1323.453" y2="1809.5018"><stop offset="0" stop-color="#ff928e"></stop><stop offset="1" stop-color="#fe7062"></stop></linearGradient><linearGradient gradientUnits="userSpaceOnUse" id="SVGID_38_" node-id="214" x1="2951.5132" x2="2831.6658" y1="1323.379" y2="1809.4277"><stop offset="0" stop-color="#ff928e"></stop><stop offset="1" stop-color="#fe7062"></stop></linearGradient><linearGradient gradientUnits="userSpaceOnUse" id="SVGID_39_" node-id="222" x1="3116.361" x2="3039.792" y1="949.1248" y2="1155.529"><stop offset="0" stop-color="#ff928e"></stop><stop offset="1" stop-color="#fe7062"></stop></linearGradient><linearGradient gradientUnits="userSpaceOnUse" id="SVGID_40_" node-id="232" x1="2009.257" x2="1976.0504" y1="1146.2505" y2="1710.7545"><stop offset="0" stop-color="#ff928e"></stop><stop offset="1" stop-color="#fe7062"></stop></linearGradient><linearGradient gradientUnits="userSpaceOnUse" id="SVGID_41_" node-id="245" x1="427.6154" x2="1357.2063" y1="2673.6987" y2="1440.4392"><stop offset="0" stop-color="#09005d"></stop><stop offset="1" stop-color="#1a0f91"></stop></linearGradient><linearGradient gradientTransform="matrix(-0.965 -0.2622 -0.2622 0.965 2735.2021 370.2187)" gradientUnits="userSpaceOnUse" id="SVGID_42_" node-id="249" x1="967.5439" x2="1165.5786" y1="1633.3848" y2="2083.9583"><stop offset="0" stop-color="#febbba"></stop><stop offset="1" stop-color="#ff928e"></stop></linearGradient><linearGradient gradientUnits="userSpaceOnUse" id="SVGID_43_" node-id="253" x1="-1212.1875" x2="-1302.8986" y1="3187.2056" y2="3187.2056"><stop offset="0" stop-color="#4042e2"></stop><stop offset="1" stop-color="#4f52ff"></stop></linearGradient><linearGradient gradientUnits="userSpaceOnUse" id="SVGID_44_" node-id="257" x1="-828.113" x2="-958.9163" y1="3538.007" y2="2009.2434"><stop offset="0" stop-color="#febbba"></stop><stop offset="1" stop-color="#ff928e"></stop></linearGradient><linearGradient gradientUnits="userSpaceOnUse" id="SVGID_45_" node-id="261" x1="-789.9016" x2="-936.9749" y1="3162.9756" y2="3162.9756"><stop offset="0" stop-color="#4042e2"></stop><stop offset="1" stop-color="#4f52ff"></stop></linearGradient><linearGradient gradientUnits="userSpaceOnUse" id="SVGID_46_" node-id="265" x1="-1091.2317" x2="-1222.0692" y1="3560.7537" y2="2031.5898"><stop offset="0" stop-color="#febbba"></stop><stop offset="1" stop-color="#ff928e"></stop></linearGradient><linearGradient gradientUnits="userSpaceOnUse" id="SVGID_47_" node-id="269" x1="2162.5654" x2="1723.1473" y1="1573.8447" y2="1768.5873"><stop offset="0" stop-color="#ff928e"></stop><stop offset="1" stop-color="#fe7062"></stop></linearGradient><linearGradient gradientUnits="userSpaceOnUse" id="SVGID_48_" node-id="273" x1="718.5338" x2="1157.9519" y1="2824.9927" y2="2325.6543"><stop offset="0" stop-color="#4042e2"></stop><stop offset="1" stop-color="#4f52ff"></stop></linearGradient><linearGradient gradientUnits="userSpaceOnUse" id="SVGID_49_" node-id="277" x1="-813.7682" x2="-838.3392" y1="2031.1046" y2="1851.3496"><stop offset="0" stop-color="#febbba"></stop><stop offset="1" stop-color="#ff928e"></stop></linearGradient><linearGradient gradientUnits="userSpaceOnUse" id="SVGID_50_" node-id="281" x1="-915.037" x2="-1078.2596" y1="2118.7004" y2="2118.7004"><stop offset="0" stop-color="#febbba"></stop><stop offset="1" stop-color="#ff928e"></stop></linearGradient><linearGradient gradientUnits="userSpaceOnUse" id="SVGID_51_" node-id="285" x1="-751.75" x2="-966.1332" y1="1799.3457" y2="1417.8157"><stop offset="0" stop-color="#febbba"></stop><stop offset="1" stop-color="#ff928e"></stop></linearGradient><linearGradient gradientUnits="userSpaceOnUse" id="SVGID_52_" node-id="289" x1="309.2275" x2="1238.821" y1="2621.8313" y2="1388.5684"><stop offset="0" stop-color="#09005d"></stop><stop offset="1" stop-color="#1a0f91"></stop></linearGradient><linearGradient gradientUnits="userSpaceOnUse" id="SVGID_53_" node-id="293" x1="-797.3839" x2="-1011.767" y1="1824.9877" y2="1443.4578"><stop offset="0" stop-color="#febbba"></stop><stop offset="1" stop-color="#ff928e"></stop></linearGradient><linearGradient gradientTransform="matrix(-0.965 -0.2622 -0.2622 0.965 2735.2021 370.2187)" gradientUnits="userSpaceOnUse" id="SVGID_54_" node-id="298" x1="928.3984" x2="1126.4332" y1="1650.5911" y2="2101.165"><stop offset="0" stop-color="#febbba"></stop><stop offset="1" stop-color="#ff928e"></stop></linearGradient><linearGradient gradientTransform="matrix(-0.965 -0.2622 -0.2622 0.965 2735.2021 370.2187)" gradientUnits="userSpaceOnUse" id="SVGID_55_" node-id="302" x1="837.0065" x2="877.9336" y1="1485.8408" y2="1485.8408"><stop offset="0" stop-color="#febbba"></stop><stop offset="1" stop-color="#ff928e"></stop></linearGradient></defs><g node-id="860"><path d="M 2916.10 2840.30 C 2859.40 2899.90 2805.70 2938.40 2763.30 2968.80 C 2264.80 3326.00 1674.90 3221.90 1549.60 3196.50 C 1364.50 3159.00 1006.60 3086.40 747.90 2782.50 C 356.50 2322.80 417.40 1598.60 721.00 1120.50 C 776.50 1033.10 1069.90 547.70 1666.10 469.90 C 2026.90 422.80 2447.50 517.80 2752.10 772.70 C 3391.50 1307.60 3346.00 2388.30 2916.10 2840.30 Z" fill="url(#SVGID_1_)" fill-rule="nonzero" group-id="1" node-id="648" stroke="none" target-height="2771.9014" target-width="2762.5945" target-x="473.68457" target-y="458.32117"></path><path d="M 3192.70 1772.10 L 3191.42 1795.55 L 3189.68 1818.88 L 3187.47 1842.11 L 3184.80 1865.24 L 3181.66 1888.26 L 3178.06 1911.19 L 3174.00 1934.04 L 3168.67 1960.61 L 3162.73 1987.00 L 3156.19 2013.21 L 3149.04 2039.25 L 3141.28 2065.12 L 3132.91 2090.83 L 3123.95 2116.33 L 3114.41 2141.60 L 3104.29 2166.66 L 3093.58 2191.51 L 3082.28 2216.15 L 3070.39 2240.58 L 3057.97 2264.70 L 3044.98 2288.56 L 3031.44 2312.15 L 3017.32 2335.49 L 3002.64 2358.58 L 2987.37 2381.43 L 2971.65 2403.85 L 2955.38 2425.98 L 2938.57 2447.79 L 2921.21 2469.31 L 2903.29 2490.54 L 2884.80 2511.47 L 2865.94 2531.90 L 2846.55 2551.98 L 2826.63 2571.71 L 2806.18 2591.09 L 2785.18 2610.13 L 2763.62 2628.83 L 2741.70 2647.00 L 2719.43 2664.66 L 2696.81 2681.82 L 2673.82 2698.48 L 2650.47 2714.65 L 2626.75 2730.32 L 2602.70 2745.48 L 2578.35 2760.11 L 2553.70 2774.23 L 2528.74 2787.84 L 2503.46 2800.94 L 2477.87 2813.52 L 2452.04 2825.56 L 2425.96 2837.06 L 2399.64 2848.02 L 2373.05 2858.46 L 2346.21 2868.36 L 2319.09 2877.73 L 2291.83 2886.54 L 2264.38 2894.78 L 2236.73 2902.48 L 2208.87 2909.62 L 2180.81 2916.21 L 2152.53 2922.25 L 2124.19 2927.71 L 2095.71 2932.59 L 2067.09 2936.90 L 2038.31 2940.63 L 2009.38 2943.79 L 1980.29 2946.38 L 1951.22 2948.37 L 1922.07 2949.76 L 1892.82 2950.57 L 1863.48 2950.77 L 1834.03 2950.39 L 1804.48 2949.40 L 1774.94 2947.79 L 1745.57 2945.60 L 1716.36 2942.82 L 1687.30 2939.46 L 1658.38 2935.51 L 1629.60 2930.98 L 1600.85 2925.86 L 1572.31 2920.17 L 1543.97 2913.93 L 1515.83 2907.13 L 1487.89 2899.77 L 1460.14 2891.86 L 1432.50 2883.36 L 1405.12 2874.34 L 1378.00 2864.78 L 1351.13 2854.69 L 1324.50 2844.07 L 1298.12 2832.91 L 1271.93 2821.20 L 1246.05 2808.98 L 1220.49 2796.26 L 1195.22 2783.03 L 1170.26 2769.28 L 1145.58 2755.03 L 1121.19 2740.25 L 1097.16 2724.99 L 1073.48 2709.25 L 1050.16 2693.02 L 1027.19 2676.31 L 1004.57 2659.10 L 982.31 2641.41 L 960.46 2623.26 L 939.02 2604.65 L 917.99 2585.58 L 897.35 2566.03 L 877.11 2546.01 L 857.28 2525.49 L 838.03 2504.68 L 819.35 2483.58 L 801.24 2462.18 L 783.68 2440.48 L 766.68 2418.48 L 750.10 2396.01 L 734.11 2373.30 L 718.70 2350.34 L 703.87 2327.13 L 689.60 2303.67 L 675.90 2279.95 L 662.70 2255.85 L 650.09 2231.56 L 638.08 2207.08 L 626.65 2182.39 L 615.81 2157.49 L 605.55 2132.37 L 595.84 2106.99 L 586.75 2081.45 L 578.26 2055.77 L 570.37 2029.92 L 563.08 2003.90 L 556.39 1977.71 L 550.30 1951.37 L 544.84 1924.92 L 540.00 1898.36 L 535.78 1871.68 L 532.18 1844.87 L 529.20 1817.93 L 527.16 1794.81 L 525.58 1771.66 L 524.47 1748.44 L 523.84 1725.17 L 523.67 1701.84 L 523.98 1678.44 L 524.77 1654.97 L 526.04 1631.52 L 527.79 1608.19 L 529.99 1584.96 L 532.67 1561.83 L 535.80 1538.81 L 539.40 1515.88 L 543.47 1493.03 L 548.80 1466.46 L 554.73 1440.07 L 561.27 1413.86 L 568.42 1387.82 L 576.18 1361.95 L 584.55 1336.24 L 593.51 1310.74 L 603.05 1285.46 L 613.17 1260.41 L 623.88 1235.56 L 635.18 1210.92 L 647.07 1186.48 L 659.50 1162.37 L 672.48 1138.51 L 686.03 1114.92 L 700.14 1091.58 L 714.83 1068.49 L 730.09 1045.64 L 745.82 1023.21 L 762.08 1001.09 L 778.89 979.28 L 796.26 957.76 L 814.18 936.53 L 832.66 915.60 L 851.52 895.17 L 870.91 875.09 L 890.83 855.36 L 911.29 835.98 L 932.29 816.94 L 953.84 798.24 L 975.76 780.07 L 998.03 762.40 L 1020.66 745.25 L 1043.64 728.59 L 1066.99 712.42 L 1090.72 696.75 L 1114.77 681.59 L 1139.11 666.95 L 1163.76 652.83 L 1188.72 639.23 L 1214.00 626.13 L 1239.60 613.55 L 1265.43 601.51 L 1291.50 590.01 L 1317.83 579.05 L 1344.41 568.61 L 1371.26 558.71 L 1398.37 549.33 L 1425.63 540.53 L 1453.08 532.28 L 1480.73 524.59 L 1508.59 517.45 L 1536.65 510.85 L 1564.93 504.81 L 1593.27 499.36 L 1621.75 494.48 L 1650.38 490.17 L 1679.15 486.44 L 1708.08 483.28 L 1737.18 480.69 L 1766.24 478.70 L 1795.39 477.31 L 1824.64 476.50 L 1853.98 476.29 L 1883.43 476.68 L 1912.99 477.67 L 1942.52 479.28 L 1971.89 481.47 L 2001.10 484.25 L 2030.16 487.61 L 2059.08 491.56 L 2087.86 496.09 L 2116.61 501.21 L 2145.16 506.90 L 2173.49 513.14 L 2201.63 519.94 L 2229.57 527.30 L 2257.32 535.21 L 2284.97 543.71 L 2312.35 552.73 L 2339.47 562.29 L 2366.34 572.38 L 2392.96 583.00 L 2419.34 594.16 L 2445.53 605.87 L 2471.41 618.09 L 2496.98 630.81 L 2522.24 644.04 L 2547.21 657.78 L 2571.88 672.04 L 2596.28 686.82 L 2620.31 702.08 L 2643.98 717.82 L 2667.30 734.04 L 2690.27 750.76 L 2712.90 767.97 L 2735.16 785.66 L 2757.00 803.81 L 2778.44 822.42 L 2799.47 841.49 L 2820.11 861.04 L 2840.35 881.06 L 2860.18 901.58 L 2879.44 922.38 L 2898.11 943.49 L 2916.23 964.89 L 2933.78 986.58 L 2950.78 1008.59 L 2967.36 1031.06 L 2983.35 1053.77 L 2998.76 1076.73 L 3013.60 1099.94 L 3027.86 1123.40 L 3041.56 1147.12 L 3054.76 1171.22 L 3067.37 1195.50 L 3079.38 1219.99 L 3090.81 1244.68 L 3101.65 1269.58 L 3111.92 1294.70 L 3121.62 1320.08 L 3130.72 1345.62 L 3139.21 1371.30 L 3147.10 1397.15 L 3154.38 1423.17 L 3161.07 1449.36 L 3167.16 1475.70 L 3172.62 1502.15 L 3177.46 1528.71 L 3181.68 1555.39 L 3185.28 1582.20 L 3188.26 1609.14 L 3190.31 1632.25 L 3191.88 1655.41 L 3192.99 1678.63 L 3193.63 1701.90 L 3193.79 1725.23 L 3193.48 1748.63 L 3192.70 1772.10 Z" fill="#7d97f4" fill-rule="nonzero" group-id="1" node-id="650" stroke-linecap="butt" stroke-width="0.9999623" target-height="2474.4805" target-width="2670.1162" target-x="523.67346" target-y="476.29413"></path><g node-id="861"><path d="M 2834.30 1624.40 C 2834.30 1886.94 2723.91 2138.72 2527.41 2324.37 C 2330.91 2510.01 2064.39 2614.30 1786.50 2614.30 C 1508.61 2614.30 1242.09 2510.01 1045.59 2324.37 C 849.09 2138.72 738.70 1886.94 738.70 1624.40 C 738.70 1361.86 849.09 1110.08 1045.59 924.43 C 1242.09 738.79 1508.61 634.50 1786.50 634.50 C 2064.39 634.50 2330.91 738.79 2527.41 924.43 C 2723.91 1110.08 2834.30 1361.86 2834.30 1624.40 Z" fill="#bdd0fb" fill-opacity="0.24" fill-rule="nonzero" group-id="1,2" node-id="654" stroke-linecap="butt" stroke-opacity="0.24" stroke-width="1" target-height="1979.8" target-width="2095.6" target-x="738.7" target-y="634.5"></path></g><g node-id="862"><path d="M 2200.90 1719.60 C 2200.80 1828.80 2196.80 1937.90 2188.30 2046.80 C 2179.60 2155.60 2166.30 2264.10 2147.00 2371.70 C 2137.20 2425.40 2125.90 2478.90 2112.40 2531.90 C 2098.90 2584.90 2083.30 2637.40 2064.20 2688.70 C 2044.90 2739.90 2022.60 2790.40 1992.30 2836.50 C 1977.00 2859.40 1959.70 2881.40 1938.30 2899.40 C 1927.60 2908.40 1915.80 2916.40 1902.90 2922.20 C 1890.00 2928.00 1875.90 2931.70 1861.50 2931.90 C 1847.20 2932.30 1832.80 2929.50 1819.70 2924.20 C 1806.50 2919.00 1794.40 2911.30 1783.50 2902.70 C 1761.60 2885.20 1743.90 2863.50 1728.30 2840.70 C 1697.40 2794.90 1674.80 2744.50 1655.30 2693.40 C 1636.00 2642.10 1620.20 2589.70 1606.60 2536.80 C 1593.00 2483.90 1581.60 2430.40 1571.70 2376.70 C 1552.10 2269.20 1538.60 2160.70 1529.60 2051.90 C 1520.60 1943.10 1516.10 1833.90 1515.50 1724.70 C 1515.20 1670.10 1516.80 1615.50 1518.70 1561.00 C 1520.80 1506.50 1523.80 1452.00 1527.90 1397.50 C 1536.00 1288.70 1548.20 1180.00 1566.20 1072.30 C 1575.20 1018.50 1585.80 964.80 1598.40 911.70 C 1611.10 858.60 1625.80 805.90 1644.10 754.30 C 1662.60 702.90 1684.10 652.10 1714.00 605.90 C 1729.10 583.00 1746.40 561.10 1768.00 543.60 C 1778.80 534.90 1790.70 527.40 1803.70 522.20 C 1816.70 517.00 1830.80 514.40 1844.80 514.90 C 1858.80 515.30 1872.60 518.80 1885.40 524.40 C 1898.20 530.00 1909.90 537.70 1920.60 546.40 C 1942.10 563.90 1959.90 585.20 1975.70 607.60 C 2007.10 652.70 2030.80 702.50 2051.30 753.10 C 2071.70 803.90 2088.50 856.00 2103.10 908.60 C 2117.70 961.20 2130.10 1014.50 2140.80 1068.00 C 2162.00 1175.10 2176.80 1283.50 2186.60 1392.20 C 2196.00 1501.20 2200.60 1610.40 2200.90 1719.60 Z M 2182.80 1719.60 C 2183.00 1610.90 2178.90 1502.20 2169.90 1393.90 C 2161.00 1285.60 2147.60 1177.60 2127.60 1070.80 C 2117.60 1017.40 2105.90 964.30 2092.10 911.80 C 2078.20 859.30 2062.10 807.40 2042.50 756.80 C 2022.80 706.30 1999.90 656.80 1969.60 612.00 C 1954.30 589.80 1937.10 568.70 1916.50 551.50 C 1906.20 543.00 1895.00 535.50 1882.90 529.90 C 1870.80 524.40 1857.80 520.90 1844.50 520.50 C 1831.30 520.10 1818.00 522.80 1805.80 527.80 C 1793.50 532.80 1782.20 540.20 1771.90 548.70 C 1751.30 565.80 1734.60 587.40 1720.10 610.10 C 1691.20 655.80 1670.50 706.40 1652.80 757.60 C 1635.30 809.00 1621.30 861.50 1609.30 914.50 C 1597.40 967.50 1587.50 1021.00 1579.20 1074.70 C 1546.20 1289.70 1535.40 1507.60 1536.10 1724.90 C 1535.80 1833.60 1539.30 1942.30 1547.40 2050.70 C 1555.50 2159.10 1567.90 2267.20 1586.50 2374.20 C 1595.80 2427.70 1606.70 2480.90 1619.80 2533.60 C 1632.90 2586.30 1648.10 2638.40 1666.80 2689.30 C 1685.60 2740.00 1707.60 2789.90 1737.30 2834.80 C 1752.20 2857.10 1769.20 2878.20 1789.80 2894.90 C 1800.10 2903.20 1811.30 2910.40 1823.40 2915.30 C 1835.40 2920.20 1848.40 2923.00 1861.30 2922.50 C 1874.20 2922.20 1887.00 2918.70 1898.80 2913.30 C 1910.70 2907.80 1921.60 2900.30 1931.70 2891.70 C 1951.80 2874.40 1968.50 2853.00 1983.20 2830.60 C 2012.40 2785.30 2034.00 2735.30 2052.60 2684.50 C 2071.00 2633.60 2086.10 2581.30 2099.00 2528.60 C 2111.90 2475.90 2122.70 2422.60 2131.90 2369.10 C 2150.40 2262.00 2162.70 2153.90 2170.80 2045.50 C 2179.10 1937.10 2182.90 1828.30 2182.80 1719.60 Z" fill="#ffffff" fill-opacity="0.68" fill-rule="nonzero" group-id="1,3" node-id="659" stroke-linecap="butt" stroke-opacity="0.68" stroke-width="1" target-height="2417" target-width="685.3999" target-x="1515.5" target-y="514.9"></path><path d="M 2751.50 1719.60 C 2750.70 1860.20 2732.60 2000.90 2695.00 2136.50 C 2656.60 2271.80 2598.80 2401.90 2520.40 2518.70 C 2442.10 2635.20 2342.30 2738.70 2223.10 2813.70 C 2163.50 2851.00 2099.10 2880.90 2031.70 2901.10 C 1964.40 2921.40 1894.10 2932.00 1823.70 2932.10 C 1753.30 2932.10 1683.00 2921.60 1615.60 2901.40 C 1548.20 2881.20 1483.70 2851.40 1424.10 2814.10 C 1304.70 2739.20 1204.70 2635.80 1126.20 2519.30 C 1047.60 2402.50 989.60 2272.30 951.10 2137.00 C 932.10 2069.20 918.00 2000.10 908.70 1930.30 C 899.40 1860.50 894.70 1790.20 894.40 1719.80 C 894.80 1649.40 899.50 1579.10 908.80 1509.30 C 918.20 1439.60 932.40 1370.40 951.40 1302.70 C 990.10 1167.40 1048.10 1037.30 1126.80 920.70 C 1205.40 804.30 1305.30 701.00 1424.60 626.30 C 1484.20 589.10 1548.70 559.60 1616.00 539.40 C 1683.20 519.10 1753.40 508.60 1823.70 508.50 C 1894.00 508.60 1964.10 519.30 2031.30 539.60 C 2098.60 559.90 2162.90 589.50 2222.50 626.70 C 2341.70 701.50 2441.40 804.80 2519.80 921.20 C 2598.30 1037.90 2656.20 1167.90 2694.70 1303.10 C 2732.40 1438.40 2750.60 1579.00 2751.50 1719.60 Z M 2730.80 1719.60 C 2730.60 1580.80 2713.40 1441.80 2676.80 1307.80 C 2640.00 1174.00 2584.70 1044.80 2508.40 928.60 C 2470.30 870.60 2427.00 815.80 2378.50 766.10 C 2330.00 716.40 2276.40 671.50 2217.70 634.10 C 2159.00 597.00 2095.60 567.10 2029.10 546.80 C 1962.60 526.60 1893.20 515.90 1823.70 515.70 C 1754.20 516.00 1684.80 526.70 1618.40 547.00 C 1551.90 567.30 1488.60 597.30 1429.90 634.40 C 1371.30 671.80 1317.80 716.80 1269.40 766.50 C 1221.00 816.30 1177.80 871.00 1139.80 929.10 C 1063.70 1045.30 1008.50 1174.50 971.90 1308.20 C 953.70 1375.10 940.50 1443.40 931.60 1512.20 C 922.60 1581.00 918.20 1650.30 918.10 1719.70 C 918.30 1789.10 922.80 1858.40 931.80 1927.20 C 940.80 1995.90 954.00 2064.20 972.30 2131.10 C 1009.00 2264.80 1064.30 2393.80 1140.50 2509.90 C 1178.50 2567.90 1221.70 2622.60 1270.20 2672.30 C 1318.60 2721.90 1372.10 2766.90 1430.70 2804.10 C 1489.30 2841.20 1552.70 2870.90 1619.00 2891.20 C 1685.30 2911.50 1754.50 2922.30 1824.00 2922.60 C 1893.40 2922.30 1962.70 2911.60 2029.00 2891.40 C 2095.40 2871.20 2158.80 2841.50 2217.50 2804.50 C 2276.10 2767.30 2329.70 2722.40 2378.20 2672.80 C 2426.70 2623.10 2470.00 2568.50 2508.10 2510.50 C 2584.40 2394.40 2639.90 2265.30 2676.80 2131.50 C 2713.10 1997.40 2730.50 1858.40 2730.80 1719.60 Z" fill="#ffffff" fill-opacity="0.68" fill-rule="nonzero" group-id="1,3" node-id="661" stroke-linecap="butt" stroke-opacity="0.68" stroke-width="1" target-height="2423.6" target-width="1857.1" target-x="894.4" target-y="508.5"></path><path d="M 742.20 1239.90 L 1020.50 1237.40 L 1298.80 1236.00 C 1391.60 1235.40 1484.30 1235.50 1577.10 1235.30 L 1855.40 1234.90 L 2412.00 1236.20 L 2690.30 1237.80 L 2968.60 1240.50 C 2969.10 1240.50 2969.50 1240.90 2969.50 1241.40 C 2969.50 1241.90 2969.10 1242.30 2968.60 1242.30 L 2690.30 1245.00 L 2412.00 1246.60 L 1855.40 1247.90 L 1577.10 1247.50 C 1484.30 1247.30 1391.60 1247.40 1298.80 1246.80 L 1020.50 1245.40 L 742.20 1242.90 C 741.40 1242.90 740.80 1242.30 740.90 1241.50 C 740.90 1240.50 741.50 1239.90 742.20 1239.90 Z" fill="#ffffff" fill-opacity="0.68" fill-rule="nonzero" group-id="1,3" node-id="663" stroke-linecap="butt" stroke-opacity="0.68" stroke-width="1" target-height="13" target-width="2228.6" target-x="740.9" target-y="1234.9"></path><path d="M 1065.10 773.80 C 1131.00 772.60 1196.80 772.10 1262.70 771.30 L 1460.30 769.90 C 1526.20 769.30 1592.00 769.40 1657.90 769.20 L 1855.50 768.80 L 2053.10 769.30 C 2119.00 769.60 2184.80 769.40 2250.70 770.10 L 2448.30 771.70 C 2514.20 772.60 2580.00 773.20 2645.90 774.40 C 2646.40 774.40 2646.80 774.80 2646.80 775.30 C 2646.80 775.80 2646.40 776.20 2645.90 776.20 C 2580.00 777.50 2514.20 778.00 2448.30 778.90 L 2250.70 780.50 C 2184.80 781.20 2119.00 781.00 2053.10 781.30 L 1855.50 781.80 L 1657.90 781.40 C 1592.00 781.20 1526.20 781.30 1460.30 780.70 L 1262.70 779.30 C 1196.80 778.50 1131.00 778.00 1065.10 776.80 C 1064.30 776.80 1063.70 776.20 1063.80 775.40 C 1063.80 774.40 1064.40 773.80 1065.10 773.80 Z" fill="#ffffff" fill-opacity="0.68" fill-rule="nonzero" group-id="1,3" node-id="665" stroke-linecap="butt" stroke-opacity="0.68" stroke-width="1" target-height="13" target-width="1583" target-x="1063.8" target-y="768.8"></path><path d="M 645.50 1706.10 L 948.00 1703.60 L 1250.50 1702.20 L 1855.50 1701.00 L 2460.50 1702.30 L 2763.00 1703.90 L 3065.50 1706.60 C 3066.00 1706.60 3066.40 1707.00 3066.40 1707.50 C 3066.40 1708.00 3066.00 1708.40 3065.50 1708.40 L 2763.00 1711.10 L 2460.50 1712.70 L 1855.50 1714.00 L 1250.50 1712.80 L 948.00 1711.40 L 645.50 1708.90 C 644.70 1708.90 644.10 1708.30 644.10 1707.50 C 644.20 1706.70 644.80 1706.10 645.50 1706.10 Z" fill="#ffffff" fill-opacity="0.68" fill-rule="nonzero" group-id="1,3" node-id="667" stroke-linecap="butt" stroke-opacity="0.68" stroke-width="1" target-height="13" target-width="2422.2998" target-x="644.1" target-y="1701"></path><path d="M 742.20 2172.20 L 1020.50 2169.70 L 1298.80 2168.30 C 1391.60 2167.70 1484.30 2167.80 1577.10 2167.60 L 1855.40 2167.20 L 2412.00 2168.50 L 2690.30 2170.10 L 2968.60 2172.80 C 2969.10 2172.80 2969.50 2173.20 2969.50 2173.70 C 2969.50 2174.20 2969.10 2174.60 2968.60 2174.60 L 2690.30 2177.30 L 2412.00 2178.90 L 1855.40 2180.20 L 1577.10 2179.80 C 1484.30 2179.60 1391.60 2179.70 1298.80 2179.10 L 1020.50 2177.70 L 742.20 2175.20 C 741.40 2175.20 740.80 2174.60 740.90 2173.80 C 740.90 2172.80 741.50 2172.20 742.20 2172.20 Z" fill="#ffffff" fill-opacity="0.68" fill-rule="nonzero" group-id="1,3" node-id="669" stroke-linecap="butt" stroke-opacity="0.68" stroke-width="1" target-height="13" target-width="2228.6" target-x="740.9" target-y="2167.2"></path><path d="M 2685.60 2644.50 L 1104.90 2644.50 C 1102.30 2644.50 1100.10 2642.40 1100.10 2639.70 C 1100.10 2637.00 1102.20 2634.90 1104.90 2634.90 L 2685.60 2634.90 C 2688.20 2634.90 2690.40 2637.00 2690.40 2639.70 C 2690.40 2642.40 2688.30 2644.50 2685.60 2644.50 Z" fill="#ffffff" fill-opacity="0.68" fill-rule="nonzero" group-id="1,3" node-id="671" stroke-linecap="butt" stroke-opacity="0.68" stroke-width="1" target-height="9.600098" target-width="1590.2999" target-x="1100.1" target-y="2634.9"></path></g><path d="M 2722.90 3067.50 C 2722.40 3117.20 2679.70 3157.50 2627.50 3157.60 L 1365.90 3160.30 C 1313.30 3160.40 1269.70 3120.10 1268.50 3070.20 L 1209.70 720.50 C 1208.30 664.60 1252.40 619.40 1308.20 619.70 L 2647.30 626.10 C 2702.70 626.40 2747.10 671.80 2746.50 727.40 L 2722.90 3067.50 Z" fill="url(#SVGID_2_)" fill-rule="nonzero" group-id="1" node-id="674" stroke="none" target-height="2540.6" target-width="1536.8" target-x="1209.7" target-y="619.7"></path><path d="M 2609.20 863.10 C 2609.60 809.40 2565.50 765.60 2510.80 765.40 L 1447.90 760.70 C 1392.80 760.50 1349.10 804.00 1350.30 857.90 L 1394.00 2855.70 C 1395.10 2904.60 1438.30 2944.20 1490.70 2944.10 L 2500.50 2942.50 C 2552.50 2942.40 2594.90 2902.90 2595.30 2854.10 L 2609.20 863.10 Z" fill="url(#SVGID_3_)" fill-rule="nonzero" group-id="1" node-id="676" stroke="none" target-height="2183.4001" target-width="1258.8999" target-x="1350.3" target-y="760.7"></path><path d="M 2139.50 689.30 C 2139.50 699.70 2131.10 708.10 2120.80 708.10 L 1844.20 706.80 C 1833.80 706.80 1825.30 698.30 1825.20 687.80 L 1825.20 687.80 C 1825.10 677.40 1833.40 668.90 1843.80 669.00 L 2120.70 670.30 C 2131.10 670.40 2139.50 678.90 2139.50 689.30 L 2139.50 689.30 Z" fill="url(#SVGID_4_)" fill-opacity="0.52" fill-rule="nonzero" group-id="1,4" node-id="680" stroke-linecap="butt" stroke-opacity="0.52" stroke-width="1" target-height="39.099976" target-width="314.30005" target-x="1825.2" target-y="669"></path><path d="M 1591.60 2668.90 L 1482.90 2668.90 C 1454.30 2668.90 1428.70 2687.40 1428.70 2716.00 L 1428.70 2778.70 L 1458.70 2778.70 L 1458.70 2716.00 C 1458.70 2701.90 1468.90 2692.20 1482.90 2692.20 L 1591.60 2692.20 C 1605.70 2692.20 1615.10 2702.00 1615.10 2716.00 L 1615.10 2778.70 L 1645.10 2778.70 L 1645.10 2716.00 C 1645.10 2687.40 1620.20 2668.90 1591.60 2668.90 Z" fill="url(#SVGID_5_)" fill-rule="nonzero" group-id="1" node-id="683" stroke="none" target-height="109.80005" target-width="216.40002" target-x="1428.7" target-y="2668.9"></path><path d="M 1475.40 2762.70 L 1475.40 2763.10 C 1475.40 2769.40 1470.90 2778.70 1465.10 2778.70 L 1423.50 2778.70 C 1417.70 2778.70 1412.10 2769.40 1412.10 2763.10 L 1412.10 2762.70 C 1412.10 2756.40 1417.70 2752.10 1423.50 2752.10 L 1465.10 2752.10 C 1470.80 2752.10 1475.40 2756.50 1475.40 2762.70 Z" fill="url(#SVGID_6_)" fill-rule="nonzero" group-id="1" node-id="685" stroke="none" target-height="26.599854" target-width="63.30005" target-x="1412.1" target-y="2752.1"></path><path d="M 1661.80 2762.70 L 1661.80 2763.10 C 1661.80 2769.40 1656.90 2778.70 1651.10 2778.70 L 1609.50 2778.70 C 1603.70 2778.70 1601.80 2769.40 1601.80 2763.10 L 1601.80 2762.70 C 1601.80 2756.40 1603.70 2752.10 1609.50 2752.10 L 1651.10 2752.10 C 1656.90 2752.10 1661.80 2756.50 1661.80 2762.70 Z" fill="url(#SVGID_7_)" fill-rule="nonzero" group-id="1" node-id="687" stroke="none" target-height="26.599854" target-width="60" target-x="1601.8" target-y="2752.1"></path><path d="M 1848.20 2841.70 C 1848.20 2799.60 1814.10 2765.40 1772.00 2765.40 L 1285.30 2765.40 C 1243.20 2765.40 1209.10 2799.50 1209.10 2841.70 L 1209.10 3142.00 C 1209.10 3184.10 1243.20 3218.20 1285.30 3218.20 L 1772.00 3218.20 C 1814.10 3218.20 1848.20 3184.10 1848.20 3142.00 L 1848.20 2841.70 Z" fill="url(#SVGID_8_)" fill-rule="nonzero" group-id="1" node-id="689" stroke="none" target-height="452.80005" target-width="639.1" target-x="1209.1" target-y="2765.4"></path><path d="M 1829.60 2851.90 C 1829.60 2814.20 1797.60 2784.40 1758.10 2784.40 L 1300.10 2784.40 C 1260.60 2784.40 1228.60 2814.20 1228.60 2851.90 L 1228.60 3121.10 C 1228.60 3158.80 1260.60 3189.40 1300.10 3189.40 L 1758.10 3189.40 C 1797.60 3189.40 1829.60 3158.80 1829.60 3121.10 L 1829.60 2851.90 Z" fill="url(#SVGID_9_)" fill-rule="nonzero" group-id="1" node-id="691" stroke="none" target-height="405" target-width="601" target-x="1228.6" target-y="2784.4"></path><path d="M 1365.50 3208.00 C 1365.50 3218.70 1354.70 3231.50 1343.80 3231.50 L 1322.40 3231.50 C 1311.50 3231.50 1302.20 3218.70 1302.20 3208.00 L 1302.20 2764.10 C 1302.20 2753.40 1311.40 2748.70 1322.40 2748.70 L 1343.80 2748.70 C 1354.70 2748.70 1365.50 2753.40 1365.50 2764.10 L 1365.50 3208.00 Z" fill="#7d97f4" fill-rule="nonzero" group-id="1" node-id="693" stroke="none" target-height="482.80005" target-width="63.30005" target-x="1302.2" target-y="2748.7"></path><path d="M 1356.40 2908.60 L 1312.30 2908.60 C 1297.10 2908.60 1282.30 2889.00 1282.30 2875.00 L 1282.30 2847.80 C 1282.30 2834.40 1296.30 2828.60 1312.30 2828.60 L 1356.40 2828.60 C 1371.50 2828.60 1382.20 2833.90 1382.20 2847.80 L 1382.20 2875.00 C 1382.10 2889.50 1370.80 2908.60 1356.40 2908.60 Z M 1312.30 2838.60 C 1303.90 2838.60 1298.90 2841.90 1298.90 2847.80 L 1298.90 2875.00 C 1298.90 2880.90 1303.70 2885.30 1312.30 2885.30 L 1356.40 2885.30 C 1364.40 2885.30 1368.80 2881.30 1368.80 2875.00 L 1368.80 2847.80 C 1368.80 2841.30 1364.20 2838.60 1356.40 2838.60 L 1312.30 2838.60 Z" fill="url(#SVGID_10_)" fill-rule="nonzero" group-id="1" node-id="695" stroke="none" target-height="80" target-width="99.8999" target-x="1282.3" target-y="2828.6"></path><path d="M 1325.50 2912.90 C 1325.50 2916.00 1323.00 2918.60 1319.80 2918.60 L 1317.80 2918.60 C 1314.70 2918.60 1312.10 2916.10 1312.10 2912.90 L 1312.10 2877.70 C 1312.10 2874.60 1314.60 2872.00 1317.80 2872.00 L 1319.80 2872.00 C 1322.90 2872.00 1325.50 2874.50 1325.50 2877.70 L 1325.50 2912.90 Z" fill="url(#SVGID_11_)" fill-rule="nonzero" group-id="1" node-id="697" stroke="none" target-height="46.600098" target-width="13.400024" target-x="1312.1" target-y="2872"></path><path d="M 1355.50 2912.90 C 1355.50 2916.00 1353.00 2918.60 1349.80 2918.60 L 1347.80 2918.60 C 1344.70 2918.60 1342.10 2916.10 1342.10 2912.90 L 1342.10 2877.70 C 1342.10 2874.60 1344.60 2872.00 1347.80 2872.00 L 1349.80 2872.00 C 1352.90 2872.00 1355.50 2874.50 1355.50 2877.70 L 1355.50 2912.90 Z" fill="url(#SVGID_12_)" fill-rule="nonzero" group-id="1" node-id="699" stroke="none" target-height="46.600098" target-width="13.400024" target-x="1342.1" target-y="2872"></path><path d="M 1751.70 3208.00 C 1751.70 3218.70 1746.70 3231.50 1735.70 3231.50 L 1714.30 3231.50 C 1703.40 3231.50 1695.10 3218.70 1695.10 3208.00 L 1695.10 2764.10 C 1695.10 2753.40 1703.40 2748.70 1714.30 2748.70 L 1735.70 2748.70 C 1746.60 2748.70 1751.70 2753.40 1751.70 2764.10 L 1751.70 3208.00 Z" fill="#7d97f4" fill-rule="nonzero" group-id="1" node-id="701" stroke="none" target-height="482.80005" target-width="56.599976" target-x="1695.1" target-y="2748.7"></path><path d="M 1748.30 2908.60 L 1704.20 2908.60 C 1689.00 2908.60 1671.80 2889.00 1671.80 2875.00 L 1671.80 2847.80 C 1671.80 2834.40 1688.20 2828.60 1704.20 2828.60 L 1748.30 2828.60 C 1763.40 2828.60 1775.00 2833.90 1775.00 2847.80 L 1775.00 2875.00 C 1775.00 2889.50 1762.70 2908.60 1748.30 2908.60 Z M 1704.20 2838.60 C 1695.80 2838.60 1688.40 2841.90 1688.40 2847.80 L 1688.40 2875.00 C 1688.40 2880.90 1695.60 2885.30 1704.20 2885.30 L 1748.30 2885.30 C 1756.30 2885.30 1765.00 2881.30 1765.00 2875.00 L 1765.00 2847.80 C 1765.00 2841.30 1756.20 2838.60 1748.30 2838.60 L 1704.20 2838.60 Z" fill="url(#SVGID_13_)" fill-rule="nonzero" group-id="1" node-id="703" stroke="none" target-height="80" target-width="103.19995" target-x="1671.8" target-y="2828.6"></path><path d="M 1718.40 2912.90 C 1718.40 2916.00 1715.90 2918.60 1712.70 2918.60 L 1710.70 2918.60 C 1707.60 2918.60 1705.00 2916.10 1705.00 2912.90 L 1705.00 2877.70 C 1705.00 2874.60 1707.50 2872.00 1710.70 2872.00 L 1712.70 2872.00 C 1715.80 2872.00 1718.40 2874.50 1718.40 2877.70 L 1718.40 2912.90 Z" fill="url(#SVGID_14_)" fill-rule="nonzero" group-id="1" node-id="705" stroke="none" target-height="46.600098" target-width="13.400024" target-x="1705" target-y="2872"></path><path d="M 1748.30 2912.90 C 1748.30 2916.00 1745.80 2918.60 1742.60 2918.60 L 1740.60 2918.60 C 1737.50 2918.60 1734.90 2916.10 1734.90 2912.90 L 1734.90 2877.70 C 1734.90 2874.60 1737.40 2872.00 1740.60 2872.00 L 1742.60 2872.00 C 1745.70 2872.00 1748.30 2874.50 1748.30 2877.70 L 1748.30 2912.90 Z" fill="url(#SVGID_15_)" fill-rule="nonzero" group-id="1" node-id="707" stroke="none" target-height="46.600098" target-width="13.400024" target-x="1734.9" target-y="2872"></path><path d="M 1259.60 3187.70 C 1259.20 3187.70 1259.90 3187.60 1259.50 3187.40 C 1235.90 3175.90 1222.30 3152.40 1222.30 3126.20 L 1222.30 3089.00 C 1222.30 3087.60 1222.60 3086.50 1224.00 3086.50 C 1225.40 3086.50 1225.70 3087.60 1225.70 3089.00 L 1225.70 3126.30 C 1225.70 3150.60 1239.10 3172.40 1260.90 3183.10 C 1262.10 3183.70 1262.50 3185.20 1261.90 3186.40 C 1261.50 3187.20 1260.50 3187.70 1259.60 3187.70 Z" fill="#ffffff" fill-rule="nonzero" group-id="1" node-id="709" stroke="none" target-height="101.19995" target-width="39.866333" target-x="1222.3" target-y="3086.5"></path><path d="M 1834.90 3119.40 C 1833.50 3119.40 1831.60 3118.30 1831.60 3116.90 L 1831.60 2976.90 C 1831.60 2975.50 1833.60 2974.40 1834.90 2974.40 C 1836.30 2974.40 1838.20 2975.50 1838.20 2976.90 L 1838.20 3116.90 C 1838.20 3118.30 1836.30 3119.40 1834.90 3119.40 Z" fill="#ffffff" fill-rule="nonzero" group-id="1" node-id="711" stroke="none" target-height="145" target-width="6.5999756" target-x="1831.6" target-y="2974.4"></path><path d="M 1834.90 2941.60 C 1833.50 2941.60 1831.60 2940.50 1831.60 2939.10 L 1831.60 2874.90 C 1831.60 2873.50 1833.60 2872.40 1834.90 2872.40 C 1836.30 2872.40 1838.20 2873.50 1838.20 2874.90 L 1838.20 2939.10 C 1838.20 2940.50 1836.30 2941.60 1834.90 2941.60 Z" fill="#ffffff" fill-rule="nonzero" group-id="1" node-id="713" stroke="none" target-height="69.200195" target-width="6.5999756" target-x="1831.6" target-y="2872.4"></path><path d="M 1484.20 931.70 L 1375.60 864.30 C 1373.40 862.90 1370.70 862.40 1368.10 863.00 L 1226.70 891.90 C 1222.90 892.70 1219.80 895.50 1218.80 899.30 C 1217.80 903.10 1219.00 907.10 1221.80 909.70 L 1306.50 985.90 L 1484.20 931.70 Z" fill="url(#SVGID_16_)" fill-rule="nonzero" group-id="1" node-id="715" stroke="none" target-height="123.14703" target-width="265.71814" target-x="1218.4818" target-y="862.753"></path><path d="M 542.70 1056.40 C 542.70 1056.40 1860.30 821.10 1911.70 837.60 C 1963.10 854.10 2055.00 908.70 2082.00 908.80 C 2109.10 908.90 2203.80 925.60 2179.10 993.20 C 2154.40 1060.80 1061.80 1267.30 934.70 1223.40 C 807.60 1179.50 485.60 1096.80 485.60 1096.80 C 485.60 1096.80 456.00 1050.60 542.70 1056.40 Z" fill="url(#SVGID_17_)" fill-rule="nonzero" group-id="1" node-id="717" stroke="none" target-height="392.6894" target-width="1702.405" target-x="480.72583" target-y="836.77277"></path><path d="M 924.10 993.20 L 734.60 887.60 C 722.70 881.00 712.90 871.20 706.40 859.30 L 629.90 720.80 C 623.80 709.80 611.30 704.10 599.00 706.70 C 559.70 715.00 478.20 733.20 477.80 742.50 C 477.30 754.70 516.80 1060.70 516.80 1060.70 L 924.10 993.20 Z" fill="url(#SVGID_18_)" fill-rule="nonzero" group-id="1" node-id="719" stroke="none" target-height="354.56165" target-width="446.3" target-x="477.8" target-y="706.1383"></path><path d="M 555.00 1100.30 L 539.20 1164.80 C 536.50 1175.70 539.00 1186.80 545.90 1195.60 C 552.80 1204.40 563.40 1209.20 574.60 1209.20 L 641.60 1209.50 C 652.20 1209.50 662.20 1205.40 669.20 1197.50 L 788.90 1061.60 L 555.00 1100.30 Z" fill="url(#SVGID_19_)" fill-rule="nonzero" group-id="1" node-id="721" stroke="none" target-height="147.90002" target-width="250.76318" target-x="538.13684" target-y="1061.6"></path><path d="M 1244.80 1316.60 C 1244.80 1316.60 1285.20 1366.60 1351.20 1366.80 C 1417.20 1367.00 1498.60 1349.20 1513.90 1325.90 C 1529.20 1302.60 1562.50 1130.20 1428.30 1154.40 C 1294.20 1178.70 1137.40 1256.20 1244.80 1316.60 Z" fill="url(#SVGID_20_)" fill-rule="nonzero" group-id="1" node-id="723" stroke="none" target-height="214.7251" target-width="319.8357" target-x="1209.1924" target-y="1152.075"></path><path d="M 1170.40 1138.10 L 1483.50 1084.10 L 1219.60 1420.90 C 1215.90 1425.60 1210.40 1428.60 1204.40 1429.10 L 1016.90 1444.20 C 1008.80 1444.90 1001.00 1440.90 996.80 1433.90 C 992.60 1426.90 992.70 1418.20 997.10 1411.30 L 1170.40 1138.10 Z" fill="url(#SVGID_21_)" fill-rule="nonzero" group-id="1" node-id="725" stroke="none" target-height="360.15857" target-width="489.75208" target-x="993.7479" target-y="1084.1"></path><path d="M 1496.70 1330.60 C 1497.50 1330.80 1498.30 1330.80 1499.10 1330.70 C 1503.30 1330.20 1507.50 1325.80 1511.60 1317.80 C 1524.80 1292.10 1533.40 1237.00 1510.90 1195.00 L 1510.90 1195.00 C 1504.20 1182.60 1491.90 1174.60 1477.80 1173.50 C 1466.30 1172.70 1451.50 1176.10 1446.80 1196.90 C 1439.40 1229.60 1470.60 1305.10 1488.30 1324.50 C 1491.30 1328.10 1494.10 1330.10 1496.70 1330.60 Z M 1482.10 1180.00 C 1492.10 1182.10 1501.00 1188.70 1505.80 1197.80 L 1505.80 1197.80 C 1527.10 1237.50 1518.80 1291.40 1506.50 1315.30 C 1502.90 1322.20 1499.90 1324.90 1498.30 1325.10 C 1498.10 1325.10 1496.30 1325.20 1492.40 1320.90 C 1474.00 1300.60 1445.70 1227.20 1452.30 1198.40 C 1455.40 1184.60 1463.60 1178.40 1477.40 1179.40 C 1478.90 1179.40 1480.50 1179.60 1482.10 1180.00 Z" fill="url(#SVGID_22_)" fill-rule="nonzero" group-id="1" node-id="727" stroke="none" target-height="157.34167" target-width="79.07568" target-x="1445.6897" target-y="1173.4209"></path><path d="M 485.10 815.00 L 517.60 815.10 L 547.20 1022.70 L 513.00 1030.60 Z" fill="url(#SVGID_23_)" fill-rule="nonzero" group-id="1" node-id="729" stroke="none" target-height="215.59998" target-width="62.100006" target-x="485.1" target-y="815"></path><path d="M 1018.30 1066.90 C 1018.30 1056.20 1027.10 1047.60 1037.70 1047.60 L 1038.90 1047.60 C 1049.60 1047.60 1058.20 1056.40 1058.20 1067.00 L 1058.10 1079.60 C 1058.10 1090.30 1049.30 1098.90 1038.70 1098.90 L 1037.50 1098.90 C 1026.80 1098.90 1018.20 1090.10 1018.20 1079.50 L 1018.30 1066.90 Z" fill="url(#SVGID_24_)" fill-rule="nonzero" group-id="1" node-id="731" stroke="none" target-height="51.30005" target-width="39.99994" target-x="1018.2" target-y="1047.6"></path><path d="M 1092.60 1061.50 C 1092.60 1050.80 1101.40 1042.20 1112.00 1042.20 L 1113.20 1042.20 C 1123.90 1042.20 1132.50 1051.00 1132.50 1061.60 L 1132.40 1074.20 C 1132.40 1084.90 1123.60 1093.50 1113.00 1093.50 L 1111.80 1093.50 C 1101.10 1093.50 1092.50 1084.70 1092.50 1074.10 L 1092.60 1061.50 Z" fill="url(#SVGID_25_)" fill-rule="nonzero" group-id="1" node-id="733" stroke="none" target-height="51.30005" target-width="40" target-x="1092.5" target-y="1042.2"></path><path d="M 1166.80 1044.70 C 1166.80 1034.00 1175.60 1025.40 1186.20 1025.40 L 1187.40 1025.40 C 1198.10 1025.40 1206.70 1034.20 1206.70 1044.80 L 1206.60 1057.40 C 1206.60 1068.10 1197.80 1076.70 1187.20 1076.70 L 1186.00 1076.70 C 1175.30 1076.70 1166.70 1067.90 1166.70 1057.30 L 1166.80 1044.70 Z" fill="url(#SVGID_26_)" fill-rule="nonzero" group-id="1" node-id="735" stroke="none" target-height="51.299927" target-width="40" target-x="1166.7" target-y="1025.4"></path><path d="M 1235.40 1033.60 C 1235.40 1022.90 1244.20 1014.30 1254.80 1014.30 L 1256.00 1014.30 C 1266.70 1014.30 1275.30 1023.10 1275.30 1033.70 L 1275.20 1046.30 C 1275.20 1057.00 1266.40 1065.60 1255.80 1065.60 L 1254.60 1065.60 C 1243.90 1065.60 1235.30 1056.80 1235.30 1046.20 L 1235.40 1033.60 Z" fill="url(#SVGID_27_)" fill-rule="nonzero" group-id="1" node-id="737" stroke="none" target-height="51.299988" target-width="40" target-x="1235.3" target-y="1014.3"></path><path d="M 1315.30 1022.50 C 1315.30 1011.80 1324.10 1003.20 1334.70 1003.20 L 1335.90 1003.20 C 1346.60 1003.20 1355.20 1012.00 1355.20 1022.60 L 1355.10 1035.20 C 1355.10 1045.90 1346.30 1054.50 1335.70 1054.50 L 1334.50 1054.50 C 1323.80 1054.50 1315.20 1045.70 1315.20 1035.10 L 1315.30 1022.50 Z" fill="url(#SVGID_28_)" fill-rule="nonzero" group-id="1" node-id="739" stroke="none" target-height="51.299988" target-width="40" target-x="1315.2" target-y="1003.2"></path><path d="M 1389.60 1011.40 C 1389.60 1000.70 1398.40 992.10 1409.00 992.10 L 1410.20 992.10 C 1420.90 992.10 1429.50 1000.90 1429.50 1011.50 L 1429.40 1024.10 C 1429.40 1034.80 1420.60 1043.40 1410.00 1043.40 L 1408.80 1043.40 C 1398.10 1043.40 1389.50 1034.60 1389.50 1024.00 L 1389.60 1011.40 Z" fill="url(#SVGID_29_)" fill-rule="nonzero" group-id="1" node-id="741" stroke="none" target-height="51.30005" target-width="40" target-x="1389.5" target-y="992.1"></path><path d="M 1463.90 994.60 C 1463.90 983.90 1472.70 975.30 1483.30 975.30 L 1484.50 975.30 C 1495.20 975.30 1503.80 984.10 1503.80 994.70 L 1503.70 1007.30 C 1503.70 1018.00 1494.90 1026.60 1484.30 1026.60 L 1483.10 1026.60 C 1472.40 1026.60 1463.80 1017.80 1463.80 1007.20 L 1463.90 994.60 Z" fill="url(#SVGID_30_)" fill-rule="nonzero" group-id="1" node-id="743" stroke="none" target-height="51.299988" target-width="40" target-x="1463.8" target-y="975.3"></path><path d="M 1532.40 989.20 C 1532.40 978.50 1541.20 969.90 1551.80 969.90 L 1553.00 969.90 C 1563.70 969.90 1572.30 978.70 1572.30 989.30 L 1572.20 1001.90 C 1572.20 1012.60 1563.40 1021.20 1552.80 1021.20 L 1551.60 1021.20 C 1540.90 1021.20 1532.30 1012.40 1532.30 1001.80 L 1532.40 989.20 Z" fill="url(#SVGID_31_)" fill-rule="nonzero" group-id="1" node-id="745" stroke="none" target-height="51.299988" target-width="40" target-x="1532.3" target-y="969.9"></path><path d="M 1606.70 978.10 C 1606.70 967.40 1615.50 958.80 1626.10 958.80 L 1627.30 958.80 C 1638.00 958.80 1646.60 967.60 1646.60 978.20 L 1646.50 990.80 C 1646.50 1001.50 1637.70 1010.10 1627.10 1010.10 L 1625.90 1010.10 C 1615.20 1010.10 1606.60 1001.30 1606.60 990.70 L 1606.70 978.10 Z" fill="url(#SVGID_32_)" fill-rule="nonzero" group-id="1" node-id="747" stroke="none" target-height="51.299988" target-width="40" target-x="1606.6" target-y="958.8"></path><path d="M 1680.90 961.30 C 1680.90 950.60 1689.70 942.00 1700.30 942.00 L 1701.50 942.00 C 1712.20 942.00 1720.80 950.80 1720.80 961.40 L 1720.70 974.00 C 1720.70 984.70 1711.90 993.30 1701.30 993.30 L 1700.10 993.30 C 1689.40 993.30 1680.80 984.50 1680.80 973.90 L 1680.90 961.30 Z" fill="url(#SVGID_33_)" fill-rule="nonzero" group-id="1" node-id="749" stroke="none" target-height="51.299988" target-width="40" target-x="1680.8" target-y="942"></path><path d="M 1749.50 955.90 C 1749.50 945.20 1758.30 936.60 1768.90 936.60 L 1770.10 936.60 C 1780.80 936.60 1789.40 945.40 1789.40 956.00 L 1789.30 968.60 C 1789.30 979.30 1780.50 987.90 1769.90 987.90 L 1768.70 987.90 C 1758.00 987.90 1749.40 979.10 1749.40 968.50 L 1749.50 955.90 Z" fill="url(#SVGID_34_)" fill-rule="nonzero" group-id="1" node-id="751" stroke="none" target-height="51.30005" target-width="40" target-x="1749.4" target-y="936.6"></path><path d="M 2003.40 878.70 L 1873.00 914.30 C 1863.20 917.00 1856.70 926.30 1857.60 936.40 C 1858.60 948.40 1860.40 962.00 1863.10 960.90 C 1867.90 958.90 2072.20 907.90 2072.20 907.90 L 2003.40 878.70 Z" fill="url(#SVGID_35_)" fill-rule="nonzero" group-id="1" node-id="753" stroke="none" target-height="82.201965" target-width="214.62366" target-x="1857.5763" target-y="878.7"></path><path d="M 2400.70 2735.40 C 2425.00 2644.30 2476.70 2570.10 2539.90 2524.90 C 2596.40 2484.50 2635.70 2423.90 2648.10 2355.60 C 2649.40 2348.40 2651.00 2341.20 2652.90 2334.00 C 2682.10 2224.50 2772.80 2153.50 2855.60 2175.60 C 2938.40 2197.60 2981.90 2304.30 2952.70 2413.80 C 2946.70 2436.20 2938.20 2457.00 2927.70 2475.70 C 2894.10 2535.40 2883.20 2605.50 2899.70 2672.00 C 2914.40 2731.40 2914.40 2799.10 2896.20 2867.40 C 2869.10 2969.20 2807.60 3050.00 2734.10 3092.70 C 2706.30 3108.90 2681.50 3130.00 2661.40 3155.00 C 2627.90 3196.60 2578.90 3217.80 2532.50 3205.40 C 2482.40 3192.00 2449.10 3143.40 2444.20 3084.90 C 2441.40 3051.80 2432.10 3019.70 2418.00 2989.60 C 2384.60 2918.60 2376.20 2827.50 2400.70 2735.40 Z" fill="#91b3fa" fill-rule="nonzero" group-id="1" node-id="755" stroke="none" target-height="1037.3391" target-width="575.17334" target-x="2386.5842" target-y="2171.5842"></path><path d="M 2795.60 2284.40 C 2765.50 2353.90 2737.70 2424.30 2710.60 2495.00 C 2703.80 2512.70 2697.30 2530.50 2690.80 2548.20 L 2681.00 2574.80 L 2671.40 2601.50 C 2665.10 2619.30 2658.50 2637.10 2652.40 2655.00 L 2634.00 2708.70 C 2622.20 2744.70 2610.10 2780.60 2598.90 2816.80 C 2593.30 2834.90 2587.40 2852.90 2582.10 2871.10 L 2566.20 2925.60 C 2545.70 2998.50 2527.00 3072.00 2512.10 3146.30 L 2515.30 3147.00 L 2528.60 3091.90 L 2531.90 3078.10 L 2535.50 3064.40 L 2542.80 3037.00 L 2550.10 3009.60 C 2552.50 3000.50 2555.30 2991.40 2557.80 2982.30 C 2563.00 2964.10 2568.10 2945.90 2573.50 2927.80 C 2595.40 2855.40 2618.30 2783.30 2642.60 2711.70 C 2655.00 2676.00 2667.20 2640.20 2679.90 2604.60 L 2689.30 2577.90 L 2699.00 2551.20 C 2705.40 2533.40 2711.90 2515.60 2718.50 2497.90 C 2731.40 2462.40 2744.60 2426.90 2758.10 2391.60 C 2771.40 2356.20 2785.00 2320.90 2798.70 2285.60 L 2795.60 2284.40 Z" fill="#ffffff" fill-opacity="0.57" fill-rule="nonzero" group-id="1,5" node-id="759" stroke-linecap="butt" stroke-opacity="0.57" stroke-width="1" target-height="862.6001" target-width="286.59985" target-x="2512.1" target-y="2284.4"></path><path d="M 2663.90 2866.90 C 2709.90 2816.20 2767.90 2785.50 2823.70 2777.40 C 2873.60 2770.10 2919.10 2744.10 2949.80 2704.10 C 2953.00 2699.90 2956.50 2695.80 2960.10 2691.80 C 3015.40 2630.80 3097.50 2615.20 3143.50 2656.90 C 3189.50 2698.60 3181.90 2781.80 3126.60 2842.80 C 3115.30 2855.30 3102.90 2865.80 3089.80 2874.40 C 3048.30 2901.70 3017.80 2943.30 3006.30 2991.70 C 2996.00 3034.90 2973.40 3078.60 2938.90 3116.60 C 2887.50 3173.30 2821.00 3204.90 2759.40 3208.10 C 2736.10 3209.30 2713.10 3214.70 2691.80 3224.10 C 2656.40 3239.80 2617.80 3237.20 2591.90 3213.80 C 2564.10 3188.50 2558.90 3146.10 2575.20 3106.80 C 2584.40 3084.50 2589.20 3060.70 2590.10 3036.60 C 2592.50 2979.70 2617.40 2918.10 2663.90 2866.90 Z" fill="#bdd0fb" fill-rule="nonzero" group-id="1" node-id="762" stroke="none" target-height="600.44946" target-width="607.552" target-x="2565.991" target-y="2633.5361"></path><path d="M 3068.70 2707.10 C 3026.10 2741.90 2984.70 2778.10 2943.70 2814.70 C 2933.40 2823.80 2923.30 2833.20 2913.20 2842.40 L 2898.00 2856.30 L 2882.90 2870.30 C 2872.90 2879.70 2862.70 2889.00 2852.80 2898.50 L 2823.00 2927.10 C 2803.40 2946.40 2783.60 2965.50 2764.40 2985.20 C 2754.80 2995.00 2744.90 3004.60 2735.50 3014.60 L 2707.10 3044.50 C 2669.60 3084.70 2633.00 3125.90 2598.70 3168.90 L 2600.50 3170.40 L 2627.40 3139.20 L 2634.10 3131.40 L 2641.00 3123.80 L 2654.90 3108.60 L 2668.70 3093.30 C 2673.30 3088.20 2678.10 3083.30 2682.80 3078.30 C 2692.20 3068.30 2701.60 3058.30 2711.10 3048.40 C 2749.30 3009.00 2788.10 2970.10 2827.70 2932.00 C 2847.60 2913.10 2867.40 2894.00 2887.40 2875.30 L 2902.40 2861.20 L 2917.50 2847.20 C 2927.60 2837.90 2937.70 2828.50 2947.80 2819.30 C 2968.00 2800.70 2988.30 2782.20 3008.80 2763.90 C 3029.20 2745.50 3049.70 2727.20 3070.30 2709.10 L 3068.70 2707.10 Z" fill="#ffffff" fill-opacity="0.57" fill-rule="nonzero" group-id="1,6" node-id="766" stroke-linecap="butt" stroke-opacity="0.57" stroke-width="1" target-height="463.2998" target-width="471.6001" target-x="2598.7" target-y="2707.1"></path><path d="M 2416.50 2045.50 L 1738.30 2033.20 L 1738.00 2073.40 C 1738.00 2078.70 1733.60 2082.90 1727.90 2082.80 C 1722.20 2082.70 1717.90 2078.40 1717.90 2073.10 L 1718.20 2032.80 L 1517.50 2029.20 C 1503.10 2028.90 1492.30 2041.50 1492.20 2054.80 L 1491.70 2540.00 C 1491.70 2553.00 1502.40 2561.40 1516.60 2561.30 L 1714.80 2559.70 L 1715.00 2524.30 C 1715.00 2519.10 1719.40 2514.90 1725.00 2514.90 C 1730.60 2514.90 1734.90 2519.00 1734.90 2524.20 L 1734.70 2559.60 L 2404.90 2554.30 C 2417.90 2554.20 2428.50 2546.00 2428.80 2533.60 L 2439.60 2070.70 C 2439.90 2058.10 2429.70 2045.70 2416.50 2045.50 Z M 1735.30 2477.30 C 1735.30 2482.50 1730.90 2486.70 1725.30 2486.70 C 1719.70 2486.70 1715.40 2482.50 1715.40 2477.40 L 1715.70 2424.10 C 1715.70 2418.90 1720.10 2414.70 1725.70 2414.70 C 1731.30 2414.70 1735.60 2418.90 1735.60 2424.10 L 1735.30 2477.30 Z M 1736.00 2377.10 C 1736.00 2382.30 1731.60 2386.50 1726.00 2386.50 C 1720.40 2386.50 1716.10 2382.30 1716.10 2377.10 L 1716.40 2323.60 C 1716.40 2318.40 1720.80 2314.20 1726.40 2314.20 C 1732.00 2314.20 1736.30 2318.50 1736.30 2323.70 L 1736.00 2377.10 Z M 1736.70 2276.30 C 1736.70 2281.50 1732.30 2285.70 1726.70 2285.70 C 1721.10 2285.70 1716.70 2281.40 1716.80 2276.20 L 1717.10 2222.40 C 1717.10 2217.20 1721.50 2212.90 1727.20 2213.00 C 1732.80 2213.10 1737.20 2217.30 1737.10 2222.60 L 1736.70 2276.30 Z M 1737.40 2175.10 C 1737.40 2180.40 1733.00 2184.60 1727.30 2184.50 C 1721.60 2184.40 1717.30 2180.10 1717.30 2174.90 L 1717.60 2120.90 C 1717.60 2115.60 1722.00 2111.40 1727.70 2111.50 C 1733.40 2111.60 1737.70 2115.90 1737.70 2121.20 L 1737.40 2175.10 Z" fill="url(#SVGID_36_)" fill-rule="nonzero" group-id="1" node-id="769" stroke="none" target-height="532.1001" target-width="947.90015" target-x="1491.7" target-y="2029.2"></path><path d="M 2224.70 2105.80 C 2224.50 2116.50 2215.20 2125.10 2204.00 2124.90 L 1948.30 2121.40 C 1936.80 2121.20 1927.50 2112.30 1927.60 2101.40 L 1927.60 2099.70 C 1927.70 2088.80 1937.20 2080.10 1948.70 2080.30 L 2204.70 2084.40 C 2215.90 2084.60 2224.90 2093.40 2224.70 2104.10 L 2224.70 2105.80 Z" fill="#91b3fa" fill-rule="nonzero" group-id="1" node-id="771" stroke="none" target-height="44.599854" target-width="297.09998" target-x="1927.6" target-y="2080.3"></path><path d="M 2395.10 2107.50 C 2394.90 2118.50 2385.40 2127.40 2373.90 2127.20 L 2289.90 2126.00 C 2278.30 2125.80 2269.10 2116.70 2269.30 2105.60 L 2269.30 2105.50 C 2269.50 2094.40 2279.10 2085.50 2290.70 2085.70 L 2374.80 2087.00 C 2386.30 2087.20 2395.40 2096.30 2395.20 2107.30 L 2395.10 2107.50 Z" fill="#91b3fa" fill-rule="nonzero" group-id="1" node-id="773" stroke="none" target-height="41.5" target-width="125.8999" target-x="2269.3" target-y="2085.7"></path><path d="M 2359.70 2390.60 C 2359.60 2397.20 2353.90 2402.50 2347.00 2402.50 L 1952.40 2402.60 C 1945.20 2402.60 1939.50 2397.20 1939.50 2390.40 L 1939.50 2390.40 C 1939.60 2383.70 1945.50 2378.20 1952.60 2378.30 L 2347.40 2378.70 C 2354.40 2378.70 2359.90 2384.00 2359.70 2390.60 L 2359.70 2390.60 Z" fill="#91b3fa" fill-rule="nonzero" group-id="1" node-id="775" stroke="none" target-height="24.300049" target-width="420.19995" target-x="1939.5" target-y="2378.3"></path><path d="M 2358.80 2434.20 C 2358.70 2440.80 2353.00 2446.10 2346.10 2446.10 L 2093.60 2446.70 C 2086.50 2446.70 2080.90 2441.30 2081.00 2434.70 L 2081.00 2434.70 C 2081.10 2428.00 2086.90 2422.60 2094.00 2422.60 L 2346.70 2422.30 C 2353.50 2422.40 2358.90 2427.70 2358.80 2434.20 L 2358.80 2434.20 Z" fill="#91b3fa" fill-rule="nonzero" group-id="1" node-id="777" stroke="none" target-height="24.399902" target-width="277.80005" target-x="2081" target-y="2422.3"></path><path d="M 2357.80 2479.70 C 2357.70 2486.20 2352.00 2491.60 2345.10 2491.60 L 2092.80 2492.80 C 2085.70 2492.80 2080.10 2487.50 2080.20 2480.80 L 2080.20 2480.80 C 2080.30 2474.20 2086.10 2468.80 2093.20 2468.70 L 2345.60 2467.80 C 2352.50 2467.90 2357.90 2473.20 2357.80 2479.70 L 2357.80 2479.70 Z" fill="#91b3fa" fill-rule="nonzero" group-id="1" node-id="779" stroke="none" target-height="25" target-width="277.6001" target-x="2080.2" target-y="2467.8"></path><path d="M 1545.90 2518.00 C 1545.90 2521.40 1542.90 2524.20 1539.10 2524.20 L 1539.10 2524.20 C 1535.40 2524.20 1532.40 2521.50 1532.40 2518.10 L 1532.60 2429.50 C 1532.60 2426.10 1535.60 2423.30 1539.40 2423.30 L 1539.40 2423.30 C 1543.10 2423.30 1546.20 2426.10 1546.10 2429.50 L 1545.90 2518.00 Z" fill="#91b3fa" fill-rule="nonzero" group-id="1" node-id="781" stroke="none" target-height="100.8999" target-width="13.699951" target-x="1532.4" target-y="2423.3"></path><path d="M 1575.10 2516.90 C 1575.10 2520.40 1571.10 2523.20 1566.10 2523.20 L 1566.10 2523.20 C 1561.10 2523.20 1557.10 2520.40 1557.10 2517.00 L 1557.30 2428.70 C 1557.30 2425.20 1561.30 2422.40 1566.30 2422.40 L 1566.30 2422.40 C 1571.30 2422.40 1575.30 2425.20 1575.30 2428.70 L 1575.10 2516.90 Z" fill="#91b3fa" fill-rule="nonzero" group-id="1" node-id="783" stroke="none" target-height="100.80005" target-width="18.200073" target-x="1557.1" target-y="2422.4"></path><path d="M 1601.90 2517.70 C 1601.90 2521.10 1598.90 2523.90 1595.20 2523.90 L 1595.20 2523.90 C 1591.50 2523.90 1588.50 2521.20 1588.50 2517.80 L 1588.80 2429.50 C 1588.80 2426.10 1591.80 2423.30 1595.50 2423.30 L 1595.50 2423.30 C 1599.20 2423.30 1602.20 2426.10 1602.20 2429.50 L 1601.90 2517.70 Z" fill="#91b3fa" fill-rule="nonzero" group-id="1" node-id="785" stroke="none" target-height="100.59985" target-width="13.699951" target-x="1588.5" target-y="2423.3"></path><path d="M 1666.50 2517.30 C 1666.50 2520.70 1663.50 2523.40 1659.80 2523.50 L 1659.80 2523.50 C 1656.10 2523.50 1653.10 2520.80 1653.20 2517.40 L 1653.60 2429.40 C 1653.60 2426.00 1656.60 2423.20 1660.30 2423.20 L 1660.30 2423.20 C 1664.00 2423.20 1667.00 2425.90 1666.90 2429.30 L 1666.50 2517.30 Z" fill="#91b3fa" fill-rule="nonzero" group-id="1" node-id="787" stroke="none" target-height="100.30005" target-width="13.700073" target-x="1653.2" target-y="2423.2"></path><path d="M 1626.40 2517.50 C 1626.40 2520.90 1623.40 2523.70 1619.70 2523.70 L 1619.70 2523.70 C 1616.00 2523.70 1613.00 2521.00 1613.00 2517.60 L 1613.30 2429.40 C 1613.30 2426.00 1616.30 2423.20 1620.00 2423.20 L 1620.00 2423.20 C 1623.70 2423.20 1626.70 2426.00 1626.70 2429.40 L 1626.40 2517.50 Z" fill="#91b3fa" fill-rule="nonzero" group-id="1" node-id="789" stroke="none" target-height="100.5" target-width="13.699951" target-x="1613" target-y="2423.2"></path><path d="M 1642.00 2520.50 C 1642.00 2522.20 1640.50 2523.60 1638.60 2523.60 L 1638.60 2523.60 C 1636.80 2523.60 1635.30 2522.20 1635.30 2520.60 L 1635.70 2426.30 C 1635.70 2424.60 1637.20 2423.20 1639.10 2423.20 L 1639.10 2423.20 C 1640.90 2423.20 1642.40 2424.60 1642.40 2426.30 L 1642.00 2520.50 Z" fill="#91b3fa" fill-rule="nonzero" group-id="1" node-id="791" stroke="none" target-height="100.40015" target-width="7.0999756" target-x="1635.3" target-y="2423.2"></path><path d="M 3069.50 1527.20 C 3069.50 1619.93 2994.33 1695.10 2901.60 1695.10 C 2808.87 1695.10 2733.70 1619.93 2733.70 1527.20 C 2733.70 1434.47 2808.87 1359.30 2901.60 1359.30 C 2994.33 1359.30 3069.50 1434.47 3069.50 1527.20 Z" fill="url(#SVGID_37_)" fill-rule="nonzero" group-id="1" node-id="793" stroke="none" target-height="335.79993" target-width="335.80005" target-x="2733.7" target-y="1359.3"></path><path d="M 3069.20 1510.30 L 2901.60 1510.30 L 2733.70 1510.30 C 2733.70 1510.30 2720.30 1607.40 2870.20 1862.70 C 2876.70 1873.80 2888.70 1882.50 2901.60 1882.50 C 2914.50 1882.50 2926.50 1873.00 2933.00 1861.90 C 3082.80 1606.60 3069.20 1510.30 3069.20 1510.30 Z" fill="url(#SVGID_38_)" fill-rule="nonzero" group-id="1" node-id="795" stroke="none" target-height="372.19995" target-width="336.0747" target-x="2733.417" target-y="1510.3"></path><path d="M 2903.50 1889.90 L 2903.50 1889.90 L 2901.50 1889.90 C 2886.90 1889.90 2873.20 1882.30 2865.90 1869.80 C 2778.30 1720.60 2746.20 1626.50 2734.70 1573.70 C 2731.40 1561.60 2729.50 1549.80 2728.90 1537.60 C 2727.90 1525.10 2728.70 1519.90 2728.80 1519.40 L 2729.20 1516.70 C 2736.00 1426.50 2811.00 1356.30 2901.50 1356.30 C 2993.10 1356.30 3068.90 1427.50 3074.00 1518.40 C 3074.10 1519.60 3074.40 1522.60 3074.30 1527.70 L 3074.30 1528.30 C 3074.30 1544.80 3072.00 1561.10 3067.40 1576.90 C 3055.50 1629.60 3024.20 1723.10 2938.10 1869.70 C 2930.80 1882.30 2916.80 1889.90 2903.50 1889.90 Z M 2738.30 1520.30 C 2738.30 1520.30 2738.30 1529.10 2738.80 1534.50 L 2738.80 1535.80 C 2739.40 1547.40 2741.10 1559.20 2744.30 1570.70 L 2744.40 1571.20 C 2755.70 1623.30 2787.50 1716.60 2874.50 1864.80 C 2880.10 1874.30 2891.50 1880.30 2902.70 1880.30 L 2903.70 1885.20 L 2903.70 1880.30 C 2910.40 1880.30 2925.20 1874.30 2930.90 1864.70 C 3016.40 1719.00 3050.20 1626.30 3060.20 1574.30 L 3060.20 1574.00 C 3066.90 1559.10 3066.80 1543.70 3066.80 1528.00 L 3066.80 1527.30 L 3066.80 1527.20 C 3066.80 1522.30 3065.60 1519.70 3065.50 1519.00 L 3065.00 1518.70 C 3060.20 1432.90 2988.50 1365.70 2902.00 1365.70 C 2815.70 1365.70 2744.10 1431.10 2739.10 1517.70 L 2738.70 1519.90 L 2738.30 1519.90 Z" fill="#ffffff" fill-rule="nonzero" group-id="1" node-id="797" stroke="none" target-height="533.6" target-width="345.89307" target-x="2728.407" target-y="1356.3"></path><path d="M 2999.00 1526.70 C 2999.00 1580.22 2955.62 1623.60 2902.10 1623.60 C 2848.58 1623.60 2805.20 1580.22 2805.20 1526.70 C 2805.20 1473.18 2848.58 1429.80 2902.10 1429.80 C 2955.62 1429.80 2999.00 1473.18 2999.00 1526.70 Z" fill="#ffffff" fill-opacity="0.8" fill-rule="nonzero" group-id="1,7" node-id="801" stroke-linecap="butt" stroke-opacity="0.8" stroke-width="1" target-height="193.79993" target-width="193.80005" target-x="2805.2" target-y="1429.8"></path><path d="M 2902.10 1629.00 C 2845.70 1629.00 2799.70 1583.10 2799.70 1526.60 C 2799.70 1470.20 2845.60 1424.20 2902.10 1424.20 C 2958.50 1424.20 3004.50 1470.10 3004.50 1526.60 C 3004.50 1583.10 2958.60 1629.00 2902.10 1629.00 Z M 2902.10 1435.10 C 2851.60 1435.10 2810.60 1476.20 2810.60 1526.60 C 2810.60 1577.10 2851.70 1618.10 2902.10 1618.10 C 2952.60 1618.10 2993.60 1577.00 2993.60 1526.60 C 2993.60 1476.20 2952.60 1435.10 2902.10 1435.10 Z" fill="url(#SVGID_39_)" fill-rule="nonzero" group-id="1" node-id="804" stroke="none" target-height="204.80005" target-width="204.80005" target-x="2799.7" target-y="1424.2"></path><path d="M 2810.20 1425.70 C 2809.70 1425.70 2809.30 1425.50 2809.00 1425.10 C 2808.40 1424.40 2808.50 1423.40 2809.20 1422.80 C 2836.40 1399.40 2871.20 1386.50 2907.20 1386.50 C 2908.10 1386.50 2908.80 1387.20 2908.80 1388.10 C 2908.80 1389.00 2908.10 1389.70 2907.20 1389.70 C 2872.00 1389.70 2838.00 1402.30 2811.30 1425.20 C 2810.90 1425.60 2810.50 1425.70 2810.20 1425.70 Z" fill="#ffffff" fill-rule="nonzero" group-id="1" node-id="806" stroke="none" target-height="39.19995" target-width="100.187744" target-x="2808.6123" target-y="1386.5"></path><path d="M 2758.20 1538.70 C 2757.30 1538.70 2756.60 1538.00 2756.60 1537.10 C 2756.60 1509.00 2764.40 1481.60 2779.10 1457.90 C 2779.60 1457.10 2780.60 1456.90 2781.30 1457.40 C 2782.10 1457.90 2782.30 1458.90 2781.80 1459.60 C 2767.40 1482.80 2759.80 1509.60 2759.80 1537.10 C 2759.90 1537.90 2759.10 1538.70 2758.20 1538.70 Z" fill="#ffffff" fill-rule="nonzero" group-id="1" node-id="808" stroke="none" target-height="81.545654" target-width="25.4458" target-x="2756.6" target-y="1457.1543"></path><path d="M 2191.10 1792.20 C 2191.10 1837.80 2154.10 1874.80 2108.50 1874.80 L 1834.00 1874.80 C 1788.40 1874.80 1751.40 1837.80 1751.40 1792.20 L 1751.40 1791.20 C 1751.40 1745.60 1788.40 1708.60 1834.00 1708.60 L 2108.60 1708.60 C 2154.20 1708.60 2191.20 1745.60 2191.20 1791.20 L 2191.20 1792.20 Z" fill="url(#SVGID_40_)" fill-rule="nonzero" group-id="1" node-id="810" stroke="none" target-height="166.20007" target-width="439.79993" target-x="1751.4" target-y="1708.6"></path><path d="M 1847.90 1745.00 C 1853.40 1743.90 1863.40 1743.00 1873.20 1743.00 C 1886.10 1743.00 1894.00 1744.60 1900.50 1749.10 C 1906.40 1752.60 1910.40 1758.80 1910.40 1766.90 C 1910.40 1775.70 1904.90 1783.70 1894.60 1787.50 L 1894.60 1787.80 C 1904.60 1790.30 1913.80 1798.30 1913.80 1811.40 C 1913.80 1819.90 1910.10 1826.50 1904.60 1831.00 C 1897.80 1836.90 1886.70 1839.90 1869.30 1839.90 C 1859.70 1839.90 1852.30 1839.20 1848.00 1838.60 L 1848.00 1745.00 Z M 1865.10 1782.50 L 1874.00 1782.50 C 1886.00 1782.50 1892.80 1776.90 1892.80 1768.80 C 1892.80 1759.90 1886.00 1755.80 1875.00 1755.80 C 1869.90 1755.80 1866.90 1756.10 1865.10 1756.50 L 1865.10 1782.50 Z M 1865.10 1826.30 C 1867.40 1826.60 1870.30 1826.70 1874.30 1826.70 C 1885.50 1826.70 1895.30 1822.50 1895.30 1810.70 C 1895.30 1799.70 1885.70 1795.20 1873.70 1795.20 L 1865.10 1795.20 L 1865.10 1826.30 Z" fill="#ffffff" fill-rule="nonzero" group-id="1" node-id="812" stroke="none" target-height="96.900024" target-width="65.900024" target-x="1847.9" target-y="1743"></path><path d="M 1946.50 1743.70 L 1946.50 1799.20 C 1946.50 1817.80 1954.30 1826.50 1966.00 1826.50 C 1978.60 1826.50 1986.10 1817.90 1986.10 1799.20 L 1986.10 1743.70 L 2003.50 1743.70 L 2003.50 1798.10 C 2003.50 1827.50 1988.40 1840.50 1965.50 1840.50 C 1943.50 1840.50 1929.20 1828.20 1929.20 1798.30 L 1929.20 1743.80 L 1946.50 1743.80 Z" fill="#ffffff" fill-rule="nonzero" group-id="1" node-id="814" stroke="none" target-height="96.80005" target-width="74.30005" target-x="1929.2" target-y="1743.7"></path><path d="M 2044.90 1838.90 L 2044.90 1799.20 L 2014.80 1743.70 L 2034.60 1743.70 L 2046.00 1768.10 C 2049.30 1775.20 2051.70 1780.50 2054.20 1787.00 L 2054.50 1787.00 C 2056.90 1780.90 2059.60 1775.00 2062.80 1768.10 L 2074.20 1743.70 L 2093.80 1743.70 L 2062.20 1798.80 L 2062.20 1838.90 L 2044.90 1838.90 Z" fill="#ffffff" fill-rule="nonzero" group-id="1" node-id="816" stroke="none" target-height="95.20007" target-width="79" target-x="2014.8" target-y="1743.7"></path><path d="M 2193.10 1241.40 C 2190.30 1238.00 2186.00 1236.60 2181.30 1236.70 L 1760.10 1245.50 L 1749.50 1211.70 C 1748.00 1207.00 1743.60 1204.00 1738.60 1204.10 L 1680.80 1205.60 C 1674.60 1205.80 1669.60 1210.10 1669.60 1216.30 C 1669.60 1222.50 1674.60 1226.60 1680.80 1226.40 L 1730.20 1225.20 L 1819.60 1511.00 C 1821.10 1515.80 1825.60 1519.10 1830.70 1519.20 L 2126.40 1523.20 C 2133.30 1523.30 2139.00 1518.90 2139.00 1512.40 C 2139.00 1505.80 2133.40 1501.30 2126.40 1501.30 L 1839.40 1498.20 L 1816.40 1424.00 L 2131.80 1424.50 C 2138.30 1424.50 2144.00 1420.30 2145.80 1414.40 L 2195.60 1253.40 C 2196.80 1249.20 2195.90 1244.80 2193.10 1241.40 Z" fill="#91b3fa" fill-rule="nonzero" group-id="1" node-id="818" stroke="none" target-height="319.09998" target-width="526.50793" target-x="1669.6" target-y="1204.1"></path><path d="M 1874.00 1536.80 C 1849.70 1536.40 1830.00 1555.40 1830.00 1579.00 C 1830.00 1602.60 1849.70 1622.40 1874.00 1623.00 C 1898.50 1623.60 1918.50 1604.70 1918.50 1580.80 C 1918.50 1557.00 1898.40 1537.20 1874.00 1536.80 Z M 1874.00 1600.10 C 1862.60 1599.80 1853.40 1590.60 1853.40 1579.50 C 1853.40 1568.40 1862.60 1559.60 1874.00 1559.80 C 1885.40 1560.00 1894.70 1569.20 1894.70 1580.40 C 1894.70 1591.50 1885.40 1600.30 1874.00 1600.10 Z" fill="#91b3fa" fill-rule="nonzero" group-id="1" node-id="820" stroke="none" target-height="86.19995" target-width="88.5" target-x="1830" target-y="1536.8"></path><path d="M 2071.10 1539.90 C 2045.60 1539.50 2024.90 1558.90 2024.90 1583.10 C 2024.90 1607.30 2045.60 1627.60 2071.10 1628.20 C 2096.80 1628.90 2117.80 1609.50 2117.80 1585.00 C 2117.80 1560.50 2096.80 1540.30 2071.10 1539.90 Z M 2071.10 1604.70 C 2059.20 1604.40 2049.50 1595.00 2049.50 1583.60 C 2049.50 1572.30 2059.20 1563.20 2071.10 1563.40 C 2083.10 1563.60 2092.80 1573.10 2092.80 1584.50 C 2092.80 1595.90 2083.00 1605.00 2071.10 1604.70 Z" fill="#91b3fa" fill-rule="nonzero" group-id="1" node-id="822" stroke="none" target-height="88.29993" target-width="92.900024" target-x="2024.9" target-y="1539.9"></path><path d="M 1214.60 1625.30 C 1214.60 1625.30 1260.00 1514.00 1088.70 1536.40 C 917.30 1558.80 959.00 1623.50 945.40 1674.10 C 931.90 1724.70 860.00 1782.00 659.90 1860.00 C 459.80 1938.00 519.20 2150.70 609.00 2221.20 C 698.90 2291.80 747.90 2244.90 768.80 2366.70 C 789.70 2488.50 873.10 2587.50 977.10 2484.20 C 1081.10 2380.90 1199.40 2258.80 1166.30 2098.70 C 1133.20 1938.60 1170.70 1968.90 1235.20 1895.40 C 1299.80 1821.90 1162.90 1750.80 1214.60 1625.30 Z" fill="url(#SVGID_41_)" fill-rule="nonzero" group-id="1" node-id="824" stroke="none" target-height="993.9381" target-width="727.1634" target-x="525.7375" target-y="1533.4459"></path><path d="M 1498.50 1580.20 C 1498.50 1580.20 1325.80 1823.70 1133.80 1862.30 C 1133.80 1862.30 1165.10 1969.40 1193.00 1982.90 C 1193.00 1982.90 1436.40 1800.90 1506.20 1616.50 L 1498.50 1580.20 Z" fill="url(#SVGID_42_)" fill-rule="nonzero" group-id="1" node-id="826" stroke="none" target-height="402.70007" target-width="372.3999" target-x="1133.8" target-y="1580.2"></path><path d="M 717.00 3157.80 L 711.80 3200.30 C 710.80 3208.40 691.70 3228.80 683.60 3229.80 C 670.00 3231.40 664.10 3234.40 642.70 3232.20 C 633.30 3231.20 624.00 3206.10 626.90 3197.10 C 632.10 3180.70 641.70 3156.10 655.40 3141.60 L 702.50 3141.60 C 711.30 3141.50 718.10 3149.10 717.00 3157.80 Z" fill="url(#SVGID_43_)" fill-rule="nonzero" group-id="1" node-id="828" stroke="none" target-height="91.37793" target-width="90.7135" target-x="626.35754" target-y="3141.6"></path><path d="M 1086.30 2659.90 L 1094.30 2706.70 C 1094.30 2706.70 1067.70 2976.60 1062.90 3084.60 C 1062.20 3101.50 1066.50 3118.30 1075.40 3132.70 L 1121.70 3207.90 L 1003.90 3138.40 L 1001.60 3124.00 L 1020.90 3097.50 L 995.60 2795.10 C 994.10 2777.30 997.80 2759.50 1006.20 2743.80 L 1030.60 2698.00 L 1086.30 2659.90 Z" fill="url(#SVGID_44_)" fill-rule="nonzero" group-id="1" node-id="830" stroke="none" target-height="548" target-width="126.41699" target-x="995.28296" target-y="2659.9"></path><path d="M 1129.50 3218.80 L 1091.90 3218.80 C 1084.90 3218.80 1078.20 3215.60 1073.90 3210.00 C 1062.20 3194.80 1037.90 3165.10 1026.30 3164.30 C 1010.70 3163.30 1012.70 3218.80 1012.70 3218.80 L 1003.90 3218.80 L 992.80 3149.80 C 990.00 3132.40 998.60 3115.20 1014.20 3107.10 L 1014.20 3107.10 C 1014.20 3107.10 1017.80 3133.50 1037.10 3145.20 C 1056.50 3156.90 1115.90 3198.70 1115.90 3198.70 C 1115.90 3198.70 1123.20 3197.70 1131.20 3199.10 C 1143.20 3201.30 1141.60 3218.80 1129.50 3218.80 Z" fill="url(#SVGID_45_)" fill-rule="nonzero" group-id="1" node-id="832" stroke="none" target-height="111.69995" target-width="147.09686" target-x="992.33185" target-y="3107.1"></path><path d="M 925.00 2682.10 C 925.00 2682.10 768.90 2978.20 744.10 3045.90 C 719.30 3113.50 710.60 3169.90 710.30 3175.30 C 709.80 3183.60 699.40 3191.70 670.80 3191.70 C 656.00 3191.70 648.80 3185.80 645.30 3180.10 C 642.30 3175.20 642.10 3169.10 644.70 3163.90 C 653.70 3145.60 682.40 3087.20 693.00 3060.70 C 705.70 3029.10 732.90 2885.70 747.90 2835.90 C 762.80 2786.10 779.70 2732.00 844.80 2682.20 C 844.70 2682.10 889.40 2638.40 925.00 2682.10 Z" fill="url(#SVGID_46_)" fill-rule="nonzero" group-id="1" node-id="834" stroke="none" target-height="529.0044" target-width="282.09998" target-x="642.9" target-y="2662.6956"></path><path d="M 1023.60 2196.90 C 1063.90 2026.30 961.90 1929.70 961.90 1929.70 C 1026.30 1867.90 1143.60 1839.80 1143.60 1839.80 C 1143.60 1839.80 1255.50 1921.60 1242.20 1985.70 C 1234.40 2023.20 1163.50 2210.50 1163.50 2210.50 C 1163.50 2210.50 1098.00 2241.50 1023.60 2196.90 Z" fill="url(#SVGID_47_)" fill-rule="nonzero" group-id="1" node-id="836" stroke="none" target-height="381.17676" target-width="281.3977" target-x="961.9" target-y="1839.8"></path><path d="M 934.40 2281.40 C 950.80 2232.00 1023.70 2196.90 1023.70 2196.90 C 1098.00 2241.50 1163.60 2210.50 1163.60 2210.50 C 1163.60 2210.50 1178.30 2266.70 1168.20 2318.90 C 1158.10 2371.10 1094.40 2706.70 1094.40 2706.70 C 994.10 2727.00 839.90 2686.30 839.90 2686.30 C 903.60 2572.80 918.00 2330.70 934.40 2281.40 Z" fill="url(#SVGID_48_)" fill-rule="nonzero" group-id="1" node-id="838" stroke="none" target-height="515.45264" target-width="331.82825" target-x="839.9" target-y="2196.9"></path><path d="M 1070.40 1727.10 L 1037.70 1874.20 C 1034.60 1887.20 1046.40 1885.00 1059.50 1882.60 C 1080.90 1878.60 1108.60 1870.20 1117.80 1853.50 C 1118.70 1851.80 1119.20 1849.90 1119.50 1848.00 L 1133.60 1746.00 C 1134.70 1737.90 1130.30 1730.10 1122.90 1726.70 L 1095.80 1714.70 C 1085.20 1710.00 1073.10 1715.90 1070.40 1727.10 Z" fill="url(#SVGID_49_)" fill-rule="nonzero" group-id="1" node-id="840" stroke="none" target-height="171.34521" target-width="96.54541" target-x="1037.2172" target-y="1713.0797"></path><path d="M 961.90 1929.70 C 961.90 1929.70 733.40 2093.20 932.70 2265.00 C 932.70 2265.00 940.30 2273.60 955.20 2278.10 C 962.70 2280.40 985.10 2297.20 996.40 2306.10 C 1000.00 2308.90 1005.30 2308.00 1007.70 2304.10 L 1007.70 2304.10 C 1009.60 2301.00 1009.80 2297.20 1008.30 2293.90 L 980.00 2234.10 C 972.10 2226.80 960.10 2226.20 951.70 2232.90 L 951.70 2232.90 C 946.30 2237.10 938.40 2235.40 935.40 2229.20 C 920.00 2197.80 890.90 2105.50 1010.00 2001.30 C 1014.50 1997.40 1015.60 1990.90 1012.90 1985.60 C 1004.50 1969.40 985.30 1937.50 961.90 1929.70 Z" fill="url(#SVGID_50_)" fill-rule="nonzero" group-id="1" node-id="842" stroke="none" target-height="377.99243" target-width="163.20343" target-x="851.1447" target-y="1929.7"></path><path d="M 1108.80 1587.00 C 1108.80 1587.00 1147.60 1603.40 1173.90 1659.40 C 1200.30 1715.40 1180.60 1741.30 1155.80 1744.90 C 1131.10 1748.50 1094.10 1747.90 1055.00 1711.70 C 1015.90 1675.50 1058.40 1567.60 1108.80 1587.00 Z" fill="url(#SVGID_51_)" fill-rule="nonzero" group-id="1" node-id="844" stroke="none" target-height="161.61865" target-width="146.65698" target-x="1039.7869" target-y="1584.6863"></path><path d="M 1081.30 1681.80 C 1081.30 1681.80 1052.00 1599.80 1124.70 1598.90 L 1141.80 1610.90 C 1141.80 1610.90 1168.50 1565.40 1124.70 1543.80 C 1080.90 1522.10 1029.70 1540.00 1011.10 1599.00 C 992.50 1658.00 989.30 1697.40 1020.30 1725.70 C 1051.30 1753.90 1064.10 1721.90 1064.10 1721.90 C 1064.10 1721.90 1047.20 1695.50 1054.10 1681.40 C 1061.00 1667.30 1076.80 1684.30 1076.80 1684.30 L 1081.30 1681.80 Z" fill="url(#SVGID_52_)" fill-rule="nonzero" group-id="1" node-id="846" stroke="none" target-height="202.30762" target-width="152.71875" target-x="997.1" target-y="1534.9714"></path><path d="M 1073.20 1690.90 C 1073.20 1690.90 1058.40 1648.70 1038.70 1665.50 C 1019.00 1682.30 1054.70 1704.50 1068.70 1711.70 L 1073.20 1690.90 Z" fill="url(#SVGID_53_)" fill-rule="nonzero" group-id="1" node-id="848" stroke="none" target-height="50.082764" target-width="40.27954" target-x="1032.9204" target-y="1661.6172"></path><path d="M 1494.70 1632.00 C 1494.90 1637.20 1475.40 1639.80 1470.40 1617.30 C 1472.60 1607.80 1477.80 1565.80 1485.60 1559.70 C 1526.70 1526.90 1598.90 1491.50 1598.90 1491.50 C 1606.10 1503.90 1595.40 1511.20 1595.40 1511.20 L 1559.20 1532.90 C 1562.20 1545.20 1567.00 1556.10 1566.80 1570.00 C 1566.70 1580.50 1562.30 1590.50 1554.90 1598.00 C 1547.50 1605.60 1537.60 1615.30 1528.70 1622.70 C 1512.00 1636.50 1494.70 1632.00 1494.70 1632.00 Z" fill="url(#SVGID_54_)" fill-rule="nonzero" group-id="1" node-id="850" stroke="none" target-height="144.05212" target-width="130.91235" target-x="1470.4" target-y="1491.5"></path><path d="M 1496.00 1582.90 L 1510.00 1563.40 L 1541.70 1548.60 C 1546.30 1552.80 1548.00 1558.10 1539.80 1565.90 C 1531.50 1573.70 1512.10 1614.70 1512.10 1614.70 L 1496.00 1582.90 Z" fill="url(#SVGID_55_)" fill-rule="nonzero" group-id="1" node-id="852" stroke="none" target-height="66.099976" target-width="49.503906" target-x="1496" target-y="1548.6"></path><path d="M 873.30 1793.50 C 873.00 1793.50 872.60 1793.30 872.50 1792.90 C 872.40 1792.50 872.60 1792.00 873.00 1791.80 C 945.10 1766.70 980.60 1721.00 973.20 1663.20 C 965.40 1603.40 1002.90 1593.60 1003.30 1593.50 C 1003.70 1593.40 1004.20 1593.70 1004.30 1594.10 C 1004.40 1594.50 1004.10 1595.00 1003.70 1595.10 C 1003.30 1595.20 967.30 1604.70 974.90 1663.00 C 982.50 1721.70 946.60 1768.00 873.60 1793.40 C 873.50 1793.50 873.40 1793.50 873.30 1793.50 Z" fill="#ffffff" fill-opacity="0.7" fill-rule="nonzero" group-id="1,8" node-id="856" stroke-linecap="butt" stroke-opacity="0.7" stroke-width="1" target-height="200" target-width="131.79999" target-x="872.5" target-y="1593.5"></path><path d="M 723.10 2244.40 C 723.00 2244.40 722.80 2244.40 722.70 2244.30 C 640.70 2198.80 592.40 2143.80 579.20 2080.80 C 561.90 1998.70 611.90 1931.50 612.40 1930.90 C 612.70 1930.50 613.20 1930.50 613.60 1930.70 C 614.00 1931.00 614.00 1931.50 613.80 1931.90 C 613.30 1932.60 563.70 1999.10 580.90 2080.50 C 594.00 2143.00 642.00 2197.60 723.60 2242.90 C 724.00 2243.10 724.10 2243.60 723.90 2244.00 C 723.60 2244.20 723.30 2244.40 723.10 2244.40 Z" fill="#ffffff" fill-opacity="0.7" fill-rule="nonzero" group-id="1,8" node-id="858" stroke-linecap="butt" stroke-opacity="0.7" stroke-width="1" target-height="313.82495" target-width="148.40814" target-x="575.5656" target-y="1930.575"></path></g></svg>