<?xml version="1.0" standalone="no"?><!DOCTYPE svg PUBLIC "-//W3C//DTD SVG 1.1//EN" "http://www.w3.org/Graphics/SVG/1.1/DTD/svg11.dtd"><svg height="1024" legacy-metrics="false" node-id="1" sillyvg="true" template-height="1024" template-width="1404" version="1.1" viewBox="0 0 1404 1024" width="1404" xmlns="http://www.w3.org/2000/svg" xmlns:xlink="http://www.w3.org/1999/xlink"><defs node-id="38"><clipPath id="clip0_1608_18745" node-id="35"><path d="M 0.00 0.00 L 1403.87 0.00 L 1403.87 1024.00 L 0.00 1024.00 Z" fill="#000000" fill-rule="nonzero" node-id="41" stroke="none" target-height="1024" target-width="1403.87" target-x="0" target-y="0"></path></clipPath><linearGradient gradientUnits="userSpaceOnUse" id="paint0_linear_1608_18745" node-id="32" x1="99.0925" x2="496.917" y1="810.005" y2="810.005"><stop offset="0" stop-color="#ffad9f"></stop><stop offset="1" stop-color="#f17964"></stop></linearGradient></defs><g clip-path="url(#clip0_1608_18745)" id="sillyvg_g_0" node-id="51"><path d="M 715.69 0.00 L 33.03 0.00 C 14.79 0.00 0.00 14.79 0.00 33.03 L 0.00 622.75 C 0.00 640.99 14.79 655.78 33.03 655.78 L 715.69 655.78 C 733.93 655.78 748.72 640.99 748.72 622.75 L 748.72 33.03 C 748.72 14.79 733.93 0.00 715.69 0.00 Z" fill="#fbfbfb" fill-rule="nonzero" node-id="53" stroke="none" target-height="655.778" target-width="748.719" target-x="0" target-y="0"></path><path d="M 732.20 0.00 L 16.52 0.00 C 7.39 0.00 0.00 7.39 0.00 16.52 L 0.00 60.08 C 0.00 69.20 7.39 76.60 16.52 76.60 L 732.20 76.60 C 741.33 76.60 748.72 69.20 748.72 60.08 L 748.72 16.52 C 748.72 7.39 741.33 0.00 732.20 0.00 Z" fill="#ff8f7b" fill-rule="nonzero" node-id="55" stroke="none" target-height="76.599" target-width="748.719" target-x="0" target-y="0"></path><path d="M 47.06 39.51 L 47.06 35.52 C 47.06 29.37 42.08 24.40 35.94 24.40 C 29.80 24.40 24.82 29.37 24.82 35.52 L 24.82 39.51 C 24.82 45.65 29.80 50.63 35.94 50.63 C 42.08 50.63 47.06 45.65 47.06 39.51 Z" fill="#ffffff" fill-rule="nonzero" node-id="57" stroke="none" target-height="26.232601" target-width="22.245298" target-x="24.8165" target-y="24.3951"></path><path d="M 90.42 39.51 L 90.42 35.52 C 90.42 29.37 85.44 24.40 79.30 24.40 C 73.16 24.40 68.18 29.37 68.18 35.52 L 68.18 39.51 C 68.18 45.65 73.16 50.63 79.30 50.63 C 85.44 50.63 90.42 45.65 90.42 39.51 Z" fill="#ffffff" fill-rule="nonzero" node-id="59" stroke="none" target-height="26.232601" target-width="22.245102" target-x="68.1775" target-y="24.3951"></path><path d="M 133.81 39.50 L 133.81 35.52 C 133.81 29.38 128.83 24.40 122.69 24.40 C 116.54 24.40 111.56 29.38 111.56 35.52 L 111.56 39.50 C 111.56 45.65 116.54 50.63 122.69 50.63 C 128.83 50.63 133.81 45.65 133.81 39.50 Z" fill="#ffffff" fill-rule="nonzero" node-id="61" stroke="none" target-height="26.232601" target-width="22.253998" target-x="111.558" target-y="24.3951"></path><path d="M 179.74 246.21 L 179.74 230.48 C 179.74 213.08 165.64 198.99 148.25 198.99 L 93.17 198.99 C 75.79 198.99 61.69 213.07 61.69 230.48 L 61.69 246.21 L 179.74 246.21 Z" fill="#b5d1de" fill-rule="nonzero" node-id="63" stroke="none" target-height="47.225998" target-width="118.045395" target-x="61.6896" target-y="198.985"></path><path d="M 120.71 175.38 C 135.92 175.38 148.25 163.05 148.25 147.84 C 148.25 132.63 135.92 120.30 120.71 120.30 C 105.50 120.30 93.18 132.63 93.18 147.84 C 93.18 163.05 105.50 175.38 120.71 175.38 Z" fill="#b5d1de" fill-rule="nonzero" node-id="65" stroke="none" target-height="55.071" target-width="55.070602" target-x="93.1774" target-y="120.304"></path><path d="M 604.29 150.78 L 234.28 150.78 L 234.28 168.27 L 604.29 168.27 L 604.29 150.78 Z" fill="#b5d1de" fill-rule="nonzero" node-id="67" stroke="none" target-height="17.488007" target-width="370.00897" target-x="234.283" target-y="150.778"></path><path d="M 431.71 281.94 L 61.70 281.94 L 61.70 299.43 L 431.71 299.43 L 431.71 281.94 Z" fill="#b5d1de" fill-rule="nonzero" node-id="69" stroke="none" target-height="17.487" target-width="370.0094" target-x="61.6976" target-y="281.942"></path><path d="M 163.65 579.24 L 61.70 579.24 L 61.70 596.73 L 163.65 596.73 L 163.65 579.24 Z" fill="#d8e5ed" fill-rule="nonzero" node-id="71" stroke="none" target-height="17.489014" target-width="101.948395" target-x="61.6976" target-y="579.242"></path><path d="M 306.65 579.24 L 204.69 579.24 L 204.69 596.73 L 306.65 596.73 L 306.65 579.24 Z" fill="#d8e5ed" fill-rule="nonzero" node-id="73" stroke="none" target-height="17.489014" target-width="101.957016" target-x="204.691" target-y="579.242"></path><path d="M 449.64 579.24 L 347.69 579.24 L 347.69 596.73 L 449.64 596.73 L 449.64 579.24 Z" fill="#d8e5ed" fill-rule="nonzero" node-id="75" stroke="none" target-height="17.489014" target-width="101.948" target-x="347.694" target-y="579.242"></path><path d="M 481.98 197.81 L 234.28 197.81 L 234.28 215.30 L 481.98 215.30 L 481.98 197.81 Z" fill="#b5d1de" fill-rule="nonzero" node-id="77" stroke="none" target-height="17.488998" target-width="247.696" target-x="234.283" target-y="197.812"></path><path d="M 682.53 328.11 L 61.70 328.11 L 61.70 549.62 L 682.53 549.62 L 682.53 328.11 Z" fill="#d8e5ed" fill-rule="nonzero" node-id="79" stroke="none" target-height="221.51599" target-width="620.8364" target-x="61.6976" target-y="328.109"></path><path d="M 1337.81 148.65 L 313.81 148.65 C 277.32 148.65 247.74 178.22 247.74 214.71 L 247.74 875.36 C 247.74 911.84 277.32 941.42 313.81 941.42 L 1337.81 941.42 C 1374.29 941.42 1403.87 911.84 1403.87 875.36 L 1403.87 214.71 C 1403.87 178.22 1374.29 148.65 1337.81 148.65 Z" fill="#ffffff" fill-rule="nonzero" node-id="81" stroke="none" target-height="792.774" target-width="1156.1279" target-x="247.742" target-y="148.645"></path><path d="M 363.36 280.77 C 363.36 271.65 370.75 264.26 379.87 264.26 L 758.45 264.26 C 767.57 264.26 774.97 271.65 774.97 280.77 L 774.97 443.75 C 774.97 452.87 767.57 460.26 758.45 460.26 L 379.87 460.26 C 370.75 460.26 363.36 452.87 363.36 443.75 L 363.36 280.77 Z M 823.97 280.77 C 823.97 271.65 831.36 264.26 840.48 264.26 L 1271.74 264.26 C 1280.86 264.26 1288.26 271.65 1288.26 280.77 L 1288.26 443.75 C 1288.26 452.87 1280.86 460.26 1271.74 460.26 L 840.48 460.26 C 831.36 460.26 823.97 452.87 823.97 443.75 L 823.97 280.77 Z" fill="#d8e5ed" fill-rule="evenodd" node-id="83" stroke="none" target-height="196.005" target-width="924.905" target-x="363.355" target-y="264.258"></path><path d="M 449.11 419.84 C 415.28 419.84 387.86 392.42 387.86 358.59 C 387.86 324.76 415.28 297.33 449.11 297.33 C 482.94 297.33 510.36 324.76 510.36 358.59 C 510.36 392.42 482.94 419.84 449.11 419.84 Z M 538.53 297.33 L 627.96 297.33 L 627.96 321.83 L 538.53 321.83 L 538.53 297.33 Z M 538.53 395.34 L 750.47 395.34 L 750.47 419.84 L 538.53 419.84 L 538.53 395.34 Z M 538.53 346.34 L 750.47 346.34 L 750.47 370.84 L 538.53 370.84 L 538.53 346.34 Z" fill="#ffffff" fill-rule="evenodd" node-id="85" stroke="none" target-height="122.50302" target-width="362.611" target-x="387.855" target-y="297.335"></path><path d="M 973.42 425.96 C 1007.25 425.96 1034.67 398.54 1034.67 364.71 C 1034.67 330.88 1007.25 303.46 973.42 303.46 C 939.59 303.46 912.17 330.88 912.17 364.71 C 912.17 398.54 939.59 425.96 973.42 425.96 Z" fill="#ffffff" fill-rule="nonzero" node-id="87" stroke="none" target-height="122.504974" target-width="122.49902" target-x="912.171" target-y="303.459"></path><path d="M 973.42 303.46 C 939.59 303.46 912.17 330.88 912.17 364.71 L 973.42 364.71 C 973.42 339.09 973.42 318.67 973.42 303.46 Z" fill="#ff8f7b" fill-rule="evenodd" node-id="89" stroke="none" target-height="61.251984" target-width="61.251953" target-x="912.171" target-y="303.459"></path><path d="M 1144.93 425.96 C 1178.76 425.96 1206.18 398.54 1206.18 364.71 C 1206.18 330.88 1178.76 303.46 1144.93 303.46 C 1111.10 303.46 1083.68 330.88 1083.68 364.71 C 1083.68 398.54 1111.10 425.96 1144.93 425.96 Z" fill="#ffffff" fill-rule="nonzero" node-id="91" stroke="none" target-height="122.504974" target-width="122.5" target-x="1083.68" target-y="303.459"></path><path d="M 1144.93 363.09 C 1144.93 364.17 1144.93 385.13 1144.93 425.96 C 1178.76 425.96 1206.18 398.54 1206.18 364.71 C 1206.18 364.71 1185.76 364.17 1144.93 363.09 Z" fill="#ff8f7b" fill-rule="evenodd" node-id="93" stroke="none" target-height="62.87201" target-width="61.25" target-x="1144.93" target-y="363.091"></path><path d="M 651.39 733.29 L 767.19 733.29 L 767.19 825.81 L 651.39 825.81 L 651.39 733.29 Z" fill="#d8e5ed" fill-rule="evenodd" node-id="95" stroke="none" target-height="92.518005" target-width="115.79498" target-x="651.391" target-y="733.288"></path><path d="M 363.36 807.30 L 537.04 807.30 L 537.04 825.81 L 363.36 825.81 L 363.36 807.30 Z M 363.36 751.79 L 537.04 751.79 L 537.04 770.30 L 363.36 770.30 L 363.36 751.79 Z M 363.36 696.28 L 537.04 696.28 L 537.04 714.78 L 363.36 714.78 L 363.36 696.28 Z M 363.36 640.77 L 537.04 640.77 L 537.04 659.27 L 363.36 659.27 L 363.36 640.77 Z M 363.36 585.26 L 537.04 585.26 L 537.04 603.76 L 363.36 603.76 L 363.36 585.26 Z M 363.36 529.75 L 537.04 529.75 L 537.04 548.25 L 363.36 548.25 L 363.36 529.75 Z" fill="#b5d1de" fill-rule="evenodd" node-id="97" stroke="none" target-height="296.05603" target-width="173.68997" target-x="363.355" target-y="529.75"></path><path d="M 825.08 655.58 L 940.88 655.58 L 940.88 825.81 L 825.08 825.81 L 825.08 655.58 Z" fill="#fda0a2" fill-rule="evenodd" node-id="99" stroke="none" target-height="170.23102" target-width="115.79297" target-x="825.083" target-y="655.575"></path><path d="M 998.77 577.86 L 1114.57 577.86 L 1114.57 825.81 L 998.77 825.81 L 998.77 577.86 Z" fill="#d8e5ed" fill-rule="evenodd" node-id="101" stroke="none" target-height="247.94806" target-width="115.79492" target-x="998.775" target-y="577.858"></path><path d="M 1172.46 528.52 L 1288.26 528.52 L 1288.26 825.81 L 1172.46 825.81 L 1172.46 528.52 Z" fill="#ff8f7b" fill-rule="evenodd" node-id="103" stroke="none" target-height="297.29004" target-width="115.80005" target-x="1172.46" target-y="528.516"></path><path d="M 298.01 1008.92 C 407.87 1008.92 496.92 919.87 496.92 810.01 C 496.92 700.15 407.87 611.10 298.01 611.10 C 188.15 611.10 99.10 700.15 99.10 810.01 C 99.10 919.87 188.15 1008.92 298.01 1008.92 Z" fill="url(#paint0_linear_1608_18745)" fill-rule="nonzero" node-id="105" stroke="none" target-height="397.823" target-width="397.8252" target-x="99.0968" target-y="611.097"></path><path d="M 384.00 796.90 L 309.68 796.90 L 309.68 722.58 C 309.68 715.73 304.13 710.19 297.29 710.19 C 290.45 710.19 284.90 715.73 284.90 722.58 L 284.90 796.90 L 210.58 796.90 C 203.74 796.90 198.19 802.44 198.19 809.29 C 198.19 816.14 203.74 821.68 210.58 821.68 L 284.90 821.68 L 284.90 896.00 C 284.90 902.85 290.45 908.39 297.29 908.39 C 304.13 908.39 309.68 902.85 309.68 896.00 L 309.68 821.68 L 384.00 821.68 C 390.84 821.68 396.39 816.14 396.39 809.29 C 396.39 802.44 390.84 796.90 384.00 796.90 Z" fill="#ffffff" fill-rule="evenodd" node-id="107" stroke="none" target-height="198.19305" target-width="198.193" target-x="198.194" target-y="710.194"></path></g></svg>