<?xml version="1.0" standalone="no"?><!DOCTYPE svg PUBLIC "-//W3C//DTD SVG 1.1//EN" "http://www.w3.org/Graphics/SVG/1.1/DTD/svg11.dtd"><svg t="1683367650970" class="icon" viewBox="0 0 1024 1024" version="1.1" xmlns="http://www.w3.org/2000/svg" p-id="13033" xmlns:xlink="http://www.w3.org/1999/xlink" width="200" height="200"><path d="M237.714286 292.571429c0 97.536 12.178286 146.285714 36.571428 146.285714h73.142857V292.571429H237.714286zM790.747429 292.571429c0 97.536-12.178286 146.285714-36.571429 146.285714h-73.142857V292.571429h109.714286z" fill="#000000" p-id="13034"></path><path d="M310.857143 347.428571a237.714286 201.142857 90 1 0 402.285714 0 237.714286 201.142857 90 1 0-402.285714 0Z" fill="#FFE4B9" p-id="13035"></path><path d="M201.142857 694.857143c99.218286-36.571429 109.714286-36.571429 178.285714-73.142857 0 133.997714 13.714286 267.958857 41.142858 401.956571H201.142857V694.857143zM822.857143 694.857143c-99.218286-36.571429-109.714286-36.571429-178.285714-73.142857 0 133.997714-13.714286 267.958857-41.142858 401.956571h219.428572V694.857143z" fill="#591A91" p-id="13036"></path><path d="M274.285714 338.468571c24.393143-170.678857 85.321143-256 182.857143-256 146.285714-36.571429 236.214857 36.571429 264.411429 182.857143 18.761143 97.536 3.766857 170.678857-44.982857 219.428572C652.178286 429.787429 638.793143 365.714286 636.416 292.571429 590.043429 341.321143 469.321143 356.644571 274.285714 338.468571z" fill="#7C7C7C" p-id="13037"></path><path d="M347.428571 487.606857c-24.393143-48.749714-36.571429-97.499429-36.571428-146.285714 24.393143-48.749714 48.749714-60.928 73.142857-36.571429l-36.571429 182.857143z" fill="#7C7C7C" p-id="13038"></path><path d="M292.571429 293.266286l-36.571429-1.389715C262.875429 111.798857 349.659429 18.285714 511.853714 18.285714c162.194286 0 249.051429 93.513143 256.146286 273.554286l-36.571429 1.462857c-6.326857-161.28-78.006857-238.445714-219.574857-238.445714-141.568 0-213.138286 77.165714-219.282285 238.409143z" fill="#252525" p-id="13039"></path><path d="M703.268571 437.577143l36.498286 2.56c-4.388571 62.72-34.230857 102.582857-87.844571 115.126857-33.28 7.753143-73.764571 11.593143-121.636572 11.593143v-36.571429c45.275429 0 83.090286-3.584 113.298286-10.642285 37.010286-8.630857 56.356571-34.486857 59.721143-82.066286z" fill="#606060" p-id="13040"></path><path d="M530.285714 548.571429m-36.571428 0a36.571429 36.571429 0 1 0 73.142857 0 36.571429 36.571429 0 1 0-73.142857 0Z" fill="#4A4A4A" p-id="13041"></path><path d="M420.571429 658.285714h107.885714l107.958857-36.571428L493.714286 768z" fill="#9013FE" p-id="13042"></path></svg>